<svg id="Grupo_811" data-name="Grupo 811" xmlns="http://www.w3.org/2000/svg" width="616.01" height="616.005" viewBox="0 0 616.01 616.005">
  <g id="question-circle-r" transform="translate(0 0)">
    <path id="Caminho_305" data-name="Caminho 305" d="M8.25,124.713A118.463,118.463,0,1,1,150.406,240.806v26.457H103.021V195.79h23.693a71.078,71.078,0,1,0-71.078-71.078Z" transform="translate(181.291 120.11)" fill="#171714"/>
    <path id="Caminho_306" data-name="Caminho 306" d="M58.635,79.18V16H11.25V79.18Z" transform="translate(273.062 418.363)" fill="#171714"/>
    <path id="Caminho_307" data-name="Caminho 307" d="M2.25,310.253c0-170.105,137.9-308,308-308s308,137.9,308,308-137.9,308-308,308S2.25,480.358,2.25,310.253Zm308-260.618c-143.936,0-260.62,116.682-260.62,260.618S166.319,570.87,310.255,570.87,570.874,454.186,570.874,310.253,454.189,49.635,310.255,49.635Z" transform="translate(-2.25 -2.25)" fill="#171714" fill-rule="evenodd"/>
  </g>
</svg>
