<svg xmlns="http://www.w3.org/2000/svg" width="703.065" height="549.891" viewBox="0 0 703.065 549.891">
  <g id="Grupo_808" data-name="Grupo 808" transform="translate(-9227.74 -2066.196)">
    <g id="Grupo_807" data-name="Grupo 807" transform="translate(9227.74 2066.196)">
      <g id="Grupo_806" data-name="Grupo 806">
        <g id="Grupo_805" data-name="Grupo 805">
          <g id="Grupo_804" data-name="Grupo 804">
            <g id="Grupo_485" data-name="Grupo 485" transform="translate(438.613)">
              <path id="Caminho_398" data-name="Caminho 398" d="M1169.245,897.333v66.748c-8-1.025-12.907-5.34-13.287-12.127-.817-14.374-1.215-28.9.07-43.193.436-4.855,6.44-9.207,9.9-13.788Q1167.585,896.155,1169.245,897.333Z" transform="translate(-1155.2 -845.423)" fill="#32969b"/>
              <path id="Caminho_399" data-name="Caminho 399" d="M1309.839,895.966c8.819,1.187,13.324,6.085,13.483,14.555.24,12.672.3,25.367-.024,38.04-.208,8.32-2.464,10.529-13.459,15.071Z" transform="translate(-1059.07 -844.807)" fill="#32969b"/>
              <path id="Caminho_400" data-name="Caminho 400" d="M1390.655,915.566c-.007-23.579-2.13-26.789-23.841-35.743-2.776-1.146-5.639-2.117-8.5-3.039C1318.619,864,1278,861,1237.146,868.384c-18.917,3.427-37.3,10.278-55.566,16.607-7.57,2.623-13.569,7.8-13.514,17.838.3,54.663-.083,109.333.5,163.993.07,6.4,2.883,15.073,7.531,18.616,9.016,6.869,11.132,14.631,10.247,24.85-.76,8.763,4.113,12.986,12.63,13.26,3.685.117,7.379.018,11.066.021,8.986.017,13.787-4.168,13.63-13.453-.078-4.919-.012-9.841-.012-15.4,4.6-.238,7.866-.552,11.132-.553,29.847-.04,59.7.324,89.539-.236,9.043-.171,11.485,2.631,11.264,11.4-.138,5.416,2.025,14.831,4.99,15.634,8.309,2.242,18.023,2.674,26.335.531,7.758-2,5.241-11.014,6-17.532.523-4.509,1.412-10.573,4.459-12.9,9.451-7.193,13.435-15.9,13.377-27.6C1390.52,1014.165,1390.658,964.866,1390.655,915.566Zm-185.68,130.276c-9.454-.13-17.551-8.856-17.174-18.507.369-9.388,8.356-17.088,17.586-16.941,10.3.165,17.69,7.7,17.519,17.859S1215,1045.981,1204.975,1045.842Zm72.144-72.889c.057,6.463-2.857,9.012-9.136,8.982-23.48-.117-46.959-.157-70.437.01-6.674.045-9.923-2.353-9.832-9.377.191-16.432.234-32.875-.03-49.305-.115-7.093,2.955-9.425,9.732-9.224,11.4.338,22.8.093,34.209.093v-.18c12.073,0,24.148.084,36.217-.032,6.733-.066,9.562,2.832,9.429,9.733C1276.944,940.081,1276.986,956.521,1277.119,972.953ZM1249.48,896.7c-3.025-.239-5.766-4.023-8.645-6.185,2.863-2.126,5.677-6.018,8.595-6.094,20.094-.54,40.219-.5,60.32-.021,2.7.062,5.317,3.6,7.977,5.533-2.645,2.365-5.138,6.536-7.961,6.773-9.989.837-20.083.326-30.141.326V897C1269.575,897,1259.479,897.486,1249.48,896.7Zm102.836,149.1c-9.145-.486-17.122-8.886-16.938-17.838a17.825,17.825,0,0,1,18.133-17.578c9.794.213,17.879,8.637,17.511,18.258C1370.667,1038.056,1361.691,1046.29,1352.316,1045.793Zm18.744-72.3c-.009,5.828-2.819,8.425-8.692,8.4q-35.7-.146-71.4.032c-6.967.045-9.41-3.1-9.316-9.812q.372-24.632.022-49.275c-.1-6.575,2.655-8.954,9.026-8.813q4.4.093,8.8.117c8.8.059,17.6-.049,26.4-.049s17.6.108,26.4.055q4.4-.028,8.8-.112c6.571-.134,10.164,2.176,10.115,9.174C1371.076,939.973,1371.081,956.736,1371.06,973.495Z" transform="translate(-1147.201 -864.418)" fill="#32969b"/>
            </g>
            <path id="Caminho_401" data-name="Caminho 401" d="M1134.9,957.824a125.224,125.224,0,0,0-25.688,2.275c-53.513,11.414-88.02,59.717-82.014,114.2,5.395,48.942,47.61,88.715,96.913,90.692,19.391.779,38.824.361,58.245.5,28.9.209,57.852-.5,86.7.9,36.395,1.765,59.731,44.21,43.111,76.77-11.053,21.657-29.185,31.105-53.139,31.067q-120.4-.188-240.808.1c-5.782.012-8.026-1.921-10.056-7.11-17.27-44.067-77.917-53.218-108.087-16.728-7.947,9.608-11.7,20.814-15.353,32.254v18.128c1.169,3.645,2.358,7.287,3.506,10.943,7.816,24.908,31.287,42.924,57.877,44.406,25.2,1.4,50.82-13.942,60.958-37.063,2.062-4.7,4.4-6.275,9.523-6.255,48.119.215,96.238.162,144.357.115,35.816-.036,71.682.933,107.44-.577,38.2-1.611,65.836-21.658,80.52-56.563,14.8-35.182,8.985-68.669-16.149-97.743-19.237-22.25-44.472-31.635-73.641-31.532-41.861.149-83.722-.024-125.582.057-22.3.046-40.53-8.1-54.691-25.6-27.189-33.6-11.041-88.01,30.327-100.486a89.9,89.9,0,0,1,25.35-3.826c103.146-.257,112.233-.207,215.376-.042V957.719M948.815,1317.447a25.511,25.511,0,0,1,.194-51.019,25.51,25.51,0,0,1-.194,51.019Z" transform="translate(-884.726 -806.417)" fill="#32969b"/>
          </g>
        </g>
      </g>
    </g>
  </g>
</svg>
