<svg xmlns="http://www.w3.org/2000/svg" width="519.753" height="509.403" viewBox="0 0 519.753 509.403">
  <g id="Grupo_816" data-name="Grupo 816" transform="translate(-15335.135 -3817.395)">
    <g id="Grupo_815" data-name="Grupo 815" transform="translate(15335.135 3817.395)">
      <g id="Grupo_814" data-name="Grupo 814">
        <path id="Caminho_395" data-name="Caminho 395" d="M59.211,829.43V960.614c-15.72-2.018-25.366-10.5-26.127-23.844-1.6-28.246-2.375-56.792.151-84.884.855-9.544,12.647-18.095,19.444-27.1Q55.945,827.107,59.211,829.43Z" transform="translate(-31.604 -727.394)" fill="#4fa4a8"/>
        <path id="Caminho_396" data-name="Caminho 396" d="M156.109,825.581c17.339,2.336,26.182,11.961,26.5,28.6.471,24.916.594,49.86-.044,74.768-.42,16.355-4.846,20.7-26.455,29.619Z" transform="translate(336.751 -725.028)" fill="#4fa4a8"/>
        <path id="Caminho_397" data-name="Caminho 397" d="M479.433,900.708c0-46.346-4.176-52.657-46.845-70.248-5.463-2.258-11.084-4.165-16.713-5.973-78.015-25.137-157.84-31.027-238.131-16.505-37.183,6.723-73.313,20.192-109.217,32.632-14.876,5.155-26.669,15.339-26.562,35.059.59,107.434-.162,214.884.99,322.31.134,12.568,5.661,29.626,14.793,36.586,17.726,13.5,21.883,28.758,20.145,48.839-1.492,17.223,8.08,25.523,24.824,26.058,7.24.238,14.5.038,21.748.049,17.663.033,27.1-8.192,26.8-26.441-.162-9.676-.028-19.349-.028-30.271,9.037-.47,15.454-1.083,21.871-1.087,58.662-.072,117.34.635,175.986-.464,17.77-.331,22.571,5.173,22.136,22.406-.265,10.643,3.974,29.155,9.805,30.727,16.333,4.407,35.425,5.258,51.758,1.046,15.248-3.938,10.3-21.652,11.8-34.459,1.033-8.865,2.783-20.785,8.772-25.343,18.574-14.146,26.4-31.265,26.289-54.25C479.176,1094.49,479.437,997.6,479.433,900.708ZM114.509,1156.75c-18.581-.254-34.5-17.4-33.759-36.371.72-18.457,16.428-33.588,34.566-33.3,20.244.322,34.768,15.134,34.424,35.1C149.4,1142.12,134.207,1157.021,114.509,1156.75Zm141.8-143.256c.1,12.7-5.617,17.709-17.968,17.651-46.141-.229-92.29-.308-138.431.02-13.122.094-19.5-4.626-19.334-18.426.392-32.3.467-64.609-.051-96.905-.226-13.943,5.8-18.521,19.132-18.129,22.394.668,44.819.185,67.232.185v-.354c23.728,0,47.459.162,71.187-.067,13.226-.125,18.787,5.564,18.518,19.133C255.952,948.887,256.043,981.2,256.3,1013.494Zm-54.323-149.87c-5.95-.47-11.345-7.909-17-12.157,5.629-4.182,11.159-11.828,16.9-11.983,39.5-1.059,79.049-.974,118.551-.043,5.308.126,10.455,7.086,15.676,10.883-5.2,4.646-10.1,12.842-15.648,13.307-19.622,1.643-39.471.637-59.232.637v-.058C241.46,864.211,221.624,865.176,201.981,863.624ZM404.094,1156.65c-17.98-.952-33.656-17.464-33.3-35.059a35.032,35.032,0,0,1,35.635-34.545c19.254.418,35.14,16.975,34.427,35.89C440.16,1141.446,422.517,1157.627,404.094,1156.65Zm36.834-142.089c-.016,11.452-5.538,16.555-17.077,16.51q-70.168-.286-140.331.058c-13.693.094-18.5-6.082-18.3-19.282q.73-48.409.039-96.838c-.19-12.929,5.218-17.6,17.742-17.33q8.639.19,17.287.236c17.291.108,34.59-.091,51.885-.091s34.594.2,51.885.1q8.646-.044,17.291-.215c12.909-.262,19.971,4.283,19.868,18.032C440.964,948.674,440.972,981.616,440.928,1014.561Z" transform="translate(-0.954 -800.181)" fill="#4fa4a8"/>
      </g>
    </g>
  </g>
</svg>
