<?xml version="1.0" encoding="UTF-8"?>
<!DOCTYPE svg PUBLIC "-//W3C//DTD SVG 1.1//EN" "http://www.w3.org/Graphics/SVG/1.1/DTD/svg11.dtd">
<!-- Creator: CorelDRAW 2021 (64 Bit) -->
<svg xmlns="http://www.w3.org/2000/svg" xml:space="preserve" width="270.933mm" height="270.933mm" version="1.1" style="shape-rendering:geometricPrecision; text-rendering:geometricPrecision; image-rendering:optimizeQuality; fill-rule:evenodd; clip-rule:evenodd"
viewBox="0 0 27093.32 27093.32"
 xmlns:xlink="http://www.w3.org/1999/xlink"
 xmlns:xodm="http://www.corel.com/coreldraw/odm/2003">
 <defs>
  <style type="text/css">
   <![CDATA[
    .fil1 {fill:#FEFEFE}
    .fil0 {fill:#329EA0}
   ]]>
  </style>
 </defs>
 <g id="Camada_x0020_1">
  <metadata id="CorelCorpID_0Corel-Layer"/>
  <rect class="fil0" x="-0" y="-0.02" width="27093.33" height="27093.33"/>
  <g id="_2069692107280">
   <polygon class="fil1" points="5004.28,5161.59 5889.32,5161.59 5889.32,6021.73 5004.28,6021.73 "/>
   <polygon class="fil1" points="5035.39,9194.07 5920.43,9194.07 5920.43,10054.12 5035.39,10054.12 "/>
   <polygon class="fil1" points="7469.28,5029.46 8485.2,5029.46 8485.2,6016.7 7469.28,6016.7 "/>
   <polygon class="fil1" points="5876.2,6029.74 7459.31,6029.74 7459.31,7568.3 5876.2,7568.3 "/>
   <polygon class="fil1" points="5882.48,10073.29 7465.59,10073.29 7465.59,11611.78 5882.48,11611.78 "/>
   <polygon class="fil1" points="7447.52,7601.06 9965.48,7601.06 9965.48,10048.08 7447.52,10048.08 "/>
   <polygon class="fil1" points="9977.97,5055.69 12495.92,5055.69 12495.92,7579.85 9977.97,7579.85 "/>
   <polygon class="fil1" points="10902,10825.42 12318.68,10826.88 13555.48,14833.77 14765.03,10827.71 16112.83,10826.95 14169.44,16944.17 12922.93,16919.25 "/>
   <path class="fil1" d="M13561.82 4978.98l10.31 3458.18c4058.45,150.38 6142.63,3948.91 4591.78,7360.97l1413.38 3754.01 -3729.51 -1392.44c-2880.49,1501.67 -7362.97,-359.2 -7351.55,-4537.48l-3470.28 -39.98c-101.08,7377.01 8812.72,11459.4 14519.07,6055.6 4969.38,-4750.81 2493.02,-14146.11 -5983.2,-14658.86z"/>
  </g>
 </g>
</svg>
