<svg xmlns="http://www.w3.org/2000/svg" width="464.922" height="624.882" viewBox="0 0 464.922 624.882">
  <g id="Grupo_801" data-name="Grupo 801" transform="translate(-1043.695 -18.439)">
    <path id="Caminho_402" data-name="Caminho 402" d="M1276.008,643.321c-9.956-11.867-19.7-23.26-29.2-34.856-53.537-65.344-104.74-132.424-146.837-205.848-15.01-26.187-28.011-53.648-40.3-81.254-18.811-42.26-20.382-86.067-8.018-130.532q24.248-87.2,100.281-136.172c45.295-29.019,95.146-40.281,148.422-34.931,48.225,4.844,90.962,23.494,127.756,55.216A229.221,229.221,0,0,1,1498.3,181.5c14.92,47.39,14.095,94.224-5.379,140.617-16.262,38.743-36.094,75.51-58.458,110.94-45.7,72.38-98.169,139.719-153.455,204.924C1279.6,639.643,1278.035,641.167,1276.008,643.321Zm160.974-392.074c.427-88.072-72.068-160.706-160.56-160.872-88.328-.165-160.5,71.879-160.867,160.58-.365,88.224,71.885,160.539,160.576,160.719C1364.625,411.852,1436.559,340.113,1436.982,251.247Z" transform="translate(0 0)" fill="#393939"/>
    <path id="Caminho_403" data-name="Caminho 403" d="M1235.192,104.952A105.068,105.068,0,0,1,1340.311,210c.014,57.976-47.123,105.244-105.027,105.306-57.83.062-105.075-47.228-105.115-105.212A105.058,105.058,0,0,1,1235.192,104.952Z" transform="translate(41.035 41.053)" fill="#393939"/>
  </g>
</svg>
