<svg id="Grupo_813" data-name="Grupo 813" xmlns="http://www.w3.org/2000/svg" width="491.841" height="667.402" viewBox="0 0 491.841 667.402">
  <path id="Caminho_394" data-name="Caminho 394" d="M201.075,714.466c122.973-.026,226.473,89.693,243.4,210.81,7.684,54.958-.753,108-19.208,159.648-37.231,104.187-101.7,189.725-182.612,263.731-11.656,10.662-24.248,20.3-36.231,30.61-3.917,3.37-6.887,3.531-11.039.107-91.5-75.485-167.073-163.317-211.7-274.78-22.117-55.241-32.374-112.511-26.652-172.305,8.909-93.1,75.878-176.544,165.034-205.056A259.94,259.94,0,0,1,201.075,714.466Zm-4.21,433.713c106.232.359,192.631-85.03,193.1-190.844.462-105.119-85.193-191.532-190.23-191.917C92.955,765.028,6.4,849.473,5.967,954.461,5.524,1061.706,90.384,1147.819,196.865,1148.179Z" transform="translate(44.526 -714.466)" fill="#32969b"/>
  <g id="Grupo_481" data-name="Grupo 481" transform="translate(122.562 137.993)">
    <path id="Caminho_395" data-name="Caminho 395" d="M42.832,826.671v53.353c-6.393-.822-10.316-4.27-10.625-9.7a237.114,237.114,0,0,1,.061-34.523c.348-3.88,5.144-7.358,7.908-11.021Z" transform="translate(-31.604 -785.176)" fill="#32969b"/>
    <path id="Caminho_396" data-name="Caminho 396" d="M156.109,825.581c7.051.948,10.648,4.865,10.777,11.63.191,10.133.241,20.278-.018,30.408-.171,6.65-1.971,8.416-10.759,12.045Z" transform="translate(44.333 -784.688)" fill="#32969b"/>
    <path id="Caminho_397" data-name="Caminho 397" d="M219.879,841.064c0-18.848-1.7-21.415-19.052-28.569-2.222-.918-4.508-1.692-6.8-2.429a197.5,197.5,0,0,0-96.846-6.712c-15.122,2.734-29.816,8.212-44.417,13.272-6.05,2.1-10.846,6.237-10.8,14.257.24,43.693-.066,87.391.4,131.08.055,5.112,2.3,12.049,6.016,14.879,7.209,5.492,8.9,11.7,8.193,19.863-.607,7,3.286,10.38,10.1,10.6,2.945.1,5.9.014,8.845.02,7.183.012,11.02-3.332,10.9-10.755-.066-3.933-.011-7.866-.011-12.31,3.675-.189,6.285-.437,8.895-.442,23.857-.03,47.721.258,71.572-.188,7.227-.135,9.18,2.1,9,9.113-.108,4.33,1.616,11.857,3.988,12.5a42.812,42.812,0,0,0,21.05.424c6.2-1.6,4.191-8.8,4.8-14.014.42-3.6,1.132-8.451,3.568-10.307,7.554-5.752,10.736-12.715,10.691-22.062C219.774,919.874,219.88,880.469,219.879,841.064ZM71.467,945.195c-7.557-.1-14.03-7.079-13.729-14.792A14.156,14.156,0,0,1,71.8,916.86c8.233.132,14.14,6.155,14,14.274A13.937,13.937,0,0,1,71.467,945.195Zm57.667-58.261c.04,5.166-2.284,7.2-7.307,7.179-18.765-.093-37.533-.125-56.3.008-5.337.039-7.93-1.881-7.863-7.494.159-13.135.19-26.275-.021-39.41-.092-5.67,2.36-7.533,7.781-7.372,9.107.27,18.227.074,27.343.074v-.144c9.65,0,19.3.067,28.951-.026,5.379-.052,7.641,2.263,7.531,7.78C128.991,860.659,129.028,873.8,129.134,886.934Zm-22.093-60.952c-2.42-.191-4.614-3.215-6.913-4.943,2.289-1.7,4.538-4.81,6.871-4.874,16.064-.43,32.148-.4,48.214-.017,2.159.051,4.252,2.881,6.375,4.425-2.114,1.89-4.107,5.224-6.364,5.413-7.98.667-16.052.259-24.089.259v-.024C123.1,826.221,115.03,826.613,107.042,825.982Zm82.2,119.172c-7.312-.388-13.687-7.1-13.541-14.258a14.247,14.247,0,0,1,14.492-14.05,14.4,14.4,0,0,1,14,14.6C203.907,938.971,196.731,945.55,189.239,945.154Zm14.98-57.787c-.006,4.658-2.252,6.733-6.945,6.714q-28.537-.116-57.071.023c-5.569.039-7.525-2.473-7.444-7.841q.3-19.688.016-39.384c-.077-5.257,2.122-7.159,7.216-7.047q3.514.077,7.031.094c7.032.045,14.067-.037,21.1-.037s14.069.082,21.1.04q3.516-.018,7.032-.089c5.25-.106,8.122,1.742,8.08,7.334C204.234,860.571,204.237,873.969,204.219,887.367Z" transform="translate(-25.286 -800.181)" fill="#32969b"/>
  </g>
</svg>
