<?xml version="1.0" encoding="UTF-8"?>
<!DOCTYPE svg PUBLIC "-//W3C//DTD SVG 1.1//EN" "http://www.w3.org/Graphics/SVG/1.1/DTD/svg11.dtd">
<!-- Creator: CorelDRAW 2021 (64 Bit) -->
<svg xmlns="http://www.w3.org/2000/svg" xml:space="preserve" width="270.933mm" height="270.933mm" version="1.1" style="shape-rendering:geometricPrecision; text-rendering:geometricPrecision; image-rendering:optimizeQuality; fill-rule:evenodd; clip-rule:evenodd"
viewBox="0 0 27093.32 27093.32"
 xmlns:xlink="http://www.w3.org/1999/xlink"
 xmlns:xodm="http://www.corel.com/coreldraw/odm/2003">
 <defs>
  <style type="text/css">
   <![CDATA[
    .fil2 {fill:none}
    .fil0 {fill:#80367C}
    .fil1 {fill:#329EA0}
   ]]>
  </style>
 </defs>
 <g id="Camada_x0020_1">
  <metadata id="CorelCorpID_0Corel-Layer"/>
  <g id="_1851138382128">
   <polygon class="fil0" points="1720.84,1938.61 2946.06,1938.61 2946.06,3129.36 1720.84,3129.36 "/>
   <polygon class="fil0" points="1763.91,7521.06 2989.13,7521.06 2989.13,8711.7 1763.91,8711.7 "/>
   <polygon class="fil0" points="5133.32,1755.69 6539.73,1755.69 6539.73,3122.4 5133.32,3122.4 "/>
   <polygon class="fil0" points="2927.9,3140.45 5119.51,3140.45 5119.51,5270.4 2927.9,5270.4 "/>
   <polygon class="fil0" points="2936.6,8738.23 5128.21,8738.23 5128.21,10868.07 2936.6,10868.07 "/>
   <polygon class="fil0" points="5103.2,5315.75 8588.98,5315.75 8588.98,8703.32 5103.2,8703.32 "/>
   <polygon class="fil0" points="8606.27,1792.01 12092.05,1792.01 12092.05,5286.38 8606.27,5286.38 "/>
   <polygon class="fil0" points="9885.47,9779.46 11846.68,9781.48 13558.87,15328.5 15233.34,9782.62 17099.19,9781.58 14408.82,18250.07 12683.19,18215.57 "/>
   <path class="fil1" d="M13567.65 1685.82l14.28 4787.39c5618.4,208.19 8503.68,5466.77 6356.73,10190.32l1956.64 5196.94 -5163.04 -1927.65c-3987.66,2078.87 -10193.08,-497.27 -10177.26,-6281.56l-4804.16 -55.34c-139.93,10212.52 12200.07,15864.05 20099.78,8383.19 6879.47,-6576.88 3451.26,-19583.47 -8282.97,-20293.29z"/>
  </g>
  <rect class="fil2" x="-0" y="-0.02" width="27093.33" height="27093.33"/>
 </g>
</svg>
