<svg id="search-r" xmlns="http://www.w3.org/2000/svg" width="557" height="557" viewBox="0 0 557 557">
  <path id="search-r-2" data-name="search-r" d="M248.266,2.25C112.4,2.25,2.25,112.4,2.25,248.266S112.4,494.282,248.266,494.282A245.028,245.028,0,0,0,406.678,436.5L529.427,559.25l29.823-29.823L436.5,406.678a245.028,245.028,0,0,0,57.781-158.412C494.282,112.4,384.137,2.25,248.266,2.25ZM44.424,248.266c0-112.579,91.263-203.842,203.842-203.842s203.842,91.263,203.842,203.842S360.846,452.108,248.266,452.108,44.424,360.846,44.424,248.266Z" transform="translate(-2.25 -2.25)" fill="#c7c7cc" fill-rule="evenodd"/>
</svg>
