<svg id="Grupo_812" data-name="Grupo 812" xmlns="http://www.w3.org/2000/svg" width="511.06" height="587.098" viewBox="0 0 511.06 587.098">
  <g id="Camada_2" data-name="Camada 2" transform="translate(0 0)">
    <g id="Camada_1" data-name="Camada 1">
      <path id="Caminho_786" data-name="Caminho 786" d="M509.772,476.717c-6.519-38.02-28.242-64.57-64.962-76.679s-69.645-3.486-97.742,23.063c-2.455,2.331-4.126,2.971-7.138,1.032q-75.091-46.767-150.409-93.224c-2.868-1.754-3.8-3.2-2.579-6.725a91.717,91.717,0,0,0,0-61.228c-1.2-3.466-.33-4.951,2.537-6.725q75.3-46.478,150.43-93.2c3.074-1.919,4.683-1.4,7.138.97,24.075,23.187,52.667,32.2,85.653,26.426,46.231-8.087,81.115-52.11,78.144-98.278C507.585,41.686,468.987,2.47,420.322.139a96.071,96.071,0,0,0-96.711,125.839c1.341,4.126.5,5.941-3.033,8.107q-73.606,45.384-147.026,91.078c-4.559,2.847-7.014,3.033-11.367-.908-29.5-26.818-63.662-34.451-100.837-20.01S3.669,247.567.327,287.154,19.7,364.019,55.7,380.749A95.391,95.391,0,0,0,163.259,362c3.033-2.971,4.93-3.259,8.582-.99q73.626,45.88,147.542,91.346c4.642,2.867,5.446,5.157,3.816,10.315a95.823,95.823,0,0,0,71.77,122.352c2.063.454,4.621,0,6.189,2.063h26.488c2.249-2.063,5.281-1.671,7.942-2.249C484.335,574.438,518.209,525.67,509.772,476.717ZM414.649,35.188a60.98,60.98,0,1,1-60.692,60.877,60.981,60.981,0,0,1,60.692-60.877ZM96.213,354.488a60.939,60.939,0,1,1,60.857-60.774,60.939,60.939,0,0,1-60.857,60.774ZM414.649,551.931a60.96,60.96,0,1,1,61.228-60.4A60.96,60.96,0,0,1,414.649,551.931Z" transform="translate(-0.002 0.014)" fill="#393939"/>
    </g>
  </g>
</svg>
