<svg id="sun-r" xmlns="http://www.w3.org/2000/svg" width="627.646" height="627.643" viewBox="0 0 627.646 627.643">
  <path id="Caminho_332" data-name="Caminho 332" d="M11.25,20V76.327H59.531V20Z" transform="translate(278.433 551.317)" fill="#32969b"/>
  <path id="Caminho_333" data-name="Caminho 333" d="M11.25,2.25V58.577H59.531V2.25Z" transform="translate(278.433 -2.25)" fill="#32969b"/>
  <path id="Caminho_334" data-name="Caminho 334" d="M6.25,191.324C6.25,89.111,89.111,6.25,191.325,6.25S376.4,89.111,376.4,191.324,293.538,376.4,191.325,376.4,6.25,293.537,6.25,191.324ZM191.325,54.53A136.794,136.794,0,1,0,328.12,191.324,136.794,136.794,0,0,0,191.325,54.53Z" transform="translate(122.498 122.497)" fill="#32969b" fill-rule="evenodd"/>
  <path id="Caminho_335" data-name="Caminho 335" d="M2.25,11.25H58.577V59.53H2.25Z" transform="translate(-2.25 278.432)" fill="#32969b"/>
  <path id="Caminho_336" data-name="Caminho 336" d="M20,11.25H76.327V59.53H20Z" transform="translate(551.319 278.432)" fill="#32969b"/>
  <path id="Caminho_337" data-name="Caminho 337" d="M38.715,4.575,78.544,44.4,44.4,78.544,4.575,38.715Z" transform="translate(70.272 70.272)" fill="#32969b"/>
  <path id="Caminho_338" data-name="Caminho 338" d="M51.267,17.126,91.1,56.958,56.958,91.1,17.126,51.267Z" transform="translate(461.703 461.701)" fill="#32969b"/>
  <path id="Caminho_339" data-name="Caminho 339" d="M44.4,17.126,4.575,56.958,38.715,91.1,78.544,51.267Z" transform="translate(70.272 461.701)" fill="#32969b"/>
  <path id="Caminho_340" data-name="Caminho 340" d="M56.958,4.575,17.126,44.4,51.267,78.544,91.1,38.715Z" transform="translate(461.703 70.271)" fill="#32969b"/>
</svg>
