<svg xmlns="http://www.w3.org/2000/svg" width="222.857" height="224.556" viewBox="0 0 222.857 224.556">
  <g id="Grupo_591" data-name="Grupo 591" transform="translate(-468.916 -49.283)">
    <g id="Grupo_562" data-name="Grupo 562" transform="translate(469.416 55.301)">
      <path id="Caminho_570" data-name="Caminho 570" d="M500.2,243.912c-26.224-30.879-17.035-76.649-1.427-90.518s40.377-21.488,53.648-37.693,28.553-27.808,56.491-19.446,27.52,30.083,35.9,43.522,45.746,20.945,43.618,55.434-25.844,34.43-36.66,42.927S623.9,286.762,589.755,287.18C547.913,287.693,522.394,270.045,500.2,243.912Z" transform="translate(-476.644 -77.682)" fill="#eef"/>
      <g id="Grupo_557" data-name="Grupo 557">
        <g id="Grupo_554" data-name="Grupo 554" transform="translate(99.616)" opacity="0.3">
          <path id="Caminho_571" data-name="Caminho 571" d="M689.958,61.441l-1.477,5.14a16.865,16.865,0,0,0-3.837,1.563l-4.735-2.6-4.232,4.178,2.633,4.674a16.44,16.44,0,0,0-1.583,3.787l-5.207,1.458v5.922l5.207,1.458a16.44,16.44,0,0,0,1.583,3.787l-2.633,4.674,4.232,4.178,4.735-2.6a16.863,16.863,0,0,0,3.837,1.563l1.477,5.14h6l1.477-5.14a16.875,16.875,0,0,0,3.837-1.563l4.735,2.6,4.232-4.178L707.6,90.808a16.423,16.423,0,0,0,1.584-3.787l5.206-1.458V79.641l-5.206-1.458A16.423,16.423,0,0,0,707.6,74.4l2.634-4.674L706,65.544l-4.735,2.6a16.877,16.877,0,0,0-3.837-1.563l-1.477-5.14Zm3,10.1a11.059,11.059,0,1,1-11.2,11.059A11.154,11.154,0,0,1,692.957,71.544Z" transform="translate(-671.521 -61.441)" fill="none" stroke="#7371fc" stroke-miterlimit="10" stroke-width="1"/>
        </g>
        <g id="Grupo_555" data-name="Grupo 555" transform="translate(193.329 97.415)" opacity="0.3">
          <path id="Caminho_572" data-name="Caminho 572" d="M873.92,259.081l-.983,3.42a11.237,11.237,0,0,0-2.553,1.04l-3.151-1.73-2.816,2.78,1.752,3.11a10.917,10.917,0,0,0-1.053,2.52l-3.465.97v3.94l3.465.97a10.918,10.918,0,0,0,1.053,2.52l-1.752,3.111,2.816,2.78,3.151-1.73a11.219,11.219,0,0,0,2.553,1.04l.983,3.42h3.991l.983-3.42a11.218,11.218,0,0,0,2.553-1.04l3.151,1.73,2.816-2.78-1.753-3.111a10.919,10.919,0,0,0,1.054-2.52l3.465-.97v-3.94l-3.465-.97a10.918,10.918,0,0,0-1.054-2.52l1.753-3.11-2.816-2.78-3.151,1.73a11.236,11.236,0,0,0-2.553-1.04l-.983-3.42Zm2,6.723a7.359,7.359,0,1,1-7.454,7.358A7.422,7.422,0,0,1,875.915,265.8Z" transform="translate(-861.651 -259.081)" fill="none" stroke="#7371fc" stroke-miterlimit="10" stroke-width="1"/>
        </g>
        <g id="Grupo_556" data-name="Grupo 556" transform="translate(0 106.422)" opacity="0.3">
          <path id="Caminho_573" data-name="Caminho 573" d="M496.074,277.354l-2.135,7.432a24.392,24.392,0,0,0-5.547,2.26l-6.846-3.76-6.12,6.041,3.808,6.759a23.735,23.735,0,0,0-2.289,5.476l-7.529,2.108v8.562l7.529,2.108a23.734,23.734,0,0,0,2.289,5.476l-3.808,6.759,6.12,6.041,6.846-3.759a24.415,24.415,0,0,0,5.547,2.26l2.135,7.432h8.673l2.135-7.432a24.406,24.406,0,0,0,5.548-2.26l6.846,3.759,6.12-6.041-3.808-6.759a23.738,23.738,0,0,0,2.289-5.477l7.528-2.108V303.67l-7.528-2.108a23.735,23.735,0,0,0-2.289-5.476l3.808-6.759-6.12-6.041-6.846,3.76a24.384,24.384,0,0,0-5.548-2.26l-2.135-7.432Zm4.337,14.608a15.991,15.991,0,1,1-16.2,15.989A16.128,16.128,0,0,1,500.411,291.962Z" transform="translate(-469.416 -277.354)" fill="none" stroke="#7371fc" stroke-miterlimit="10" stroke-width="1"/>
        </g>
      </g>
      <g id="Grupo_561" data-name="Grupo 561" transform="translate(2.346 48.648)">
        <g id="Grupo_558" data-name="Grupo 558" transform="translate(95.521 141.704)">
          <path id="Caminho_574" data-name="Caminho 574" d="M673.9,459.117h0a10.906,10.906,0,0,1,5.849-5.706l.082-.034-.355-.159a10.9,10.9,0,0,1-5.526-5.472l-.049-.11-.274.541a10.9,10.9,0,0,1-4.9,4.824l-.757.375.046.019a10.926,10.926,0,0,1,5.725,5.385Z" transform="translate(-667.973 -447.637)" fill="#32338c"/>
          <path id="Caminho_575" data-name="Caminho 575" d="M692.092,472.162h0a5.452,5.452,0,0,1,2.924-2.853l.041-.017-.178-.079a5.454,5.454,0,0,1-2.763-2.736l-.024-.055-.137.271a5.451,5.451,0,0,1-2.45,2.412l-.378.187.023.009a5.464,5.464,0,0,1,2.863,2.693Z" transform="translate(-678.7 -457.163)" fill="#7371fc"/>
        </g>
        <g id="Grupo_559" data-name="Grupo 559" transform="translate(196.832)">
          <path id="Caminho_576" data-name="Caminho 576" d="M884.769,168.724h0a8.154,8.154,0,0,0-4.372-4.266l-.062-.026.266-.118a8.154,8.154,0,0,0,4.132-4.091l.036-.082.205.4a8.153,8.153,0,0,0,3.664,3.607l.565.28-.034.014a8.172,8.172,0,0,0-4.28,4.026Z" transform="translate(-876.974 -160.141)" fill="#7371fc"/>
          <path id="Caminho_577" data-name="Caminho 577" d="M875.733,178.478h0a4.078,4.078,0,0,0-2.186-2.133l-.031-.012.133-.06a4.075,4.075,0,0,0,2.066-2.046l.018-.041.1.2a4.073,4.073,0,0,0,1.832,1.8l.282.14-.017.007a4.084,4.084,0,0,0-2.141,2.013Z" transform="translate(-873.516 -167.263)" fill="#32338c"/>
        </g>
        <g id="Grupo_560" data-name="Grupo 560" transform="translate(0 43.16)">
          <path id="Caminho_578" data-name="Caminho 578" d="M485.428,256.288h0a8.156,8.156,0,0,0-4.372-4.266l-.062-.025.266-.119a8.15,8.15,0,0,0,4.132-4.091l.036-.082.205.4a8.149,8.149,0,0,0,3.664,3.607l.566.28-.035.014a8.17,8.17,0,0,0-4.28,4.026Z" transform="translate(-477.633 -247.705)" fill="#7371fc"/>
          <path id="Caminho_579" data-name="Caminho 579" d="M476.392,266.042h0a4.076,4.076,0,0,0-2.186-2.133l-.031-.013.133-.059a4.077,4.077,0,0,0,2.066-2.045l.018-.041.1.2a4.078,4.078,0,0,0,1.832,1.8l.283.14-.017.007a4.084,4.084,0,0,0-2.14,2.013Z" transform="translate(-474.175 -254.827)" fill="#32338c"/>
        </g>
      </g>
    </g>
    <g id="Grupo_569" data-name="Grupo 569" transform="translate(616.961 49.334)">
      <path id="Caminho_580" data-name="Caminho 580" d="M781.247,141.091a31.107,31.107,0,0,1,10.365,3.336,83.821,83.821,0,0,1,24.873,19.681c2.8,3.256,5.445,6.959,5.884,11.231.5,4.892-1.956,9.546-4.338,13.849-1.983,3.582-4.376,7.5-8.336,8.535-3.246.852-6.646-.51-9.578-2.141-11.462-6.379-20.056-17.268-24.988-29.423a38.93,38.93,0,0,1-2.878-17.836c.114-1.77-4.523-1.934-3.279-3.335C770.745,142.992,776.268,140.456,781.247,141.091Z" transform="translate(-768.762 -95.814)" fill="#32338c"/>
      <g id="Grupo_563" data-name="Grupo 563" transform="translate(29.329 47.62)">
        <path id="Caminho_581" data-name="Caminho 581" d="M840.628,162.788a11.528,11.528,0,0,1-1.254,1.437,17.125,17.125,0,0,1-5.515,3.411,11.98,11.98,0,0,1-4.689,1.051c-.18,0-.36-.017-.539-.035a2.454,2.454,0,0,0,.383.865,3.5,3.5,0,0,0,2.707,1.075,17.672,17.672,0,0,0,7.909-1.373,1.435,1.435,0,0,0,.706-.5,1.511,1.511,0,0,0,.125-.876A32.625,32.625,0,0,1,840.628,162.788Z" transform="translate(-828.451 -154.487)" fill="#f8ab73"/>
        <path id="Caminho_582" data-name="Caminho 582" d="M833.674,159.1a17.125,17.125,0,0,0,5.515-3.411,11.536,11.536,0,0,0,1.254-1.437c.273-2.735.741-5.425.885-8.206-2.8-.658-7.329,2.251-9.283,4.087a11.4,11.4,0,0,0-3.725,9.278,5.1,5.1,0,0,0,.126.707c.18.018.359.031.539.035A11.979,11.979,0,0,0,833.674,159.1Z" transform="translate(-828.266 -145.947)" fill="#fe814b"/>
      </g>
      <path id="Caminho_583" data-name="Caminho 583" d="M829.439,84.641a35.022,35.022,0,0,0,4.486-7.586,11.79,11.79,0,0,0,.249-8.623c-1.128-2.722-3.932-4.844-6.867-4.591.921-1.889-.2-3.985-1.74-5.414a10.67,10.67,0,0,0-5.734-2.381c-5.878-.906-11.873.326-17.815.066a13.948,13.948,0,0,1-6.344-1.5,6.384,6.384,0,0,1-3.415-5.272,12.187,12.187,0,0,0-1.5,5.524,5.123,5.123,0,0,0,2.824,4.415c-1.707.482-3.489-.571-4.6-1.957a8.816,8.816,0,0,1-1.663-4.967,9.773,9.773,0,0,0-3.875,5.249,12.5,12.5,0,0,0-.635,5.966,7.346,7.346,0,0,0,3.1,5,4.443,4.443,0,0,1-2.448-.1,3.691,3.691,0,0,0,1.463,2.907,8.608,8.608,0,0,0,3.029,1.437c3.7,1.107,7.582,1.407,11.371,2.144,8.945,1.74,17.208,5.882,25.711,9.161A8.683,8.683,0,0,0,829.439,84.641Z" transform="translate(-775.82 -49.334)" fill="#fe642f"/>
      <g id="Grupo_564" data-name="Grupo 564" transform="translate(13.38 9.345)">
        <path id="Caminho_584" data-name="Caminho 584" d="M826.817,103.916c-1.28-4.542-.6-9.431.815-13.932-4.47,4.21-11.049,5.246-17.134,4.421a17.628,17.628,0,0,0,5.371-4.041c-6.048-.393-12.286,1.078-18.32.516a32.944,32.944,0,0,0-1.383,6.275,45.787,45.787,0,0,0,.53,13.047c.784,4.7,2.092,9.476,5.067,13.2s7.952,6.164,12.569,4.987a14.587,14.587,0,0,0,4.743-2.367A36.035,36.035,0,0,0,830.9,110.662,14.737,14.737,0,0,1,826.817,103.916Z" transform="translate(-795.909 -79.293)" fill="#f8ab74"/>
        <path id="Caminho_585" data-name="Caminho 585" d="M817.556,79.365a17.626,17.626,0,0,1-5.371,4.041c6.085.826,12.664-.211,17.134-4.421-1.419,4.5-2.1,9.39-.815,13.932a14.737,14.737,0,0,0,4.083,6.746q.507-1.175.953-2.371A31.777,31.777,0,0,0,835.764,86.6a17.726,17.726,0,0,0-2.983-10.377c-2.975-4.208-8.025-6.53-13.09-7.482a19.873,19.873,0,0,0-7.5-.158c-3.288.65-7.766,2.5-9.9,5.267a20.418,20.418,0,0,0-3.054,6.031C805.269,80.443,811.508,78.972,817.556,79.365Z" transform="translate(-797.596 -68.294)" fill="#fe642f"/>
      </g>
      <g id="Grupo_565" data-name="Grupo 565" transform="translate(45.271 29.864)">
        <path id="Caminho_586" data-name="Caminho 586" d="M861.194,114.054a11.259,11.259,0,0,0-.349,5.947c.277,1.526.9,3.177,2.3,3.834a3.664,3.664,0,0,0,3.3-.273,7.678,7.678,0,0,0,2.413-2.409,10.7,10.7,0,0,0,1.961-4.749,6.061,6.061,0,0,0-1.42-4.823c-1.154-1.232-3.187-2.129-4.782-1.392A6.9,6.9,0,0,0,861.194,114.054Z" transform="translate(-860.609 -109.923)" fill="#f8ab73"/>
        <path id="Caminho_587" data-name="Caminho 587" d="M870.934,116.034a2.472,2.472,0,0,0-2.9-.792,4.045,4.045,0,0,0-2.159,2.31,11.987,11.987,0,0,0-.673,3.171,2.16,2.16,0,0,1,2.083-.883,1.9,1.9,0,0,1,1.12,2.462,3.311,3.311,0,0,1-2.251,1.885" transform="translate(-862.938 -112.533)" fill="none" stroke="#32338c" stroke-miterlimit="10" stroke-width="1.118"/>
      </g>
      <path id="Caminho_588" data-name="Caminho 588" d="M822.43,107.893a22.707,22.707,0,0,1-2.5,13.243,6.687,6.687,0,0,0,2.271.763" transform="translate(-794.71 -79.03)" fill="none" stroke="#32338c" stroke-miterlimit="10" stroke-width="1.118"/>
      <g id="Grupo_566" data-name="Grupo 566" transform="translate(22.362 44.642)">
        <path id="Caminho_589" data-name="Caminho 589" d="M821.875,147.043a3.737,3.737,0,0,0,1.645.625c1.543.145,3-1.265,4.018-2.606A7.724,7.724,0,0,0,821.875,147.043Z" transform="translate(-818.059 -142.511)" fill="#fe632e"/>
        <path id="Caminho_590" data-name="Caminho 590" d="M819.017,141.873a15.8,15.8,0,0,1-4.885-1.968,14.168,14.168,0,0,0,3.816,4.531,7.724,7.724,0,0,1,5.663-1.981,16.238,16.238,0,0,0,1.443-2.279S820.985,142.076,819.017,141.873Z" transform="translate(-814.132 -139.905)" fill="#32338c"/>
      </g>
      <path id="Caminho_591" data-name="Caminho 591" d="M810.927,115.319c.052,1.049-.452,1.926-1.126,1.96s-1.262-.79-1.314-1.839.452-1.926,1.126-1.96S810.875,114.27,810.927,115.319Z" transform="translate(-788.905 -81.862)" fill="#32328c"/>
      <path id="Caminho_592" data-name="Caminho 592" d="M838.734,115.842c.052,1.049-.452,1.927-1.126,1.96s-1.262-.79-1.314-1.839.452-1.926,1.126-1.959S838.683,114.794,838.734,115.842Z" transform="translate(-803.007 -82.128)" fill="#32328c"/>
      <path id="Caminho_593" data-name="Caminho 593" d="M803.044,105.777a6.758,6.758,0,0,1,2.668-2.594,5.122,5.122,0,0,1,3.658-.436" transform="translate(-786.147 -76.338)" fill="none" stroke="#fe642e" stroke-miterlimit="10" stroke-width="4.471"/>
      <path id="Caminho_594" data-name="Caminho 594" d="M839.553,105.777a6.758,6.758,0,0,0-2.668-2.594,5.121,5.121,0,0,0-3.658-.436" transform="translate(-801.453 -76.338)" fill="none" stroke="#fe642e" stroke-miterlimit="10" stroke-width="4.471"/>
      <g id="Grupo_567" data-name="Grupo 567" transform="translate(16.268 40.789)">
        <path id="Caminho_595" data-name="Caminho 595" d="M806.836,133.606c0,.838-1.135,1.518-2.534,1.518s-2.534-.68-2.534-1.518,1.135-1.518,2.534-1.518S806.836,132.768,806.836,133.606Z" transform="translate(-801.767 -132.088)" fill="#f8ab74" opacity="0.4" style="mix-blend-mode: multiply;isolation: isolate"/>
        <path id="Caminho_596" data-name="Caminho 596" d="M842.495,133.606c0,.838-1.135,1.518-2.534,1.518s-2.534-.68-2.534-1.518,1.135-1.518,2.534-1.518S842.495,132.768,842.495,133.606Z" transform="translate(-819.85 -132.088)" fill="#f8ab74" opacity="0.4" style="mix-blend-mode: multiply;isolation: isolate"/>
      </g>
      <g id="Grupo_568" data-name="Grupo 568" transform="translate(10.379 0.082)">
        <path id="Caminho_597" data-name="Caminho 597" d="M802.065,49.5a8.32,8.32,0,0,0,4.63,9.311,13.238,13.238,0,0,0,5.358.844c4.5-.031,8.977-.9,13.481-.835a12.516,12.516,0,0,1,5.826,1.209A5.67,5.67,0,0,1,834.51,64.8" transform="translate(-795.923 -49.501)" fill="none" stroke="#f8ab74" stroke-miterlimit="10" stroke-width="1.118"/>
        <path id="Caminho_598" data-name="Caminho 598" d="M826.4,71.118a5.9,5.9,0,0,0-3.389-4.449,10.11,10.11,0,0,0-5.71-.72,37.777,37.777,0,0,0-5.66,1.4c-4.6,1.346-9.49,2.361-14.16,1.282A11.52,11.52,0,0,1,794.06,67.3,8.868,8.868,0,0,1,790.635,56" transform="translate(-789.82 -52.798)" fill="none" stroke="#f8ab74" stroke-miterlimit="10" stroke-width="1.118"/>
        <path id="Caminho_599" data-name="Caminho 599" d="M847.415,82.482a3.866,3.866,0,0,0-1.767-1.718,6.2,6.2,0,0,0-5.841.627,22.532,22.532,0,0,0-4.487,4.15" transform="translate(-812.894 -65.111)" fill="none" stroke="#f8ab74" stroke-miterlimit="10" stroke-width="1.118"/>
        <path id="Caminho_600" data-name="Caminho 600" d="M873.9,84.433a3.548,3.548,0,0,1,3.117.8,5.639,5.639,0,0,1,1.7,2.828,9.929,9.929,0,0,1-.142,5.389,18.309,18.309,0,0,1-2.377,4.894" transform="translate(-832.455 -67.166)" fill="none" stroke="#f8ab74" stroke-miterlimit="10" stroke-width="1.118"/>
        <path id="Caminho_601" data-name="Caminho 601" d="M866.055,89.275a2.63,2.63,0,0,1,2.081.854,5.316,5.316,0,0,1,1.133,2.012,11.168,11.168,0,0,1,.05,7.052c-.063.192-.223.427-.409.346" transform="translate(-828.479 -69.666)" fill="none" stroke="#f8ab74" stroke-miterlimit="10" stroke-width="1.118"/>
      </g>
    </g>
    <g id="Grupo_570" data-name="Grupo 570" transform="translate(476.881 61.564)">
      <rect id="Retângulo_89" data-name="Retângulo 89" width="62.309" height="67.727" transform="translate(10.303 30.478) rotate(-7.352)" fill="#eef"/>
      <rect id="Retângulo_90" data-name="Retângulo 90" width="62.309" height="14.759" transform="matrix(0.992, -0.128, 0.128, 0.992, 8.414, 15.841)" fill="#7371fc"/>
      <rect id="Retângulo_91" data-name="Retângulo 91" width="8.484" height="67.727" transform="translate(1.888 31.564) rotate(-7.352)" fill="#91c4fb"/>
      <rect id="Retângulo_92" data-name="Retângulo 92" width="8.484" height="14.759" transform="translate(0 16.926) rotate(-7.352)" fill="#443dc3"/>
      <rect id="Retângulo_93" data-name="Retângulo 93" width="9.522" height="12.929" transform="translate(15.079 34.671) rotate(-7.352)" fill="#fefffd"/>
      <rect id="Retângulo_94" data-name="Retângulo 94" width="9.522" height="12.929" transform="translate(26.288 33.224) rotate(-7.352)" fill="#fefffd"/>
      <rect id="Retângulo_95" data-name="Retângulo 95" width="9.522" height="12.929" transform="matrix(0.992, -0.128, 0.128, 0.992, 37.496, 31.778)" fill="#fefffd"/>
      <rect id="Retângulo_96" data-name="Retângulo 96" width="9.522" height="12.929" transform="matrix(0.992, -0.128, 0.128, 0.992, 48.705, 30.332)" fill="#fefffd"/>
      <rect id="Retângulo_97" data-name="Retângulo 97" width="9.522" height="12.929" transform="matrix(0.992, -0.128, 0.128, 0.992, 59.913, 28.886)" fill="#fefffd"/>
      <rect id="Retângulo_98" data-name="Retângulo 98" width="9.522" height="12.929" transform="translate(16.95 49.168) rotate(-7.352)" fill="#fefffd"/>
      <rect id="Retângulo_99" data-name="Retângulo 99" width="9.522" height="12.929" transform="translate(28.158 47.722) rotate(-7.352)" fill="#fefffd"/>
      <rect id="Retângulo_100" data-name="Retângulo 100" width="9.522" height="12.929" transform="translate(39.367 46.276) rotate(-7.352)" fill="#fefffd"/>
      <rect id="Retângulo_101" data-name="Retângulo 101" width="9.522" height="12.929" transform="translate(50.575 44.829) rotate(-7.352)" fill="#fefffd"/>
      <rect id="Retângulo_102" data-name="Retângulo 102" width="9.522" height="12.929" transform="matrix(0.992, -0.128, 0.128, 0.992, 61.784, 43.383)" fill="#fefffd"/>
      <rect id="Retângulo_103" data-name="Retângulo 103" width="9.522" height="12.929" transform="translate(18.82 63.665) rotate(-7.352)" fill="#fefffd"/>
      <rect id="Retângulo_104" data-name="Retângulo 104" width="9.522" height="12.929" transform="matrix(0.992, -0.128, 0.128, 0.992, 30.029, 62.219)" fill="#fefffd"/>
      <rect id="Retângulo_105" data-name="Retângulo 105" width="9.522" height="12.929" transform="translate(41.237 60.773) rotate(-7.351)" fill="#fefffd"/>
      <rect id="Retângulo_106" data-name="Retângulo 106" width="9.522" height="12.929" transform="translate(52.446 59.327) rotate(-7.352)" fill="#fefffd"/>
      <rect id="Retângulo_107" data-name="Retângulo 107" width="9.522" height="12.929" transform="matrix(0.992, -0.128, 0.128, 0.992, 63.654, 57.881)" fill="#fefffd"/>
      <rect id="Retângulo_108" data-name="Retângulo 108" width="9.522" height="12.929" transform="translate(20.691 78.163) rotate(-7.352)" fill="#fefffd"/>
      <rect id="Retângulo_109" data-name="Retângulo 109" width="9.522" height="12.929" transform="matrix(0.992, -0.128, 0.128, 0.992, 31.899, 76.717)" fill="#fefffd"/>
      <rect id="Retângulo_110" data-name="Retângulo 110" width="9.522" height="12.929" transform="translate(43.108 75.27) rotate(-7.352)" fill="#fefffd"/>
      <rect id="Retângulo_111" data-name="Retângulo 111" width="9.522" height="12.929" transform="translate(54.316 73.824) rotate(-7.351)" fill="#fefffd"/>
      <rect id="Retângulo_112" data-name="Retângulo 112" width="9.522" height="12.929" transform="matrix(0.992, -0.128, 0.128, 0.992, 65.525, 72.378)" fill="#fefffd"/>
      <path id="Caminho_602" data-name="Caminho 602" d="M494.046,97l-.537-4.159a4.761,4.761,0,0,1,4.113-5.331l2.891-.373a4.761,4.761,0,0,1,5.331,4.113l.925,7.167a4.761,4.761,0,0,1-4.113,5.332h0" transform="translate(-489.079 -80.714)" fill="none" stroke="#32338c" stroke-linecap="round" stroke-linejoin="round" stroke-width="4.028"/>
      <path id="Caminho_603" data-name="Caminho 603" d="M510.774,94.841l-.536-4.159a4.761,4.761,0,0,1,4.113-5.332l2.891-.373a4.761,4.761,0,0,1,5.332,4.113l.925,7.167a4.761,4.761,0,0,1-4.113,5.331h0" transform="translate(-497.562 -79.619)" fill="none" stroke="#32338c" stroke-linecap="round" stroke-linejoin="round" stroke-width="4.028"/>
      <path id="Caminho_604" data-name="Caminho 604" d="M527.5,92.682l-.537-4.159a4.761,4.761,0,0,1,4.113-5.331l2.891-.373a4.761,4.761,0,0,1,5.331,4.113l.925,7.168a4.761,4.761,0,0,1-4.113,5.331h0" transform="translate(-506.045 -78.524)" fill="none" stroke="#32338c" stroke-linecap="round" stroke-linejoin="round" stroke-width="4.028"/>
      <path id="Caminho_605" data-name="Caminho 605" d="M544.232,90.524l-.537-4.159a4.761,4.761,0,0,1,4.113-5.331l2.891-.373a4.761,4.761,0,0,1,5.331,4.113l.925,7.167a4.761,4.761,0,0,1-4.113,5.332h0" transform="translate(-514.528 -77.43)" fill="none" stroke="#32338c" stroke-linecap="round" stroke-linejoin="round" stroke-width="4.028"/>
      <path id="Caminho_606" data-name="Caminho 606" d="M560.96,88.365l-.536-4.158a4.761,4.761,0,0,1,4.113-5.332l2.891-.373a4.761,4.761,0,0,1,5.331,4.113l.925,7.168a4.761,4.761,0,0,1-4.113,5.331h0" transform="translate(-523.012 -76.335)" fill="none" stroke="#32338c" stroke-linecap="round" stroke-linejoin="round" stroke-width="4.028"/>
      <path id="Caminho_607" data-name="Caminho 607" d="M577.689,86.207l-.536-4.159a4.761,4.761,0,0,1,4.113-5.331l2.891-.373a4.761,4.761,0,0,1,5.332,4.113l.925,7.167a4.762,4.762,0,0,1-4.113,5.332h0" transform="translate(-531.495 -75.241)" fill="none" stroke="#32338c" stroke-linecap="round" stroke-linejoin="round" stroke-width="4.028"/>
      <path id="Caminho_608" data-name="Caminho 608" d="M594.418,84.048l-.537-4.158a4.762,4.762,0,0,1,4.113-5.332l2.891-.373a4.761,4.761,0,0,1,5.331,4.113l.925,7.167a4.761,4.761,0,0,1-4.113,5.331h0" transform="translate(-539.978 -74.146)" fill="none" stroke="#32338c" stroke-linecap="round" stroke-linejoin="round" stroke-width="4.028"/>
    </g>
    <g id="Grupo_575" data-name="Grupo 575" transform="translate(499.931 88.172)">
      <circle id="Elipse_17" data-name="Elipse 17" cx="75.531" cy="75.531" r="75.531" transform="translate(0 0)" fill="#32338c"/>
      <circle id="Elipse_18" data-name="Elipse 18" cx="75.531" cy="75.531" r="75.531" transform="translate(3.553)" fill="#7371fc"/>
      <g id="Grupo_571" data-name="Grupo 571" transform="translate(10.171 6.617)">
        <path id="Caminho_609" data-name="Caminho 609" d="M632.652,247.762c13.63-5.5,26-14.646,34.026-26.959,9.321-14.3,12.134-31.645,11.318-48.9a68.921,68.921,0,0,0-116.724,73.171C583.39,255.535,609.9,256.94,632.652,247.762Z" transform="translate(-551.961 -141.556)" fill="#fff"/>
        <path id="Caminho_610" data-name="Caminho 610" d="M687.576,203.133c.816,17.252-2,34.6-11.318,48.9-8.025,12.313-20.4,21.46-34.026,26.959-22.751,9.178-49.262,7.773-71.38-2.684a68.92,68.92,0,1,0,116.724-73.171Z" transform="translate(-561.541 -172.782)" fill="#eef"/>
      </g>
      <path id="Caminho_611" data-name="Caminho 611" d="M656.893,253.442l-32.422-28.9L658.4,251.661Z" transform="translate(-578.561 -177.021)" fill="#32338c"/>
      <path id="Caminho_612" data-name="Caminho 612" d="M691.738,279.713,706.7,334.641l-17.545-53.293Z" transform="translate(-611.363 -205)" fill="#32338c"/>
      <circle id="Elipse_19" data-name="Elipse 19" cx="5.106" cy="5.106" r="5.106" transform="translate(73.978 70.425)" fill="#fe814b"/>
      <g id="Grupo_572" data-name="Grupo 572" transform="translate(10.171 6.617)">
        <line id="Linha_41" data-name="Linha 41" y2="14.649" transform="translate(68.913)" fill="none" stroke="#32338c" stroke-linecap="round" stroke-linejoin="round" stroke-width="3.883"/>
        <line id="Linha_42" data-name="Linha 42" y2="14.649" transform="translate(68.913 123.177)" fill="none" stroke="#32338c" stroke-linecap="round" stroke-linejoin="round" stroke-width="3.883"/>
        <line id="Linha_43" data-name="Linha 43" x1="14.649" transform="translate(123.177 68.913)" fill="none" stroke="#32338c" stroke-linecap="round" stroke-linejoin="round" stroke-width="3.883"/>
        <line id="Linha_44" data-name="Linha 44" x1="14.649" transform="translate(0 68.913)" fill="none" stroke="#32338c" stroke-linecap="round" stroke-linejoin="round" stroke-width="3.883"/>
      </g>
      <g id="Grupo_573" data-name="Grupo 573" transform="translate(20.916 17.362)">
        <line id="Linha_45" data-name="Linha 45" x2="12.365" y2="7.855" transform="translate(0 21.216)" fill="none" stroke="#32338c" stroke-linecap="round" stroke-linejoin="round" stroke-width="3.883"/>
        <line id="Linha_46" data-name="Linha 46" x2="12.365" y2="7.855" transform="translate(103.971 87.266)" fill="none" stroke="#32338c" stroke-linecap="round" stroke-linejoin="round" stroke-width="3.883"/>
        <line id="Linha_47" data-name="Linha 47" x1="7.855" y2="12.365" transform="translate(87.266)" fill="none" stroke="#32338c" stroke-linecap="round" stroke-linejoin="round" stroke-width="3.883"/>
        <line id="Linha_48" data-name="Linha 48" x1="7.855" y2="12.365" transform="translate(21.216 103.971)" fill="none" stroke="#32338c" stroke-linecap="round" stroke-linejoin="round" stroke-width="3.883"/>
      </g>
      <g id="Grupo_574" data-name="Grupo 574" transform="translate(20.916 17.362)">
        <line id="Linha_49" data-name="Linha 49" x1="12.365" y2="7.855" transform="translate(103.971 21.216)" fill="none" stroke="#32338c" stroke-linecap="round" stroke-linejoin="round" stroke-width="3.883"/>
        <line id="Linha_50" data-name="Linha 50" x1="12.365" y2="7.855" transform="translate(0 87.266)" fill="none" stroke="#32338c" stroke-linecap="round" stroke-linejoin="round" stroke-width="3.883"/>
        <line id="Linha_51" data-name="Linha 51" x2="7.855" y2="12.365" transform="translate(21.216)" fill="none" stroke="#32338c" stroke-linecap="round" stroke-linejoin="round" stroke-width="3.883"/>
        <line id="Linha_52" data-name="Linha 52" x2="7.855" y2="12.365" transform="translate(87.266 103.971)" fill="none" stroke="#32338c" stroke-linecap="round" stroke-linejoin="round" stroke-width="3.883"/>
      </g>
    </g>
    <g id="Grupo_576" data-name="Grupo 576" transform="translate(474.42 201.726)">
      <rect id="Retângulo_113" data-name="Retângulo 113" width="71.125" height="39.092" transform="translate(0 25.204) rotate(-20.755)" fill="#f8ab74"/>
      <path id="Caminho_613" data-name="Caminho 613" d="M519.75,389.392l-40.181-5.675,41.818,9.994,24.692-35.2Z" transform="translate(-479.569 -358.513)" fill="#fe814b"/>
    </g>
    <g id="Grupo_586" data-name="Grupo 586" transform="translate(594.668 174.584)">
      <g id="Grupo_583" data-name="Grupo 583" transform="translate(0 0)">
        <rect id="Retângulo_114" data-name="Retângulo 114" width="63.708" height="82.178" transform="translate(18.879 4.368) rotate(13.282)" fill="#32338c"/>
        <rect id="Retângulo_115" data-name="Retângulo 115" width="63.708" height="82.178" transform="translate(20.03 4.639) rotate(13.282)" fill="#91c4fb"/>
        <rect id="Retângulo_116" data-name="Retângulo 116" width="53.275" height="69.443" transform="translate(23.282 13.569) rotate(13.282)" fill="#fff"/>
        <path id="Retângulo_117" data-name="Retângulo 117" d="M8.726,0H21.44a8.726,8.726,0,0,1,8.726,8.726v0a0,0,0,0,1,0,0H0a0,0,0,0,1,0,0v0A8.726,8.726,0,0,1,8.726,0Z" transform="matrix(0.973, 0.23, -0.23, 0.973, 38.357, 0)" fill="#32338c"/>
        <g id="Grupo_578" data-name="Grupo 578" transform="translate(24.547 19.737)">
          <circle id="Elipse_20" data-name="Elipse 20" cx="5.122" cy="5.122" r="5.122" transform="translate(0 2.119) rotate(-11.937)" fill="#eeeefe"/>
          <path id="Caminho_614" data-name="Caminho 614" d="M780.8,351.052l2.14,3.463,6.156-3.8" transform="translate(-777.122 -347.152)" fill="none" stroke="#fe814b" stroke-linecap="round" stroke-linejoin="round" stroke-width="3.198"/>
          <g id="Grupo_577" data-name="Grupo 577" transform="translate(14.579 5.136)">
            <line id="Linha_53" data-name="Linha 53" x2="28.22" y2="6.661" transform="translate(1.471)" fill="none" stroke="#91c4fb" stroke-linecap="round" stroke-linejoin="round" stroke-width="3.198"/>
            <line id="Linha_54" data-name="Linha 54" x2="28.22" y2="6.661" transform="translate(0.736 3.117)" fill="none" stroke="#91c4fb" stroke-linecap="round" stroke-linejoin="round" stroke-width="3.198"/>
            <line id="Linha_55" data-name="Linha 55" x2="28.22" y2="6.661" transform="translate(0 6.233)" fill="none" stroke="#91c4fb" stroke-linecap="round" stroke-linejoin="round" stroke-width="3.198"/>
          </g>
        </g>
        <g id="Grupo_580" data-name="Grupo 580" transform="translate(21.749 36.555)">
          <path id="Caminho_615" data-name="Caminho 615" d="M777.766,383.912a5.122,5.122,0,1,1-3.808-6.161A5.121,5.121,0,0,1,777.766,383.912Z" transform="translate(-767.658 -377.612)" fill="#eeeefe"/>
          <path id="Caminho_616" data-name="Caminho 616" d="M773.2,383.251l2.14,3.463,6.156-3.8" transform="translate(-770.469 -380.299)" fill="none" stroke="#fe814b" stroke-linecap="round" stroke-linejoin="round" stroke-width="3.198"/>
          <g id="Grupo_579" data-name="Grupo 579" transform="translate(13.632 4.189)">
            <line id="Linha_56" data-name="Linha 56" x2="28.22" y2="6.661" transform="translate(1.471)" fill="none" stroke="#91c4fb" stroke-linecap="round" stroke-linejoin="round" stroke-width="3.198"/>
            <line id="Linha_57" data-name="Linha 57" x2="28.22" y2="6.661" transform="translate(0.736 3.116)" fill="none" stroke="#91c4fb" stroke-linecap="round" stroke-linejoin="round" stroke-width="3.198"/>
            <line id="Linha_58" data-name="Linha 58" x2="28.22" y2="6.661" transform="translate(0 6.233)" fill="none" stroke="#91c4fb" stroke-linecap="round" stroke-linejoin="round" stroke-width="3.198"/>
          </g>
        </g>
        <g id="Grupo_582" data-name="Grupo 582" transform="translate(16.299 50.722)">
          <circle id="Elipse_21" data-name="Elipse 21" cx="5.122" cy="5.122" r="5.122" transform="matrix(0.43, -0.903, 0.903, 0.43, 0, 9.248)" fill="#eeeefe"/>
          <path id="Caminho_617" data-name="Caminho 617" d="M765.6,415.45l2.14,3.463,6.156-3.8" transform="translate(-761.165 -410.794)" fill="none" stroke="#fe814b" stroke-linecap="round" stroke-linejoin="round" stroke-width="3.198"/>
          <g id="Grupo_581" data-name="Grupo 581" transform="translate(15.335 5.892)">
            <line id="Linha_59" data-name="Linha 59" x2="28.22" y2="6.661" transform="translate(1.471)" fill="none" stroke="#91c4fb" stroke-linecap="round" stroke-linejoin="round" stroke-width="3.198"/>
            <line id="Linha_60" data-name="Linha 60" x2="28.22" y2="6.661" transform="translate(0.736 3.116)" fill="none" stroke="#91c4fb" stroke-linecap="round" stroke-linejoin="round" stroke-width="3.198"/>
            <line id="Linha_61" data-name="Linha 61" x2="28.22" y2="6.661" transform="translate(0 6.233)" fill="none" stroke="#91c4fb" stroke-linecap="round" stroke-linejoin="round" stroke-width="3.198"/>
          </g>
        </g>
        <path id="Retângulo_118" data-name="Retângulo 118" d="M0,0H43.771a0,0,0,0,1,0,0V.241a4.55,4.55,0,0,1-4.55,4.55H4.55A4.55,4.55,0,0,1,0,.241V0A0,0,0,0,1,0,0Z" transform="translate(29.732 6.929) rotate(13.282)" fill="#91c4fb" style="mix-blend-mode: multiply;isolation: isolate"/>
      </g>
      <g id="Grupo_585" data-name="Grupo 585" transform="translate(12.429 66.381)">
        <circle id="Elipse_22" data-name="Elipse 22" cx="5.122" cy="5.122" r="5.122" transform="matrix(0.845, -0.534, 0.534, 0.845, 0, 5.472)" fill="#eeeefe"/>
        <path id="Caminho_618" data-name="Caminho 618" d="M758.234,447.7l2.14,3.463,6.156-3.8" transform="translate(-753.559 -442.809)" fill="none" stroke="#fe814b" stroke-linecap="round" stroke-linejoin="round" stroke-width="3.198"/>
        <g id="Grupo_584" data-name="Grupo 584" transform="translate(15.575 6.131)">
          <line id="Linha_62" data-name="Linha 62" x2="28.22" y2="6.661" transform="translate(1.471)" fill="none" stroke="#91c4fb" stroke-linecap="round" stroke-linejoin="round" stroke-width="3.198"/>
          <line id="Linha_63" data-name="Linha 63" x2="28.22" y2="6.661" transform="translate(0.736 3.117)" fill="none" stroke="#91c4fb" stroke-linecap="round" stroke-linejoin="round" stroke-width="3.198"/>
          <line id="Linha_64" data-name="Linha 64" x2="28.22" y2="6.661" transform="translate(0 6.233)" fill="none" stroke="#91c4fb" stroke-linecap="round" stroke-linejoin="round" stroke-width="3.198"/>
        </g>
      </g>
    </g>
    <g id="Grupo_590" data-name="Grupo 590" transform="translate(592.368 86.786)">
      <line id="Linha_65" data-name="Linha 65" x1="5.186" y2="9.126" transform="translate(60.913 34.225)" fill="none" stroke="#fff" stroke-miterlimit="10" stroke-width="1.118"/>
      <g id="Grupo_589" data-name="Grupo 589" transform="translate(0)">
        <path id="Caminho_619" data-name="Caminho 619" d="M807.11,224.04a148.125,148.125,0,0,1-9.9,13.62c-4.923,5.814-11.866,12.335-11.866,12.335l-37.132-15.555,5.451-12.719,27.186,8.4,15.663-22.169Z" transform="translate(-733.749 -167.223)" fill="#32338c"/>
        <g id="Grupo_587" data-name="Grupo 587" transform="translate(0 40.066)">
          <path id="Caminho_620" data-name="Caminho 620" d="M732.927,224.37l5.855,2.461-3.84,8.959-3.806-1.3-8.4.344L720.27,233.6a1.776,1.776,0,0,1-.754-2.457l.673-1.2-.6-.465a1.775,1.775,0,0,1-.142-2.675l.668-.647-.906-1.228a1.775,1.775,0,0,1,.6-2.626l.923-.484-.3-1.63a1.775,1.775,0,0,1,1.325-2.045h0a4.172,4.172,0,0,1,3.425.665Z" transform="translate(-718.866 -212.399)" fill="#f8ab72"/>
          <path id="Caminho_621" data-name="Caminho 621" d="M739.951,219.178c-1.781-3.814-3.592-7.733-3.916-11.931a.716.716,0,0,0-.211-.557.6.6,0,0,0-.342-.083,2.5,2.5,0,0,0-2.239,1.642,3.717,3.717,0,0,0,.2,2.868,1.364,1.364,0,0,1,.191.615,1.2,1.2,0,0,1-.2.521l-.93,1.635A17.1,17.1,0,0,0,739.951,219.178Z" transform="translate(-725.786 -206.607)" fill="#f8ab72"/>
          <line id="Linha_66" data-name="Linha 66" x1="3.804" y1="3.163" transform="translate(6.96 6.87)" fill="none" stroke="#32338c" stroke-miterlimit="10" stroke-width="0.559"/>
        </g>
        <g id="Grupo_588" data-name="Grupo 588" transform="translate(6.241)">
          <path id="Caminho_622" data-name="Caminho 622" d="M734.122,125.319l8.986,3.469a2.78,2.78,0,0,1,1.765,2.868l-.454,4.573-3.109,5.1a1.3,1.3,0,0,1-.816-1.784c.459-1.427,1.988-5.251,1.988-5.251v-2.7s-1.473,6.235-2.88,7.391-6.495-1.1-7.871-2.224c-.671-.547.522-2.311.684-4.943C732.586,129.049,731.8,125.423,734.122,125.319Z" transform="translate(-731.528 -125.319)" fill="#f8ab74"/>
          <path id="Caminho_623" data-name="Caminho 623" d="M745.141,129.558a17.641,17.641,0,0,1-3.218,11.814" transform="translate(-736.799 -127.469)" fill="none" stroke="#32338c" stroke-miterlimit="10" stroke-width="0.559"/>
          <path id="Caminho_624" data-name="Caminho 624" d="M738.4,127.153a22.082,22.082,0,0,1-2.388,10.873,1.322,1.322,0,0,1-.636.712" transform="translate(-733.481 -126.249)" fill="none" stroke="#32338c" stroke-miterlimit="10" stroke-width="0.559"/>
        </g>
      </g>
    </g>
  </g>
</svg>
