<svg xmlns="http://www.w3.org/2000/svg" xmlns:xlink="http://www.w3.org/1999/xlink" width="362.394" height="201.903" viewBox="0 0 362.394 201.903">
  <defs>
    <clipPath id="clip-path">
      <circle id="Elipse_13" data-name="Elipse 13" cx="68.429" cy="68.429" r="68.429" fill="none"/>
    </clipPath>
    <clipPath id="clip-path-2">
      <circle id="Elipse_15" data-name="Elipse 15" cx="53.907" cy="53.907" r="53.907" fill="none"/>
    </clipPath>
  </defs>
  <g id="Grupo_635" data-name="Grupo 635" transform="translate(-33.724 -447.113)">
    <g id="Grupo_532" data-name="Grupo 532" transform="translate(33.724 546.063)">
      <path id="Caminho_519" data-name="Caminho 519" d="M94.4,694.755c-.8-4.524-13.429-32.721-28.05-25.17-8.684,4.486-7.123,21,6.442,33.478-2.662-2.575-5.737-5.495-9.37-6.216a7.241,7.241,0,0,0-5.835,1.871,6.846,6.846,0,0,0-1.753,4.894,19.268,19.268,0,0,0,8.582,16.481c-3-1.676-5.6-3.775-9.024-4.07-1.113-.1-3,.542-3.514,1.533-.56,1.079-.521,5.121,6.083,8.14-26.921-5.105-28.492,6.37-18.815,6.37h79.367" transform="translate(-33.724 -629.658)" fill="#627fed"/>
      <path id="Caminho_520" data-name="Caminho 520" d="M157.53,648.883c-1.278-7.242-14.616-52.763-38.022-40.675-13.9,7.181-11.4,33.622,10.313,53.6-4.262-4.123-9.184-8.8-15-9.952-3.142-.623-6.987.823-9.341,3-2.095,1.933-2.71,4.987-2.807,7.836a30.845,30.845,0,0,0,13.739,26.384c-4.8-2.684-8.965-6.044-14.447-6.515-1.781-.153-4.8.867-5.625,2.454-.9,1.727-.834,8.2,9.739,13.032-43.1-8.174-45.613,10.2-30.121,10.2H178.344" transform="translate(-46.404 -606.177)" fill="#7a90f9"/>
      <path id="Caminho_521" data-name="Caminho 521" d="M475.211,675.35c1-5.688,16.886-41.144,35.27-31.649,10.92,5.64,8.957,26.407-8.1,42.1,3.348-3.238,7.214-6.91,11.782-7.817a9.1,9.1,0,0,1,7.337,2.353c1.645,1.518,2.129,3.917,2.2,6.154a24.228,24.228,0,0,1-10.791,20.723c3.772-2.108,7.041-4.748,11.347-5.117,1.4-.12,3.771.681,4.418,1.927.7,1.356.656,6.439-7.65,10.236,33.852-6.42,35.827,8.01,23.659,8.01h-99.8" transform="translate(-189.111 -619.751)" fill="#7a90f9"/>
    </g>
    <g id="Grupo_537" data-name="Grupo 537" transform="translate(37.357 465.051)">
      <g id="Grupo_536" data-name="Grupo 536" transform="translate(0 3.658)">
        <g id="Grupo_534" data-name="Grupo 534" transform="translate(0 70.446)">
          <path id="Caminho_522" data-name="Caminho 522" d="M74.978,727.065s-3.4,3.93-6.948,5.136c0,0,2.95,6.74,8.454,3,0,0-1.8-1.823,5.081-5.25S74.978,727.065,74.978,727.065Z" transform="translate(-50.323 -644.942)" fill="#c46019"/>
          <path id="Caminho_523" data-name="Caminho 523" d="M39.565,738.132s.148-1.685.686-2.046,11.913.035,14.284-1.863,2.608-3.3,3.165-3.134,3.258,1.56,3.606,2.439-1.039,3.843,4.421,3.2c0,0,2.029,3.1-.581,8.471C65.146,745.195,39.635,737.893,39.565,738.132Z" transform="translate(-39.565 -646.47)" fill="#1f323a"/>
          <path id="Caminho_524" data-name="Caminho 524" d="M44.753,741.311l17.836,4.919a15.254,15.254,0,0,1,3.66,1.355" transform="translate(-41.526 -650.338)" fill="none" stroke="#fd3365" stroke-miterlimit="10" stroke-width="2.143"/>
          <g id="Grupo_533" data-name="Grupo 533" transform="translate(84.151 89.641)">
            <path id="Caminho_525" data-name="Caminho 525" d="M185.395,742.885q-.08,1.579-.063,3.16a5.439,5.439,0,0,0,.769,3c.77,1.29,1.149,1.074-.154,2.244-2,1.8-7.915,2.547-7.759-1.387l.368-9.248a1.886,1.886,0,0,1,.289-1.128c.983-1.228,5.468,1.112,6.679,1.5Q185.442,741.954,185.395,742.885Z" transform="translate(-176.104 -739.171)" fill="#c66017"/>
            <path id="Caminho_526" data-name="Caminho 526" d="M201.609,764.429s.319-1.661-.1-2.155-11.47-3.223-13.232-5.7-1.607-3.884-2.188-3.879-3.561.61-4.135,1.361-.05,3.981-5.126,1.866c0,0-2.8,2.427-1.756,8.307C175.072,764.232,201.607,764.18,201.609,764.429Z" transform="translate(-174.84 -744.283)" fill="#1f323a"/>
            <path id="Caminho_527" data-name="Caminho 527" d="M199.581,768.984l-18.5-.143a15.306,15.306,0,0,0-3.891.3" transform="translate(-175.727 -750.383)" fill="none" stroke="#fd3365" stroke-miterlimit="10" stroke-width="2.143"/>
          </g>
          <path id="Caminho_528" data-name="Caminho 528" d="M80.624,722.222a28.134,28.134,0,0,0,8.455,2.731" transform="translate(-55.082 -643.124)" fill="none" stroke="#fdfbf2" stroke-miterlimit="10" stroke-width="2.143"/>
          <path id="Caminho_529" data-name="Caminho 529" d="M156.32,598.748s-3.864,47.326-4.435,62.952-1.089,28.771-1.089,28.771l-12.977-2.486s-1.112-1.033-.607-6.778-9.122,9.575-3.622-45.121l.411-8.841c-31.477,51.119-38.8,44.731-41.474,49.84s-4.169,5.378-4.169,5.378l-12.616-4.4s7.008-11.853,14.96-25.315,35.09-57.672,35.09-57.672" transform="translate(-53.237 -595.071)" fill="#1f323a"/>
          <path id="Caminho_530" data-name="Caminho 530" d="M186.575,734.453a28.12,28.12,0,0,1-8.592-2.264" transform="translate(-91.876 -646.891)" fill="none" stroke="#7966ff" stroke-linecap="round" stroke-miterlimit="10" stroke-width="2"/>
          <path id="Caminho_531" data-name="Caminho 531" d="M92.962,723.417a28.151,28.151,0,0,1-8.407-2.877" transform="translate(-56.568 -642.488)" fill="none" stroke="#7966ff" stroke-linecap="round" stroke-miterlimit="10" stroke-width="2"/>
          <path id="Caminho_532" data-name="Caminho 532" d="M157.026,604.146c-.481,1.482-2.376,4.551-3.662,5.432a8.135,8.135,0,0,1-4.751,1.456" transform="translate(-80.777 -598.501)" fill="none" stroke="#7966ff" stroke-linecap="round" stroke-miterlimit="10" stroke-width="2"/>
          <path id="Caminho_533" data-name="Caminho 533" d="M194,618.5a13.182,13.182,0,0,0,5.547,10.371" transform="translate(-97.931 -603.927)" fill="none" stroke="#7966ff" stroke-linecap="round" stroke-miterlimit="10" stroke-width="2"/>
        </g>
        <g id="Grupo_535" data-name="Grupo 535" transform="translate(54.118)">
          <path id="Caminho_534" data-name="Caminho 534" d="M140.341,544.264l-13.781.057s1.751-12.554,4.8-16.111,25.144-11.089,26.771-11.191,6.3.2,9.862.3,8.384,53.285,8.384,53.285-2.505-.853-12.442-.156a40.015,40.015,0,0,1-19.588-3.943Z" transform="translate(-126.56 -495.12)" fill="#ffa539"/>
          <path id="Caminho_535" data-name="Caminho 535" d="M202.339,497.2a16.826,16.826,0,0,1-1.214-4.123,3.472,3.472,0,0,1,.044-1.278,1.013,1.013,0,0,1,.293-.529.9.9,0,0,1,1.006-.023,2.631,2.631,0,0,1,.747.758,31.171,31.171,0,0,1,1.956,2.9l.82,2.653-3.443.558Z" transform="translate(-154.725 -485.335)" fill="#913d05"/>
          <path id="Caminho_536" data-name="Caminho 536" d="M158.361,487.677c.877,5.485-2.957,14.542-8.264,14.542a9.841,9.841,0,0,1-9.609-10.058c0-5.555,4.391-9.088,9.609-10.058C154.939,481.2,157.513,482.374,158.361,487.677Z" transform="translate(-131.824 -481.829)" fill="#171f39"/>
          <path id="Caminho_537" data-name="Caminho 537" d="M160.137,491.23s1.794,9.353.833,11.275a3.345,3.345,0,0,1-2.947,1.858l1.089,5.7s2.563,2.243.384,3.908-9.481-.513-9.481-.513l-.833-11.146s-4.356-.256-3.971-3.844,4.1-1.6,4.1-1.6a6.858,6.858,0,0,0,1.41-4.8s3.075,1.473,3.908-.7C154.627,491.358,157.638,493.28,160.137,491.23Z" transform="translate(-133.599 -485.382)" fill="#c46019"/>
          <path id="Caminho_538" data-name="Caminho 538" d="M164.4,511.924a10.369,10.369,0,0,1-2.335-.686s1.373,2.026,2.648,2.32Z" transform="translate(-139.979 -492.943)" fill="#913d05"/>
        </g>
      </g>
      <path id="Caminho_539" data-name="Caminho 539" d="M153.677,485.422c2.192.654,4.675,1.246,6.187-.47a5.6,5.6,0,0,0,1.146-2.745,8.85,8.85,0,0,0-.876-6.259,3.4,3.4,0,0,1-4.113,2.722,15.276,15.276,0,0,1-1.5-.621,7.412,7.412,0,0,0-7.193,1.461,16.54,16.54,0,0,0-4.349,6.264" transform="translate(-78.648 -475.948)" fill="#171f39"/>
    </g>
    <g id="Grupo_540" data-name="Grupo 540" transform="translate(106.62 447.113)">
      <path id="Caminho_540" data-name="Caminho 540" d="M188.277,496.008l138.592-2.329a2.928,2.928,0,0,1,2.981,2.908c.118,19.3.786,126.812,1.124,137.673.373,11.937,3.782,27.559-14.007,30.045-16.173,2.26-112.383-6.327-129.723-7.905a2.929,2.929,0,0,1-2.663-2.935l.814-154.54A2.932,2.932,0,0,1,188.277,496.008Z" transform="translate(-163.633 -464.711)" fill="#fefefe"/>
      <path id="Caminho_541" data-name="Caminho 541" d="M150.908,749.144s-.371,11.279,9.92,12.765,147.439-.053,147.439-.053-11.82-2.544-15-14.311Z" transform="translate(-150.906 -560.652)" fill="#1f323a"/>
      <g id="Grupo_538" data-name="Grupo 538" transform="translate(36.777 58.375)">
        <circle id="Elipse_10" data-name="Elipse 10" cx="9.812" cy="9.812" r="9.812" transform="translate(0.54 1.703)" fill="#d8e0f7"/>
        <line id="Linha_37" data-name="Linha 37" x2="83.622" transform="translate(27.194 5.068)" fill="none" stroke="#d8e0f7" stroke-linecap="round" stroke-miterlimit="10" stroke-width="2"/>
        <line id="Linha_38" data-name="Linha 38" x2="54.424" transform="translate(27.194 10.617)" fill="none" stroke="#d8e0f7" stroke-linecap="round" stroke-miterlimit="10" stroke-width="2"/>
        <path id="Caminho_542" data-name="Caminho 542" d="M210.025,549.547l8.6,5.928,13.93-14.523" transform="translate(-210.025 -540.952)" fill="none" stroke="#7966ff" stroke-linecap="round" stroke-miterlimit="10" stroke-width="5"/>
      </g>
      <rect id="Retângulo_82" data-name="Retângulo 82" width="21.797" height="21.797" rx="5.505" transform="translate(36.695 87.747)" fill="#d8e0f7"/>
      <rect id="Retângulo_83" data-name="Retângulo 83" width="21.797" height="21.797" rx="5.505" transform="translate(74.94 87.747)" fill="none" stroke="#d8e0f7" stroke-linecap="round" stroke-miterlimit="10" stroke-width="1"/>
      <rect id="Retângulo_84" data-name="Retângulo 84" width="21.797" height="21.797" rx="5.505" transform="translate(36.695 122.163)" fill="#d8e0f7"/>
      <rect id="Retângulo_85" data-name="Retângulo 85" width="21.797" height="21.797" rx="5.505" transform="translate(74.94 122.163)" fill="none" stroke="#d8e0f7" stroke-linecap="round" stroke-miterlimit="10" stroke-width="1"/>
      <rect id="Retângulo_86" data-name="Retângulo 86" width="21.797" height="21.797" rx="5.505" transform="translate(36.695 156.58)" fill="#d8e0f7"/>
      <rect id="Retângulo_87" data-name="Retângulo 87" width="21.797" height="21.797" rx="5.505" transform="translate(74.94 156.58)" fill="none" stroke="#d8e0f7" stroke-linecap="round" stroke-miterlimit="10" stroke-width="1"/>
      <g id="Grupo_539" data-name="Grupo 539" transform="translate(63.453 0)">
        <path id="Retângulo_88" data-name="Retângulo 88" d="M7.847,0H48.731a7.847,7.847,0,0,1,7.847,7.847V21.71a0,0,0,0,1,0,0H0a0,0,0,0,1,0,0V7.847A7.847,7.847,0,0,1,7.847,0Z" transform="translate(0 14.904) rotate(-1.124)" fill="#ffa539"/>
        <circle id="Elipse_11" data-name="Elipse 11" cx="12.171" cy="12.171" r="12.171" transform="translate(14.106 23.939) rotate(-79.568)" fill="#ffa539"/>
        <path id="Caminho_543" data-name="Caminho 543" d="M278.806,467.638c0,.044.008.085.009.129l24.324-.477c0-.044,0-.085,0-.129a12.123,12.123,0,0,0-.721-3.872l-23.047.452A12.136,12.136,0,0,0,278.806,467.638Z" transform="translate(-262.694 -453.226)" fill="#d87512"/>
      </g>
    </g>
    <g id="Grupo_551" data-name="Grupo 551" transform="translate(198.687 511.616)">
      <g id="Grupo_541" data-name="Grupo 541" transform="translate(31.478 126.14)">
        <path id="Caminho_544" data-name="Caminho 544" d="M463.747,761.074l-7.5-7.5" transform="translate(-389.845 -753.574)" fill="none" stroke="#ffa539" stroke-miterlimit="10" stroke-width="2"/>
        <path id="Caminho_545" data-name="Caminho 545" d="M349.5,761.314l7.1-7.1" transform="translate(-349.505 -753.814)" fill="none" stroke="#ffa539" stroke-miterlimit="10" stroke-width="2"/>
      </g>
      <g id="Grupo_550" data-name="Grupo 550">
        <circle id="Elipse_12" data-name="Elipse 12" cx="68.429" cy="68.429" r="68.429" fill="#ffa539"/>
        <g id="Grupo_543" data-name="Grupo 543">
          <g id="Grupo_542" data-name="Grupo 542" clip-path="url(#clip-path)">
            <path id="Caminho_546" data-name="Caminho 546" d="M414.148,554.844c3.651,2.967,13.767,8.438,17.418,11.405,6.478,5.265,10.778,12.132,15.212,19.205a55.725,55.725,0,0,1,5,10.694c4.643,12.82,6.695,26.907,3.539,40.171a100.019,100.019,0,0,1-5.331,15.185,43.91,43.91,0,0,1-5.046,9.681,45.213,45.213,0,0,1-8.521,7.985c-4.735,3.725-9.523,7.482-14.977,10.042-5.818,2.731-12.2,4.006-18.5,5.239-6.438,1.258-12.957,2.5-19.508,2.169s-16.822-3.42-21.537-7.983" transform="translate(-322.709 -552.33)" fill="none" stroke="#9b702a" stroke-miterlimit="10" stroke-width="0.846" opacity="0.26" style="mix-blend-mode: multiply;isolation: isolate"/>
            <path id="Caminho_547" data-name="Caminho 547" d="M308.083,655.834c-6.88-11.771-9.334-30.123-8.623-43.739a99.964,99.964,0,0,1,2.5-15.9,43.9,43.9,0,0,1,3.216-10.433,45.2,45.2,0,0,1,6.94-9.392c3.985-4.518,8.017-9.078,12.919-12.58,5.23-3.736,10.552-7.732,16.534-10.083,6.106-2.4,13.013-3.207,19.517-4.063" transform="translate(-299.069 -550.366)" fill="none" stroke="#ef920c" stroke-miterlimit="10" stroke-width="0.846" opacity="0.26" style="mix-blend-mode: screen;isolation: isolate"/>
          </g>
        </g>
        <circle id="Elipse_14" data-name="Elipse 14" cx="53.907" cy="53.907" r="53.907" transform="translate(14.522 14.522)" fill="#f6f6f6"/>
        <g id="Grupo_545" data-name="Grupo 545" transform="translate(14.522 14.522)">
          <g id="Grupo_544" data-name="Grupo 544" clip-path="url(#clip-path-2)">
            <line id="Linha_39" data-name="Linha 39" y1="109.589" x2="109.589" transform="translate(-7.323 -23.031)" fill="none" stroke="#fbfbfb" stroke-miterlimit="10" stroke-width="14.809"/>
            <line id="Linha_40" data-name="Linha 40" y1="109.589" x2="109.589" transform="translate(10.622 9.692)" fill="none" stroke="#fbfbfb" stroke-miterlimit="10" stroke-width="74.045"/>
          </g>
        </g>
        <path id="Caminho_548" data-name="Caminho 548" d="M408.9,607.467v32.987" transform="translate(-340.475 -572.217)" fill="none" stroke="#7966ff" stroke-linecap="round" stroke-miterlimit="10" stroke-width="1.851"/>
        <path id="Caminho_549" data-name="Caminho 549" d="M396.487,661.357l-20.32,20.32" transform="translate(-328.103 -592.584)" fill="none" stroke="#7966ff" stroke-linecap="round" stroke-miterlimit="10" stroke-width="1.851"/>
        <g id="Grupo_546" data-name="Grupo 546" transform="translate(33.848 33.847)">
          <path id="Caminho_550" data-name="Caminho 550" d="M462.3,605.213l-3.613,3.614" transform="translate(-393.137 -605.213)" fill="none" stroke="#7966ff" stroke-linecap="round" stroke-miterlimit="10" stroke-width="0.463"/>
          <path id="Caminho_551" data-name="Caminho 551" d="M356.928,710.584l-3.613,3.613" transform="translate(-353.315 -645.035)" fill="none" stroke="#7966ff" stroke-linecap="round" stroke-miterlimit="10" stroke-width="0.463"/>
        </g>
        <g id="Grupo_547" data-name="Grupo 547" transform="translate(33.848 33.847)">
          <path id="Caminho_552" data-name="Caminho 552" d="M462.3,714.2l-3.613-3.613" transform="translate(-393.137 -645.035)" fill="none" stroke="#7966ff" stroke-linecap="round" stroke-miterlimit="10" stroke-width="0.463"/>
          <path id="Caminho_553" data-name="Caminho 553" d="M356.928,608.827l-3.613-3.614" transform="translate(-353.315 -605.213)" fill="none" stroke="#7966ff" stroke-linecap="round" stroke-miterlimit="10" stroke-width="0.463"/>
        </g>
        <g id="Grupo_548" data-name="Grupo 548" transform="translate(68.429 19.524)">
          <path id="Caminho_554" data-name="Caminho 554" d="M408.9,739.418" transform="translate(-408.904 -641.609)" fill="none" stroke="#7966ff" stroke-linecap="round" stroke-miterlimit="10" stroke-width="1.851"/>
          <path id="Caminho_555" data-name="Caminho 555" d="M408.9,582.188" transform="translate(-408.904 -582.188)" fill="none" stroke="#7966ff" stroke-linecap="round" stroke-miterlimit="10" stroke-width="1.851"/>
        </g>
        <g id="Grupo_549" data-name="Grupo 549" transform="translate(19.524 68.429)">
          <path id="Caminho_556" data-name="Caminho 556" d="M330.289,660.8" transform="translate(-330.289 -660.803)" fill="none" stroke="#7966ff" stroke-linecap="round" stroke-miterlimit="10" stroke-width="1.851"/>
          <path id="Caminho_557" data-name="Caminho 557" d="M487.519,660.8" transform="translate(-389.71 -660.803)" fill="none" stroke="#7966ff" stroke-linecap="round" stroke-miterlimit="10" stroke-width="1.851"/>
        </g>
        <circle id="Elipse_16" data-name="Elipse 16" cx="7.383" cy="7.383" r="7.383" transform="translate(61.046 61.046)" fill="#193f87"/>
      </g>
    </g>
    <g id="Grupo_552" data-name="Grupo 552" transform="translate(91.657 474.417)">
      <path id="Caminho_558" data-name="Caminho 558" d="M194.519,565.409l3.265,1.967-.931-3.835Z" transform="translate(-152.425 -518.418)" fill="#1f323a"/>
      <path id="Caminho_559" data-name="Caminho 559" d="M178.629,539.277l9.885,16.275s2.218-.117,2.335-1.868l-9.63-16.226Z" transform="translate(-146.42 -508.56)" fill="#596fef"/>
      <path id="Caminho_560" data-name="Caminho 560" d="M178.869,536.69a1.577,1.577,0,0,0-.408,2.192l2.6-1.784A1.577,1.577,0,0,0,178.869,536.69Z" transform="translate(-146.252 -508.166)" fill="#fd3365"/>
      <path id="Caminho_561" data-name="Caminho 561" d="M127.845,555.656s-2.235,14.733,0,18.292,6.71,3.66,14.843-4.575,10.673-13.31,12.4-13.005,4.575,3.457,9.556.508c0,0-1.118,1.729-.61,2.44s5.184-1.119,6.1-4.067-1.525-6.811-3.964-7.523a22.836,22.836,0,0,0-11.082.2c-3.66,1.119-14.639,7.726-14.639,7.726Z" transform="translate(-126.852 -512.22)" fill="#c46019"/>
      <path id="Caminho_562" data-name="Caminho 562" d="M143.582,561.068a28.162,28.162,0,0,0-8.093,9.62" transform="translate(-130.116 -517.483)" fill="none" stroke="#913d05" stroke-miterlimit="10" stroke-width="0.841"/>
      <path id="Caminho_563" data-name="Caminho 563" d="M187.4,561.8a8.761,8.761,0,0,0,1.112-1.205" transform="translate(-149.735 -517.304)" fill="none" stroke="#913d05" stroke-miterlimit="10" stroke-width="0.841"/>
      <path id="Caminho_564" data-name="Caminho 564" d="M191.4,555.639a7.154,7.154,0,0,1,2.206,3.022" transform="translate(-151.246 -515.431)" fill="none" stroke="#913d05" stroke-miterlimit="10" stroke-width="0.841"/>
      <path id="Caminho_565" data-name="Caminho 565" d="M192.95,553.013a8.975,8.975,0,0,1,1.425,2.1" transform="translate(-151.832 -514.439)" fill="none" stroke="#913d05" stroke-miterlimit="10" stroke-width="0.841"/>
      <path id="Caminho_566" data-name="Caminho 566" d="M206.707,492.854a2.445,2.445,0,0,1,1.288-1.469,1.489,1.489,0,0,1,1.788.481,1.345,1.345,0,0,1,.726-.692,2.428,2.428,0,0,1,1.017-.17,2.284,2.284,0,0,1,1.053.245,1.243,1.243,0,0,1,.643.837,1.736,1.736,0,0,1,1.4-.878,2.379,2.379,0,0,1,1.181.045,1.937,1.937,0,0,1,1.132,1.243,1.557,1.557,0,0,1,1.9-.251,2.021,2.021,0,0,1,.877,1.329,5.15,5.15,0,0,1,.022,1.63,11.771,11.771,0,0,1-2.53,6.691,1.876,1.876,0,0,1-.934.654.767.767,0,0,1-.924-.487,1.588,1.588,0,0,1-2.939-.08,2.172,2.172,0,0,1-1.5.96,2.016,2.016,0,0,1-1.6-.628,1.229,1.229,0,0,1-1.509.372,1.921,1.921,0,0,1-1.059-1.214,5.705,5.705,0,0,1-.216-1.645q-.058-1.731-.115-3.463a17.049,17.049,0,0,1,.006-1.844A6.257,6.257,0,0,1,206.707,492.854Z" transform="translate(-156.911 -491.005)" fill="#c46019"/>
      <path id="Caminho_567" data-name="Caminho 567" d="M210.706,504q.352-3.375.8-6.74" transform="translate(-158.542 -493.367)" fill="none" stroke="#913d05" stroke-miterlimit="10" stroke-width="0.8"/>
      <path id="Caminho_568" data-name="Caminho 568" d="M215.727,504.277q.562-3.362,1.329-6.685" transform="translate(-160.44 -493.494)" fill="none" stroke="#913d05" stroke-miterlimit="10" stroke-width="0.8"/>
      <path id="Caminho_569" data-name="Caminho 569" d="M220.54,504.193l1.75-6.543" transform="translate(-162.259 -493.516)" fill="none" stroke="#913d05" stroke-miterlimit="10" stroke-width="0.8"/>
    </g>
  </g>
</svg>
