<svg xmlns="http://www.w3.org/2000/svg" xmlns:xlink="http://www.w3.org/1999/xlink" width="319.195" height="221.813" viewBox="0 0 319.195 221.813">
  <defs>
    <clipPath id="clip-path">
      <path id="Caminho_725" data-name="Caminho 725" d="M362.237,179.34l7.667-7.755-8.055-16.22a18.478,18.478,0,0,0-13.048-9.917c-.348-.068-.7-.123-1.058-.17l-1.425-.191H334.873l-1.617-.437L331,145.687l-4.652,2.142a19.089,19.089,0,0,0-10.989,19.555l2.183,18.716,8.041-4.713-1.071,29.24a2.052,2.052,0,0,0,2.346,2.108l37.282-5.484a1.852,1.852,0,0,0,1.569-2.08Z" transform="translate(-315.23 -144.65)" fill="none"/>
    </clipPath>
  </defs>
  <g id="Grupo_626" data-name="Grupo 626" transform="translate(-124.749 -87.398)">
    <g id="Grupo_625" data-name="Grupo 625" transform="translate(124.749 87.398)">
      <g id="Grupo_596" data-name="Grupo 596" transform="translate(0 6.234)">
        <path id="Caminho_625" data-name="Caminho 625" d="M242.549,397.842l1.408,10.8-3.135,5.4-7.575-2.961-2.366-10.536" transform="translate(-165.083 -202.507)" fill="#f0c9cf"/>
        <path id="Caminho_626" data-name="Caminho 626" d="M260.987,420.957l-16.524-9.571-3.134,4.441H234.1l-.784,6.7h27.247A.844.844,0,0,0,260.987,420.957Z" transform="translate(-165.937 -207.257)" fill="#1f2251"/>
        <path id="Caminho_627" data-name="Caminho 627" d="M157.2,397.842l-2.09,10.8,3.135,5.4,7.575-2.961,3.048-10.536" transform="translate(-138.508 -202.507)" fill="#f0c9cf"/>
        <path id="Caminho_628" data-name="Caminho 628" d="M251.5,223.4l-12.38,16.287a3.626,3.626,0,0,0-.736,1.951l-1.058,14.5-4.44-30.475,6.268-10.49-.628-2.087-2.367-7.858,12.209-4.611.743,2.2,3.874,11.493A9.838,9.838,0,0,1,251.5,223.4Z" transform="translate(-165.785 -133.34)" fill="#f0c9cf"/>
        <path id="Caminho_629" data-name="Caminho 629" d="M250.879,202.816l-10.586,10.272-2.367-7.857,12.209-4.611Z" transform="translate(-167.553 -133.34)" fill="#d683a7"/>
        <path id="Caminho_630" data-name="Caminho 630" d="M217.856,349.4l-14.971,2.435L191.118,301.3,188.2,288.768l-.075-.314L169.04,353.115l-15.006-4.12,13.948-89.843,1.057-6.807,38.019-.566.409,3.71Z" transform="translate(-138.132 -151.282)" fill="#99a3ca"/>
        <path id="Caminho_631" data-name="Caminho 631" d="M215,255.49l-39.485,3.663.566-3.663.491-3.144,38.019-.566.341,3.076Z" transform="translate(-145.666 -151.282)" fill="#7988b8"/>
        <path id="Caminho_632" data-name="Caminho 632" d="M215.239,254.855c-8.253,1.193-33.005.757-38.851.634l.492-3.145,38.019-.566Z" transform="translate(-145.971 -151.282)" fill="#1f2251"/>
        <path id="Caminho_633" data-name="Caminho 633" d="M222.415,182.707l-8.8,5.238-1.132.668-2.653,1.582v.069l-.055,1.132-.4,9.229-.055,1.132-.4,9.229-.048,1.132-.129,2.9s1.569,1.739,1.132,3.219c-.109.362-2.722.641-6.616.832-.368.02-.743.034-1.132.055-2.694.109-5.886.184-9.228.218-.375,0-.751.007-1.132.007-3.069.02-6.234,0-9.228-.055-.382-.007-.757-.02-1.132-.027-3.506-.082-6.725-.211-9.228-.416-.4-.027-.777-.062-1.132-.1-2.509-.238-4.044-.552-4.011-.954a6.354,6.354,0,0,1,1.48-3.485l.007-2.2.007-1.132.034-9.229.007-1.132.034-9.229v-.586l-.935-.545-5.859-3.411-1.132-.662-7.312-4.263.4-.894.512-1.132,4.147-9.236.512-1.125,1.739-3.874.362-.805c.238-.525.491-1.043.771-1.541a21.055,21.055,0,0,1,2.012-3.015c.306-.389.627-.771.962-1.132a21.255,21.255,0,0,1,6.261-4.727c.369-.191.751-.361,1.132-.525a21.291,21.291,0,0,1,5.15-1.48l2.715-.423,1.364-.212,1.132-.177.041-.007,9.187.764,1.132.1,2.783.232,2.347.327c.143.021.293.041.436.069a21.241,21.241,0,0,1,3.663.921c.382.129.757.273,1.132.43a21.265,21.265,0,0,1,7.053,4.713c.362.362.716.743,1.051,1.132.4.457.771.934,1.125,1.426a19.567,19.567,0,0,1,1.132,1.746,20.928,20.928,0,0,1,1.043,2.019l1.821,4.045.512,1.125,4.161,9.236.512,1.132Z" transform="translate(-137.896 -116.157)" fill="#647bf4"/>
        <g id="Grupo_592" data-name="Grupo 592" transform="translate(15.868 35.475)">
          <path id="Caminho_634" data-name="Caminho 634" d="M221.37,179.908h-7.537v-9.236h3.376l-.512-1.125h-2.865v-6.064a19.567,19.567,0,0,0-1.132-1.746v7.81h-9.228v-9.236h8.1c-.334-.389-.689-.771-1.051-1.132h-7.053v-4.713c-.375-.157-.751-.3-1.132-.43v5.142h-9.228v-6.691l-1.132-.1v6.786h-9.228v-7.543l-1.132.177v7.366H172.39v-5.251c-.382.164-.764.334-1.132.525v4.727H165c-.334.362-.655.743-.962,1.132h7.223v9.236h-9.235v-6.221c-.28.5-.532,1.017-.771,1.541l-.362.805v3.874h-1.739l-.512,1.125h2.251v9.236h-6.4l-.512,1.132h6.91V186.2l1.132.662V181.04h9.235v9.229h-3.376l.935.545v.586h2.441v9.229h-2.476l-.006,1.132h2.482v9.229h-2.517l-.007,1.132h2.524v6.636c.355.034.737.069,1.132.1v-6.733h9.228v7.148c.375.007.751.021,1.132.027v-7.175h9.228v7.231c.382,0,.757-.007,1.132-.007v-7.223h9.228v7.005c.389-.021.764-.034,1.132-.055v-6.951h5.613l.048-1.132h-5.661v-9.229h6.064l.055-1.132h-6.118V191.4h6.521l.055-1.132h-6.575V181.04H212.7v7.578l1.132-.668v-6.91h8.049Zm-50.112,0h-9.235v-9.236h9.235Zm10.361,31.082H172.39v-9.229h9.228Zm0-10.361H172.39V191.4h9.228Zm0-10.361H172.39V181.04h9.228Zm0-10.361H172.39v-9.236h9.228Zm0-10.361H172.39v-9.236h9.228Zm10.361,41.443h-9.228v-9.229h9.228Zm0-10.361h-9.228V191.4h9.228Zm0-10.361h-9.228V181.04h9.228Zm0-10.361h-9.228v-9.236h9.228Zm0-10.361h-9.228v-9.236h9.228ZM202.34,210.99h-9.228v-9.229h9.228Zm0-10.361h-9.228V191.4h9.228Zm0-10.361h-9.228V181.04h9.228Zm0-10.361h-9.228v-9.236h9.228Zm0-10.361h-9.228v-9.236h9.228ZM212.7,179.908h-9.228v-9.236H212.7Z" transform="translate(-153.981 -151.636)" fill="#fff" opacity="0.25" style="mix-blend-mode: overlay;isolation: isolate"/>
        </g>
        <path id="Caminho_635" data-name="Caminho 635" d="M212.869,153.113c-.88,3.717-2.96,7.345-7.741,7.3a10.6,10.6,0,0,1-10.682-8.4l2.537-.4,13.1,1.091,2.347.327C212.576,153.064,212.725,153.085,212.869,153.113Z" transform="translate(-152.305 -116.157)" fill="#fff"/>
        <line id="Linha_67" data-name="Linha 67" x1="0.995" y1="15.054" transform="translate(69.379 56.835)" fill="none" stroke="#1f2251" stroke-linecap="round" stroke-linejoin="round" stroke-width="0.525"/>
        <path id="Caminho_636" data-name="Caminho 636" d="M215.315,108.636s1.624,1.774.348,4.85a24.039,24.039,0,0,0-2.032,8.595c-.1,2.4-10.545,3.813-14.132,4.222-.744.089-1.194.13-1.194.13l-2.844-5.586c-.375-.989-1.282-2.858-2.074-5.02-1.3-3.506-2.291-7.775-.245-10.292,3.308-4.065,6.992-2.265,12.639-5.048s8.491-5.381,11.738-1.569S215.315,108.636,215.315,108.636Z" transform="translate(-151.436 -96.999)" fill="#1f2251"/>
        <path id="Caminho_637" data-name="Caminho 637" d="M201.218,133.06l-.954,1.207c-.744.089-1.194.13-1.194.13l-2.844-5.586c-.375-.989-1.282-2.858-2.074-5.02a12.241,12.241,0,0,0,4.748-4.078Z" transform="translate(-152.201 -104.965)" fill="#161937"/>
        <path id="Caminho_638" data-name="Caminho 638" d="M211.457,146.439s.266,5.525-5.716,5.307-7.387-6.4-7.387-6.4l1.658-.347a63.12,63.12,0,0,0,0-11.275l11.452,5.832a2.565,2.565,0,0,0-.306.355c-1.33,1.828-1.18,6-1.18,6Z" transform="translate(-153.675 -109.879)" fill="#f0c9cf"/>
        <path id="Caminho_639" data-name="Caminho 639" d="M211.161,147.958c-7.37.218-9.431-8.4-9.431-8.4l10.611,2.4C211.01,143.784,211.161,147.958,211.161,147.958Z" transform="translate(-154.859 -111.924)" fill="#d683a7"/>
        <path id="Caminho_640" data-name="Caminho 640" d="M214.739,128.406a18.438,18.438,0,0,1-.177,3.063c-.6,3.97-2.715,6.78-7.83,6.371-7.551-.607-8.922-8.028-8.922-8.028a2.825,2.825,0,0,1-3.833-.232c-1.882-1.855-.927-4.672.9-4.992.989-.171,1.958.832,2.647,1.793a.526.526,0,0,0,.955-.306v-7.257s9.194.382,14.651-1.624c.034-.014.062-.02.1-.034a4.411,4.411,0,0,1,1.289,3.049c.129,1.637-.164,3.465.014,5.006A30.145,30.145,0,0,1,214.739,128.406Z" transform="translate(-151.781 -104.069)" fill="#f0c9cf"/>
        <path id="Caminho_641" data-name="Caminho 641" d="M218.072,134.262l.725-.427a1.122,1.122,0,0,0,.462-1.412l-1.187-2.748" transform="translate(-160.59 -108.459)" fill="none" stroke="#c85e8b" stroke-linecap="round" stroke-miterlimit="9" stroke-width="0.525"/>
        <path id="Caminho_642" data-name="Caminho 642" d="M213.479,132.33a.532.532,0,1,1-.517-.653A.6.6,0,0,1,213.479,132.33Z" transform="translate(-158.616 -109.161)"/>
        <ellipse id="Elipse_23" data-name="Elipse 23" cx="0.518" cy="0.653" rx="0.518" ry="0.653" transform="translate(60.053 22.204)"/>
        <path id="Caminho_643" data-name="Caminho 643" d="M194.969,131.577c1.11-.631,2.458.435,2.2,2.024" transform="translate(-152.488 -109.061)" fill="none" stroke="#c85e8b" stroke-linecap="round" stroke-miterlimit="9" stroke-width="0.525"/>
        <path id="Caminho_644" data-name="Caminho 644" d="M214.247,141.3a2.767,2.767,0,0,0,3.4.319" transform="translate(-159.249 -112.536)" fill="none" stroke="#c85e8b" stroke-linecap="round" stroke-miterlimit="9" stroke-width="0.525"/>
        <path id="Caminho_645" data-name="Caminho 645" d="M209.333,127.725a2.755,2.755,0,0,1,3.232-.91" transform="translate(-157.526 -107.392)" fill="none" stroke="#1f2251" stroke-linecap="round" stroke-linejoin="round" stroke-width="0.788"/>
        <path id="Caminho_646" data-name="Caminho 646" d="M223.519,126.688a2.548,2.548,0,0,0-3.355-.118" transform="translate(-161.324 -107.177)" fill="none" stroke="#1f2251" stroke-linecap="round" stroke-linejoin="round" stroke-width="0.788"/>
        <circle id="Elipse_24" data-name="Elipse 24" cx="1.829" cy="1.829" r="1.829" transform="translate(50.24 23.974)" fill="#eab7c0"/>
        <path id="Caminho_647" data-name="Caminho 647" d="M224.938,134.286a18.438,18.438,0,0,1-.177,3.063,1.9,1.9,0,0,1-.9.232,1.828,1.828,0,1,1,0-3.656A1.753,1.753,0,0,1,224.938,134.286Z" transform="translate(-161.979 -109.949)" fill="#eab7c0"/>
        <g id="Grupo_593" data-name="Grupo 593" transform="translate(55.777 62.173)">
          <path id="Caminho_648" data-name="Caminho 648" d="M226.527,216.49h-9.411a1.619,1.619,0,0,1-1.628-2.043l3.989-19.65a2.63,2.63,0,0,1,2.458-2.043H232.7a1.62,1.62,0,0,1,1.628,2.043l-5.339,19.65A2.631,2.631,0,0,1,226.527,216.49Z" transform="translate(-215.446 -192.755)" fill="#2a3551"/>
          <path id="Caminho_649" data-name="Caminho 649" d="M228.6,217.78h-9.411a1.62,1.62,0,0,1-1.628-2.043l3.99-19.65a2.629,2.629,0,0,1,2.457-2.043h9.411a1.62,1.62,0,0,1,1.628,2.043l-3.99,19.65A2.63,2.63,0,0,1,228.6,217.78Z" transform="translate(-216.175 -193.207)" fill="#364380"/>
        </g>
        <path id="Caminho_650" data-name="Caminho 650" d="M200.74,215.557c0,1.944-2.326,3.656-2.326,3.656s.553,2.647-3.826,3.54-8.826-2.9-8.826-2.9l-28.286,5.968a10.541,10.541,0,0,1-2.2.232,10.66,10.66,0,0,1-9.672-15.135l4.086-8.826,1.419-3.069,14.426,8.41-1.03,1.773-1.493,2.578,22.9-.812a19.5,19.5,0,0,0,3.861-3.629c1.513-2.005,2.06-2.469,3.253-1.712s-.116,4.181-1.132,5.484c3.656,2.032,8.041.464,9.808.723S203.5,214.193,200.74,215.557Z" transform="translate(-134.828 -132.78)" fill="#f0c9cf"/>
        <path id="Caminho_651" data-name="Caminho 651" d="M226.006,223.979c-2.249.972-7.779.1-9.345-.943" transform="translate(-160.096 -141.201)" fill="none" stroke="#c85e8b" stroke-linecap="round" stroke-miterlimit="9" stroke-width="0.525"/>
        <path id="Caminho_652" data-name="Caminho 652" d="M222.963,229.384c-3.106.61-6.588.406-8.359-1.364" transform="translate(-159.374 -142.949)" fill="none" stroke="#c85e8b" stroke-linecap="round" stroke-miterlimit="9" stroke-width="0.525"/>
        <path id="Caminho_653" data-name="Caminho 653" d="M225.461,204.024h0a.846.846,0,0,1-.851-1.06l.751-3.824a1.351,1.351,0,0,1,1.267-1.059h0a.846.846,0,0,1,.852,1.059l-.751,3.824A1.353,1.353,0,0,1,225.461,204.024Z" transform="translate(-162.876 -132.45)" fill="#445ec7"/>
        <line id="Linha_68" data-name="Linha 68" x1="7.604" transform="translate(20.575 79.005)" fill="none" stroke="#c85e8b" stroke-linecap="round" stroke-miterlimit="9" stroke-width="0.525"/>
        <line id="Linha_69" data-name="Linha 69" y1="4.92" x2="4.039" transform="translate(73.37 76.915)" fill="none" stroke="#c85e8b" stroke-linecap="round" stroke-miterlimit="9" stroke-width="0.525"/>
        <line id="Linha_70" data-name="Linha 70" y1="15.847" x2="8.241" transform="translate(30.704 58.804)" fill="none" stroke="#1f2251" stroke-linecap="round" stroke-linejoin="round" stroke-width="0.525"/>
        <path id="Caminho_654" data-name="Caminho 654" d="M168.271,207.433l-1.03,1.773-14.815-7.114,1.419-3.069Z" transform="translate(-137.568 -132.78)" fill="#d683a7"/>
        <line id="Linha_71" data-name="Linha 71" y1="17.066" x2="5.239" transform="translate(49.991 120.103)" fill="none" stroke="#1f2251" stroke-linecap="round" stroke-linejoin="round" stroke-width="0.525"/>
        <path id="Caminho_655" data-name="Caminho 655" d="M129.965,420.957l16.524-9.571,3.135,4.441h7.227l.784,6.7H130.387A.844.844,0,0,1,129.965,420.957Z" transform="translate(-129.542 -207.257)" fill="#1f2251"/>
        <g id="Grupo_594" data-name="Grupo 594" transform="translate(14.269 193.027)">
          <rect id="Retângulo_119" data-name="Retângulo 119" width="18.5" height="6.008" rx="2.811" transform="translate(1.212 0) rotate(11.635)" fill="#99a3ca"/>
          <line id="Linha_72" data-name="Linha 72" x2="15.113" y2="3.112" transform="translate(2.712 0.337)" fill="none" stroke="#1f2251" stroke-linecap="round" stroke-linejoin="round" stroke-width="0.525"/>
        </g>
        <g id="Grupo_595" data-name="Grupo 595" transform="translate(62.448 193.248)">
          <rect id="Retângulo_120" data-name="Retângulo 120" width="18.501" height="6.008" rx="2.811" transform="translate(0 3.37) rotate(-10.495)" fill="#99a3ca"/>
          <line id="Linha_73" data-name="Linha 73" y1="2.81" x2="15.172" transform="translate(1.517 0.307)" fill="none" stroke="#1f2251" stroke-linecap="round" stroke-linejoin="round" stroke-width="0.525"/>
        </g>
        <line id="Linha_74" data-name="Linha 74" y1="4.876" x2="33.146" transform="translate(34.825 92.087)" fill="none" stroke="#1f2251" stroke-linecap="round" stroke-linejoin="round" stroke-width="0.525"/>
        <path id="Caminho_656" data-name="Caminho 656" d="M211.407,285.2l-1.835,27.829-2.919-12.537.02-.634Z" transform="translate(-156.586 -163.001)" fill="#7988b8"/>
      </g>
      <g id="Grupo_616" data-name="Grupo 616" transform="translate(102.187)">
        <path id="Caminho_657" data-name="Caminho 657" d="M399.737,155.13,392.525,182.3a7.913,7.913,0,0,1-9.954,5.54L377.7,186.36,392.394,151.8Z" transform="translate(-318.762 -109.986)" fill="#f0c9cf"/>
        <path id="Caminho_658" data-name="Caminho 658" d="M401.208,145.25c-.58-.727-5.166,1.712-6.269,1.973s-.116,3.013,1.915,2.74a3.538,3.538,0,0,0,2.671-2.415Z" transform="translate(-324.646 -107.64)" fill="#d683a7"/>
        <path id="Caminho_659" data-name="Caminho 659" d="M399.572,135.847l-.138,17.771,1.915-.406V135.854a.889.889,0,0,0-.616-.845h0A.889.889,0,0,0,399.572,135.847Z" transform="translate(-326.383 -104.08)" fill="#2a3551"/>
        <path id="Caminho_660" data-name="Caminho 660" d="M401.227,145.556s-5.865,5.877-4.733,7.576,4.745-1.393,5.442-2.351c-.087,1.959,2.417,3.8,3.918,3.57,2.264-.348,3.178-2.656,2.482-3.7s-4.92-3.483-4.92-3.483S402.347,143.989,401.227,145.556Z" transform="translate(-325.301 -107.642)" fill="#f0c9cf"/>
        <g id="Grupo_597" data-name="Grupo 597" transform="translate(0 201.568)">
          <path id="Caminho_661" data-name="Caminho 661" d="M314.579,397.842l-2.09,10.8,3.135,5.4,7.575-2.961,3.048-10.536" transform="translate(-295.89 -397.842)" fill="#f0c9cf"/>
          <path id="Caminho_662" data-name="Caminho 662" d="M287.347,420.957l16.524-9.571,3.135,4.441h7.227l.784,6.7H287.77A.844.844,0,0,1,287.347,420.957Z" transform="translate(-286.925 -402.592)" fill="#1f2251"/>
        </g>
        <g id="Grupo_598" data-name="Grupo 598" transform="translate(78.132 201.568)">
          <path id="Caminho_663" data-name="Caminho 663" d="M418.927,397.842l2.09,10.8-3.135,5.4-7.575-2.961-3.048-10.536" transform="translate(-407.259 -397.842)" fill="#f0c9cf"/>
          <path id="Caminho_664" data-name="Caminho 664" d="M438.416,420.957l-16.524-9.571-3.134,4.441H411.53l-.784,6.7h27.247A.844.844,0,0,0,438.416,420.957Z" transform="translate(-408.482 -402.592)" fill="#1f2251"/>
        </g>
        <path id="Caminho_665" data-name="Caminho 665" d="M387.383,338.246l-15.613,3.417-23.839-79.81-19.023,78.439-15.476-2.278,9.938-83.39L324.9,241.78l23.143-1.767,15.544-1.187.286,1.187.164.689Z" transform="translate(-296.221 -140.505)" fill="#647bf4"/>
        <path id="Caminho_666" data-name="Caminho 666" d="M369.4,241.343l-40.665,13.921,1.528-12.843,23.143-1.767h15.831Z" transform="translate(-301.589 -141.146)" fill="#4257b2"/>
        <path id="Caminho_667" data-name="Caminho 667" d="M370.722,205.406a1.852,1.852,0,0,1-1.569,2.08l-37.282,5.484a2.052,2.052,0,0,1-2.346-2.108l1.071-29.24.784-21.295,5.7-12.434,1.18-2.571h13.075l1.425.191c.355.047.71.1,1.058.17a18.478,18.478,0,0,1,13.048,9.917l8.055,16.22-7.667,7.755Z" transform="translate(-301.864 -107.713)" fill="#ebaf65"/>
        <path id="Caminho_668" data-name="Caminho 668" d="M331.142,156.825a4.063,4.063,0,0,0-.293,1.842l1.432,18.791-1.2.7-5.5,3.226-6.889,4.037-1.152.675-2.183-18.716a19.089,19.089,0,0,1,10.989-19.555L331,145.687l2.258-1.037,1.617.437.954.259-1.848,4.522Z" transform="translate(-296.852 -107.477)" fill="#ebaf65"/>
        <g id="Grupo_610" data-name="Grupo 610" transform="translate(18.378 37.173)">
          <g id="Grupo_609" data-name="Grupo 609" clip-path="url(#clip-path)">
            <g id="Grupo_608" data-name="Grupo 608" transform="translate(0.599 -0.915)">
              <g id="Grupo_599" data-name="Grupo 599" transform="translate(0 59.647)">
                <path id="Caminho_669" data-name="Caminho 669" d="M318.851,236.455a1.35,1.35,0,1,1-1.35-1.35A1.35,1.35,0,0,1,318.851,236.455Z" transform="translate(-316.152 -235.105)" fill="#fff" opacity="0.25" style="mix-blend-mode: overlay;isolation: isolate"/>
                <path id="Caminho_670" data-name="Caminho 670" d="M331.157,236.455a1.35,1.35,0,1,1-1.349-1.35A1.35,1.35,0,0,1,331.157,236.455Z" transform="translate(-320.468 -235.105)" fill="#fff" opacity="0.25" style="mix-blend-mode: overlay;isolation: isolate"/>
                <path id="Caminho_671" data-name="Caminho 671" d="M343.464,236.455a1.35,1.35,0,1,1-1.35-1.35A1.35,1.35,0,0,1,343.464,236.455Z" transform="translate(-324.784 -235.105)" fill="#fff" opacity="0.25" style="mix-blend-mode: overlay;isolation: isolate"/>
                <path id="Caminho_672" data-name="Caminho 672" d="M355.77,236.455a1.35,1.35,0,1,1-1.349-1.35A1.35,1.35,0,0,1,355.77,236.455Z" transform="translate(-329.1 -235.105)" fill="#fff" opacity="0.25" style="mix-blend-mode: overlay;isolation: isolate"/>
                <path id="Caminho_673" data-name="Caminho 673" d="M368.077,236.455a1.35,1.35,0,1,1-1.35-1.35A1.35,1.35,0,0,1,368.077,236.455Z" transform="translate(-333.416 -235.105)" fill="#fff" opacity="0.25" style="mix-blend-mode: overlay;isolation: isolate"/>
                <path id="Caminho_674" data-name="Caminho 674" d="M380.383,236.455a1.35,1.35,0,1,1-1.349-1.35A1.35,1.35,0,0,1,380.383,236.455Z" transform="translate(-337.732 -235.105)" fill="#fff" opacity="0.25" style="mix-blend-mode: overlay;isolation: isolate"/>
                <path id="Caminho_675" data-name="Caminho 675" d="M392.69,236.455a1.35,1.35,0,1,1-1.35-1.35A1.35,1.35,0,0,1,392.69,236.455Z" transform="translate(-342.048 -235.105)" fill="#fff" opacity="0.25" style="mix-blend-mode: overlay;isolation: isolate"/>
                <path id="Caminho_676" data-name="Caminho 676" d="M405,236.455a1.35,1.35,0,1,1-1.349-1.35A1.349,1.349,0,0,1,405,236.455Z" transform="translate(-346.364 -235.105)" fill="#fff" opacity="0.25" style="mix-blend-mode: overlay;isolation: isolate"/>
              </g>
              <g id="Grupo_600" data-name="Grupo 600" transform="translate(0 52.191)">
                <path id="Caminho_677" data-name="Caminho 677" d="M318.851,224.972a1.35,1.35,0,1,1-1.35-1.35A1.35,1.35,0,0,1,318.851,224.972Z" transform="translate(-316.152 -223.622)" fill="#fff" opacity="0.25" style="mix-blend-mode: overlay;isolation: isolate"/>
                <path id="Caminho_678" data-name="Caminho 678" d="M331.157,224.972a1.35,1.35,0,1,1-1.349-1.35A1.35,1.35,0,0,1,331.157,224.972Z" transform="translate(-320.468 -223.622)" fill="#fff" opacity="0.25" style="mix-blend-mode: overlay;isolation: isolate"/>
                <path id="Caminho_679" data-name="Caminho 679" d="M343.464,224.972a1.35,1.35,0,1,1-1.35-1.35A1.35,1.35,0,0,1,343.464,224.972Z" transform="translate(-324.784 -223.622)" fill="#fff" opacity="0.25" style="mix-blend-mode: overlay;isolation: isolate"/>
                <path id="Caminho_680" data-name="Caminho 680" d="M355.77,224.972a1.35,1.35,0,1,1-1.349-1.35A1.35,1.35,0,0,1,355.77,224.972Z" transform="translate(-329.1 -223.622)" fill="#fff" opacity="0.25" style="mix-blend-mode: overlay;isolation: isolate"/>
                <path id="Caminho_681" data-name="Caminho 681" d="M368.077,224.972a1.35,1.35,0,1,1-1.35-1.35A1.35,1.35,0,0,1,368.077,224.972Z" transform="translate(-333.416 -223.622)" fill="#fff" opacity="0.25" style="mix-blend-mode: overlay;isolation: isolate"/>
                <path id="Caminho_682" data-name="Caminho 682" d="M380.383,224.972a1.35,1.35,0,1,1-1.349-1.35A1.35,1.35,0,0,1,380.383,224.972Z" transform="translate(-337.732 -223.622)" fill="#fff" opacity="0.25" style="mix-blend-mode: overlay;isolation: isolate"/>
                <path id="Caminho_683" data-name="Caminho 683" d="M392.69,224.972a1.35,1.35,0,1,1-1.35-1.35A1.35,1.35,0,0,1,392.69,224.972Z" transform="translate(-342.048 -223.622)" fill="#fff" opacity="0.25" style="mix-blend-mode: overlay;isolation: isolate"/>
                <path id="Caminho_684" data-name="Caminho 684" d="M405,224.972a1.35,1.35,0,1,1-1.349-1.35A1.349,1.349,0,0,1,405,224.972Z" transform="translate(-346.364 -223.622)" fill="#fff" opacity="0.25" style="mix-blend-mode: overlay;isolation: isolate"/>
              </g>
              <g id="Grupo_601" data-name="Grupo 601" transform="translate(0 44.735)">
                <circle id="Elipse_25" data-name="Elipse 25" cx="1.35" cy="1.35" r="1.35" transform="translate(0 0)" fill="#fff" opacity="0.25" style="mix-blend-mode: overlay;isolation: isolate"/>
                <path id="Caminho_685" data-name="Caminho 685" d="M331.157,213.489a1.35,1.35,0,1,1-1.349-1.35A1.349,1.349,0,0,1,331.157,213.489Z" transform="translate(-320.468 -212.139)" fill="#fff" opacity="0.25" style="mix-blend-mode: overlay;isolation: isolate"/>
                <path id="Caminho_686" data-name="Caminho 686" d="M343.464,213.489a1.35,1.35,0,1,1-1.35-1.35A1.35,1.35,0,0,1,343.464,213.489Z" transform="translate(-324.784 -212.139)" fill="#fff" opacity="0.25" style="mix-blend-mode: overlay;isolation: isolate"/>
                <path id="Caminho_687" data-name="Caminho 687" d="M355.77,213.489a1.35,1.35,0,1,1-1.349-1.35A1.349,1.349,0,0,1,355.77,213.489Z" transform="translate(-329.1 -212.139)" fill="#fff" opacity="0.25" style="mix-blend-mode: overlay;isolation: isolate"/>
                <path id="Caminho_688" data-name="Caminho 688" d="M368.077,213.489a1.35,1.35,0,1,1-1.35-1.35A1.35,1.35,0,0,1,368.077,213.489Z" transform="translate(-333.416 -212.139)" fill="#fff" opacity="0.25" style="mix-blend-mode: overlay;isolation: isolate"/>
                <circle id="Elipse_26" data-name="Elipse 26" cx="1.35" cy="1.35" r="1.35" transform="translate(39.952 0)" fill="#fff" opacity="0.25" style="mix-blend-mode: overlay;isolation: isolate"/>
                <circle id="Elipse_27" data-name="Elipse 27" cx="1.35" cy="1.35" r="1.35" transform="translate(47.943 0)" fill="#fff" opacity="0.25" style="mix-blend-mode: overlay;isolation: isolate"/>
                <circle id="Elipse_28" data-name="Elipse 28" cx="1.35" cy="1.35" r="1.35" transform="translate(55.933 0)" fill="#fff" opacity="0.25" style="mix-blend-mode: overlay;isolation: isolate"/>
              </g>
              <g id="Grupo_602" data-name="Grupo 602" transform="translate(0 37.279)">
                <circle id="Elipse_29" data-name="Elipse 29" cx="1.35" cy="1.35" r="1.35" transform="translate(0 0)" fill="#fff" opacity="0.25" style="mix-blend-mode: overlay;isolation: isolate"/>
                <path id="Caminho_689" data-name="Caminho 689" d="M331.157,202.006a1.35,1.35,0,1,1-1.349-1.35A1.349,1.349,0,0,1,331.157,202.006Z" transform="translate(-320.468 -200.656)" fill="#fff" opacity="0.25" style="mix-blend-mode: overlay;isolation: isolate"/>
                <path id="Caminho_690" data-name="Caminho 690" d="M343.464,202.006a1.35,1.35,0,1,1-1.35-1.35A1.35,1.35,0,0,1,343.464,202.006Z" transform="translate(-324.784 -200.656)" fill="#fff" opacity="0.25" style="mix-blend-mode: overlay;isolation: isolate"/>
                <path id="Caminho_691" data-name="Caminho 691" d="M355.77,202.006a1.35,1.35,0,1,1-1.349-1.35A1.349,1.349,0,0,1,355.77,202.006Z" transform="translate(-329.1 -200.656)" fill="#fff" opacity="0.25" style="mix-blend-mode: overlay;isolation: isolate"/>
                <path id="Caminho_692" data-name="Caminho 692" d="M368.077,202.006a1.35,1.35,0,1,1-1.35-1.35A1.35,1.35,0,0,1,368.077,202.006Z" transform="translate(-333.416 -200.656)" fill="#fff" opacity="0.25" style="mix-blend-mode: overlay;isolation: isolate"/>
                <circle id="Elipse_30" data-name="Elipse 30" cx="1.35" cy="1.35" r="1.35" transform="translate(39.952 0)" fill="#fff" opacity="0.25" style="mix-blend-mode: overlay;isolation: isolate"/>
                <circle id="Elipse_31" data-name="Elipse 31" cx="1.35" cy="1.35" r="1.35" transform="translate(47.943 0)" fill="#fff" opacity="0.25" style="mix-blend-mode: overlay;isolation: isolate"/>
                <circle id="Elipse_32" data-name="Elipse 32" cx="1.35" cy="1.35" r="1.35" transform="translate(55.933 0)" fill="#fff" opacity="0.25" style="mix-blend-mode: overlay;isolation: isolate"/>
              </g>
              <g id="Grupo_603" data-name="Grupo 603" transform="translate(0 29.823)">
                <path id="Caminho_693" data-name="Caminho 693" d="M318.851,190.523a1.35,1.35,0,1,1-1.35-1.35A1.35,1.35,0,0,1,318.851,190.523Z" transform="translate(-316.152 -189.173)" fill="#fff" opacity="0.25" style="mix-blend-mode: overlay;isolation: isolate"/>
                <path id="Caminho_694" data-name="Caminho 694" d="M331.157,190.523a1.35,1.35,0,1,1-1.349-1.35A1.349,1.349,0,0,1,331.157,190.523Z" transform="translate(-320.468 -189.173)" fill="#fff" opacity="0.25" style="mix-blend-mode: overlay;isolation: isolate"/>
                <path id="Caminho_695" data-name="Caminho 695" d="M343.464,190.523a1.35,1.35,0,1,1-1.35-1.35A1.35,1.35,0,0,1,343.464,190.523Z" transform="translate(-324.784 -189.173)" fill="#fff" opacity="0.25" style="mix-blend-mode: overlay;isolation: isolate"/>
                <path id="Caminho_696" data-name="Caminho 696" d="M355.77,190.523a1.35,1.35,0,1,1-1.349-1.35A1.349,1.349,0,0,1,355.77,190.523Z" transform="translate(-329.1 -189.173)" fill="#fff" opacity="0.25" style="mix-blend-mode: overlay;isolation: isolate"/>
                <path id="Caminho_697" data-name="Caminho 697" d="M368.077,190.523a1.35,1.35,0,1,1-1.35-1.35A1.35,1.35,0,0,1,368.077,190.523Z" transform="translate(-333.416 -189.173)" fill="#fff" opacity="0.25" style="mix-blend-mode: overlay;isolation: isolate"/>
                <path id="Caminho_698" data-name="Caminho 698" d="M380.383,190.523a1.35,1.35,0,1,1-1.349-1.35A1.349,1.349,0,0,1,380.383,190.523Z" transform="translate(-337.732 -189.173)" fill="#fff" opacity="0.25" style="mix-blend-mode: overlay;isolation: isolate"/>
                <path id="Caminho_699" data-name="Caminho 699" d="M392.69,190.523a1.35,1.35,0,1,1-1.35-1.35A1.35,1.35,0,0,1,392.69,190.523Z" transform="translate(-342.048 -189.173)" fill="#fff" opacity="0.25" style="mix-blend-mode: overlay;isolation: isolate"/>
                <path id="Caminho_700" data-name="Caminho 700" d="M405,190.523a1.35,1.35,0,1,1-1.349-1.35A1.349,1.349,0,0,1,405,190.523Z" transform="translate(-346.364 -189.173)" fill="#fff" opacity="0.25" style="mix-blend-mode: overlay;isolation: isolate"/>
              </g>
              <g id="Grupo_604" data-name="Grupo 604" transform="translate(0 22.367)">
                <path id="Caminho_701" data-name="Caminho 701" d="M318.851,179.04a1.35,1.35,0,1,1-1.35-1.35A1.349,1.349,0,0,1,318.851,179.04Z" transform="translate(-316.152 -177.69)" fill="#fff" opacity="0.25" style="mix-blend-mode: overlay;isolation: isolate"/>
                <path id="Caminho_702" data-name="Caminho 702" d="M331.157,179.04a1.35,1.35,0,1,1-1.349-1.35A1.349,1.349,0,0,1,331.157,179.04Z" transform="translate(-320.468 -177.69)" fill="#fff" opacity="0.25" style="mix-blend-mode: overlay;isolation: isolate"/>
                <path id="Caminho_703" data-name="Caminho 703" d="M343.464,179.04a1.35,1.35,0,1,1-1.35-1.35A1.349,1.349,0,0,1,343.464,179.04Z" transform="translate(-324.784 -177.69)" fill="#fff" opacity="0.25" style="mix-blend-mode: overlay;isolation: isolate"/>
                <path id="Caminho_704" data-name="Caminho 704" d="M355.77,179.04a1.35,1.35,0,1,1-1.349-1.35A1.349,1.349,0,0,1,355.77,179.04Z" transform="translate(-329.1 -177.69)" fill="#fff" opacity="0.25" style="mix-blend-mode: overlay;isolation: isolate"/>
                <path id="Caminho_705" data-name="Caminho 705" d="M368.077,179.04a1.35,1.35,0,1,1-1.35-1.35A1.349,1.349,0,0,1,368.077,179.04Z" transform="translate(-333.416 -177.69)" fill="#fff" opacity="0.25" style="mix-blend-mode: overlay;isolation: isolate"/>
                <path id="Caminho_706" data-name="Caminho 706" d="M380.383,179.04a1.35,1.35,0,1,1-1.349-1.35A1.349,1.349,0,0,1,380.383,179.04Z" transform="translate(-337.732 -177.69)" fill="#fff" opacity="0.25" style="mix-blend-mode: overlay;isolation: isolate"/>
                <path id="Caminho_707" data-name="Caminho 707" d="M392.69,179.04a1.35,1.35,0,1,1-1.35-1.35A1.349,1.349,0,0,1,392.69,179.04Z" transform="translate(-342.048 -177.69)" fill="#fff" opacity="0.25" style="mix-blend-mode: overlay;isolation: isolate"/>
                <path id="Caminho_708" data-name="Caminho 708" d="M405,179.04a1.35,1.35,0,1,1-1.349-1.35A1.349,1.349,0,0,1,405,179.04Z" transform="translate(-346.364 -177.69)" fill="#fff" opacity="0.25" style="mix-blend-mode: overlay;isolation: isolate"/>
              </g>
              <g id="Grupo_605" data-name="Grupo 605" transform="translate(0 14.912)">
                <circle id="Elipse_33" data-name="Elipse 33" cx="1.35" cy="1.35" r="1.35" transform="translate(0 0)" fill="#fff" opacity="0.25" style="mix-blend-mode: overlay;isolation: isolate"/>
                <path id="Caminho_709" data-name="Caminho 709" d="M331.157,167.557a1.35,1.35,0,1,1-1.349-1.35A1.349,1.349,0,0,1,331.157,167.557Z" transform="translate(-320.468 -166.207)" fill="#fff" opacity="0.25" style="mix-blend-mode: overlay;isolation: isolate"/>
                <path id="Caminho_710" data-name="Caminho 710" d="M343.464,167.557a1.35,1.35,0,1,1-1.35-1.35A1.349,1.349,0,0,1,343.464,167.557Z" transform="translate(-324.784 -166.207)" fill="#fff" opacity="0.25" style="mix-blend-mode: overlay;isolation: isolate"/>
                <path id="Caminho_711" data-name="Caminho 711" d="M355.77,167.557a1.35,1.35,0,1,1-1.349-1.35A1.349,1.349,0,0,1,355.77,167.557Z" transform="translate(-329.1 -166.207)" fill="#fff" opacity="0.25" style="mix-blend-mode: overlay;isolation: isolate"/>
                <path id="Caminho_712" data-name="Caminho 712" d="M368.077,167.557a1.35,1.35,0,1,1-1.35-1.35A1.349,1.349,0,0,1,368.077,167.557Z" transform="translate(-333.416 -166.207)" fill="#fff" opacity="0.25" style="mix-blend-mode: overlay;isolation: isolate"/>
                <circle id="Elipse_34" data-name="Elipse 34" cx="1.35" cy="1.35" r="1.35" transform="translate(39.952 0)" fill="#fff" opacity="0.25" style="mix-blend-mode: overlay;isolation: isolate"/>
                <circle id="Elipse_35" data-name="Elipse 35" cx="1.35" cy="1.35" r="1.35" transform="translate(47.943 0)" fill="#fff" opacity="0.25" style="mix-blend-mode: overlay;isolation: isolate"/>
                <circle id="Elipse_36" data-name="Elipse 36" cx="1.35" cy="1.35" r="1.35" transform="translate(55.933 0)" fill="#fff" opacity="0.25" style="mix-blend-mode: overlay;isolation: isolate"/>
              </g>
              <g id="Grupo_606" data-name="Grupo 606" transform="translate(0 7.456)">
                <circle id="Elipse_37" data-name="Elipse 37" cx="1.35" cy="1.35" r="1.35" transform="translate(0 0)" fill="#fff" opacity="0.25" style="mix-blend-mode: overlay;isolation: isolate"/>
                <path id="Caminho_713" data-name="Caminho 713" d="M331.157,156.074a1.35,1.35,0,1,1-1.349-1.35A1.349,1.349,0,0,1,331.157,156.074Z" transform="translate(-320.468 -154.724)" fill="#fff" opacity="0.25" style="mix-blend-mode: overlay;isolation: isolate"/>
                <path id="Caminho_714" data-name="Caminho 714" d="M343.464,156.074a1.35,1.35,0,1,1-1.35-1.35A1.349,1.349,0,0,1,343.464,156.074Z" transform="translate(-324.784 -154.724)" fill="#fff" opacity="0.25" style="mix-blend-mode: overlay;isolation: isolate"/>
                <path id="Caminho_715" data-name="Caminho 715" d="M355.77,156.074a1.35,1.35,0,1,1-1.349-1.35A1.349,1.349,0,0,1,355.77,156.074Z" transform="translate(-329.1 -154.724)" fill="#fff" opacity="0.25" style="mix-blend-mode: overlay;isolation: isolate"/>
                <path id="Caminho_716" data-name="Caminho 716" d="M368.077,156.074a1.35,1.35,0,1,1-1.35-1.35A1.349,1.349,0,0,1,368.077,156.074Z" transform="translate(-333.416 -154.724)" fill="#fff" opacity="0.25" style="mix-blend-mode: overlay;isolation: isolate"/>
                <circle id="Elipse_38" data-name="Elipse 38" cx="1.35" cy="1.35" r="1.35" transform="translate(39.952 0)" fill="#fff" opacity="0.25" style="mix-blend-mode: overlay;isolation: isolate"/>
                <circle id="Elipse_39" data-name="Elipse 39" cx="1.35" cy="1.35" r="1.35" transform="translate(47.943 0)" fill="#fff" opacity="0.25" style="mix-blend-mode: overlay;isolation: isolate"/>
                <circle id="Elipse_40" data-name="Elipse 40" cx="1.35" cy="1.35" r="1.35" transform="translate(55.933 0)" fill="#fff" opacity="0.25" style="mix-blend-mode: overlay;isolation: isolate"/>
              </g>
              <g id="Grupo_607" data-name="Grupo 607" transform="translate(0)">
                <path id="Caminho_717" data-name="Caminho 717" d="M318.851,144.591a1.35,1.35,0,1,1-1.35-1.35A1.349,1.349,0,0,1,318.851,144.591Z" transform="translate(-316.152 -143.241)" fill="#fff" opacity="0.25" style="mix-blend-mode: overlay;isolation: isolate"/>
                <path id="Caminho_718" data-name="Caminho 718" d="M331.157,144.591a1.35,1.35,0,1,1-1.349-1.35A1.349,1.349,0,0,1,331.157,144.591Z" transform="translate(-320.468 -143.241)" fill="#fff" opacity="0.25" style="mix-blend-mode: overlay;isolation: isolate"/>
                <path id="Caminho_719" data-name="Caminho 719" d="M343.464,144.591a1.35,1.35,0,1,1-1.35-1.35A1.349,1.349,0,0,1,343.464,144.591Z" transform="translate(-324.784 -143.241)" fill="#fff" opacity="0.25" style="mix-blend-mode: overlay;isolation: isolate"/>
                <path id="Caminho_720" data-name="Caminho 720" d="M355.77,144.591a1.35,1.35,0,1,1-1.349-1.35A1.349,1.349,0,0,1,355.77,144.591Z" transform="translate(-329.1 -143.241)" fill="#fff" opacity="0.25" style="mix-blend-mode: overlay;isolation: isolate"/>
                <path id="Caminho_721" data-name="Caminho 721" d="M368.077,144.591a1.35,1.35,0,1,1-1.35-1.35A1.349,1.349,0,0,1,368.077,144.591Z" transform="translate(-333.416 -143.241)" fill="#fff" opacity="0.25" style="mix-blend-mode: overlay;isolation: isolate"/>
                <path id="Caminho_722" data-name="Caminho 722" d="M380.383,144.591a1.35,1.35,0,1,1-1.349-1.35A1.349,1.349,0,0,1,380.383,144.591Z" transform="translate(-337.732 -143.241)" fill="#fff" opacity="0.25" style="mix-blend-mode: overlay;isolation: isolate"/>
                <path id="Caminho_723" data-name="Caminho 723" d="M392.69,144.591a1.35,1.35,0,1,1-1.35-1.35A1.349,1.349,0,0,1,392.69,144.591Z" transform="translate(-342.048 -143.241)" fill="#fff" opacity="0.25" style="mix-blend-mode: overlay;isolation: isolate"/>
                <path id="Caminho_724" data-name="Caminho 724" d="M405,144.591a1.35,1.35,0,1,1-1.349-1.35A1.349,1.349,0,0,1,405,144.591Z" transform="translate(-346.364 -143.241)" fill="#fff" opacity="0.25" style="mix-blend-mode: overlay;isolation: isolate"/>
              </g>
            </g>
          </g>
        </g>
        <path id="Caminho_726" data-name="Caminho 726" d="M370.181,176.959l7.962-17.57a2.5,2.5,0,0,1,1.613-1.376l32.376-8.881c.547-.151,1.666,1.2,1.415,1.712l-11.781,21.869a3.38,3.38,0,0,1-1.834,1.669l-30.449,11.543Z" transform="translate(-315.879 -109.044)" fill="#2a3551"/>
        <path id="Caminho_727" data-name="Caminho 727" d="M371.075,178.951l7.962-17.57A2.5,2.5,0,0,1,380.649,160l32.376-8.881a.659.659,0,0,1,.766.927L402.66,174.7a3.378,3.378,0,0,1-1.834,1.669l-30.449,11.544Z" transform="translate(-316.192 -109.738)" fill="#364380"/>
        <path id="Caminho_728" data-name="Caminho 728" d="M361.469,194.225s.655,1.528-2.565,4.488-8.1,1.044-8.1,1.044l-12.939,9.815a10.356,10.356,0,0,1-16.363-6.2l-.088-.443-.846-4.106,6.889-4.037,5.5-3.226.184,1.023.859,4.74,14.064-6.882s2.831-4.529,4.181-6.139,2.871-1.869,3.349-.825-2.565,5.314-2.565,5.314a22.639,22.639,0,0,0,4.529-1.269c3.4-1.173,5.614-3.608,6.527-2.872s.4,2.872-.825,4.529A6.829,6.829,0,0,1,361.469,194.225Z" transform="translate(-298.723 -120.874)" fill="#f0c9cf"/>
        <path id="Caminho_729" data-name="Caminho 729" d="M333.136,197.284l-11.725,10.347-.846-4.106,6.889-4.038,5.5-3.226Z" transform="translate(-298.723 -125.577)" fill="#d683a7"/>
        <path id="Caminho_730" data-name="Caminho 730" d="M357.318,145.448c-.539,3.049-2.258,6.132-6.875,6.63a9.969,9.969,0,0,1-7.946-2.21,10.712,10.712,0,0,1-1.917-2.21,12.14,12.14,0,0,1-1.064-1.971l2.258-1.037,1.617.437h11.445l1.425.191C356.616,145.325,356.97,145.38,357.318,145.448Z" transform="translate(-305.369 -107.477)" fill="#fff"/>
        <path id="Caminho_731" data-name="Caminho 731" d="M352.01,145.347c-6.4.716-9.017-5.354-9.017-5.354l1.31-.566a52.444,52.444,0,0,0-.259-8.055l1.828.471,9.01,2.319a12.326,12.326,0,0,0-.512,5.553c.021.177.034.279.034.279l1.65.437S356.321,144.87,352.01,145.347Z" transform="translate(-306.588 -102.82)" fill="#f0c9cf"/>
        <path id="Caminho_732" data-name="Caminho 732" d="M355.278,139.968c-3.608.082-8.191-1.173-9.6-5.886a1.437,1.437,0,0,1,1.1-1.985l9.01,2.319A12.326,12.326,0,0,0,355.278,139.968Z" transform="translate(-307.496 -103.074)" fill="#d683a7"/>
        <path id="Caminho_733" data-name="Caminho 733" d="M339.862,112.73l-3.276-4.028a5.185,5.185,0,0,1,.4-6.987h0a7.37,7.37,0,0,1,5.219-10.036l3.346-.736a4.4,4.4,0,0,0,1.65-.744l3.213-2.347a2.361,2.361,0,0,1,2.639-.1h0a2.361,2.361,0,0,1,.841,3.108l-.984,1.863a.246.246,0,0,0,.347.323l5.812-3.629a1.823,1.823,0,0,1,2.318.325h0a1.822,1.822,0,0,1,.13,2.278l-4.009,5.618a.246.246,0,0,0,.282.375l.982-.349a2.258,2.258,0,0,1,2.678.947h0a2.253,2.253,0,0,1-.277,2.725c-1.916,2.039-5.515,6.114-5.991,8.431C354.534,112.948,339.862,112.73,339.862,112.73Z" transform="translate(-303.933 -87.398)" fill="#1f2251"/>
        <path id="Caminho_734" data-name="Caminho 734" d="M356.487,114.4a17.109,17.109,0,0,0-.212,2.933c0,.9.177,2.394.2,4.024a15.909,15.909,0,0,1-.293,3.493c-.573,2.646-2.149,4.9-6.125,4.9-8.144,0-8.969-8.055-8.969-8.055a1.287,1.287,0,0,1-2.047,1.023c-1.364-.682-1.828-3.793-.286-4.529a2.424,2.424,0,0,1,2.524.716.4.4,0,0,0,.655-.341l-.328-3.8c2.224.675,10.191-1.589,13.321-4.679a5.229,5.229,0,0,0,1.119,2.441A2.452,2.452,0,0,1,356.487,114.4Z" transform="translate(-304.763 -95.352)" fill="#f0c9cf"/>
        <g id="Grupo_611" data-name="Grupo 611" transform="translate(40.3 20.95)">
          <path id="Caminho_735" data-name="Caminho 735" d="M357.732,127.906l.725-.427a1.122,1.122,0,0,0,.462-1.412l-1.187-2.748" transform="translate(-352.058 -120.946)" fill="none" stroke="#c85e8b" stroke-linecap="round" stroke-miterlimit="9" stroke-width="0.525"/>
          <path id="Caminho_736" data-name="Caminho 736" d="M353.139,124.968a.532.532,0,1,1-.517-.653A.6.6,0,0,1,353.139,124.968Z" transform="translate(-350.084 -121.295)"/>
          <path id="Caminho_737" data-name="Caminho 737" d="M362.728,124.4a.532.532,0,1,1-.518-.653A.6.6,0,0,1,362.728,124.4Z" transform="translate(-353.447 -121.095)"/>
          <path id="Caminho_738" data-name="Caminho 738" d="M348.993,121.369a2.755,2.755,0,0,1,3.232-.91" transform="translate(-348.993 -119.878)" fill="none" stroke="#1f2251" stroke-linecap="round" stroke-linejoin="round" stroke-width="0.788"/>
          <path id="Caminho_739" data-name="Caminho 739" d="M363.179,120.332a2.548,2.548,0,0,0-3.355-.118" transform="translate(-352.792 -119.664)" fill="none" stroke="#1f2251" stroke-linecap="round" stroke-linejoin="round" stroke-width="0.788"/>
        </g>
        <path id="Caminho_740" data-name="Caminho 740" d="M353.969,132.806l3.082.145a1.555,1.555,0,0,1-1.659,1.495A1.483,1.483,0,0,1,353.969,132.806Z" transform="translate(-310.437 -103.323)" fill="#fff"/>
        <path id="Caminho_741" data-name="Caminho 741" d="M339.042,124.8c.914-.566,1.741.152,1.567,1.523" transform="translate(-305.203 -100.447)" fill="none" stroke="#c85e8b" stroke-linecap="round" stroke-miterlimit="9" stroke-width="0.525"/>
        <g id="Grupo_612" data-name="Grupo 612" transform="translate(39.414 25.876)">
          <path id="Caminho_742" data-name="Caminho 742" d="M351.285,129.08a1.828,1.828,0,1,1-1.828-1.829A1.829,1.829,0,0,1,351.285,129.08Z" transform="translate(-347.628 -127.251)" fill="#eab7c0"/>
          <path id="Caminho_743" data-name="Caminho 743" d="M365.225,127.377a15.911,15.911,0,0,1-.293,3.493,1.583,1.583,0,0,1-.361.041,1.828,1.828,0,1,1,0-3.656A1.746,1.746,0,0,1,365.225,127.377Z" transform="translate(-352.929 -127.252)" fill="#eab7c0"/>
        </g>
        <line id="Linha_75" data-name="Linha 75" x1="5.181" y2="2.612" transform="translate(30.095 76.444)" fill="none" stroke="#c85e8b" stroke-linecap="round" stroke-miterlimit="9" stroke-width="0.525"/>
        <path id="Caminho_744" data-name="Caminho 744" d="M382.332,192.594c-1.132,2.264-7.373,3.141-7.373,3.141" transform="translate(-317.799 -124.291)" fill="none" stroke="#c85e8b" stroke-linecap="round" stroke-miterlimit="9" stroke-width="0.525"/>
        <path id="Caminho_745" data-name="Caminho 745" d="M379.943,200.372c-2.525,2.7-6.7,2.047-6.7,2.047" transform="translate(-317.195 -127.019)" fill="none" stroke="#c85e8b" stroke-linecap="round" stroke-miterlimit="9" stroke-width="0.525"/>
        <line id="Linha_76" data-name="Linha 76" x1="2.16" y1="15.683" transform="translate(32.069 55.003)" fill="none" stroke="#1f2251" stroke-linecap="round" stroke-linejoin="round" stroke-width="0.525"/>
        <line id="Linha_77" data-name="Linha 77" x1="15.775" y2="13.3" transform="translate(45.072 83.149)" fill="none" stroke="#1f2251" stroke-linecap="round" stroke-linejoin="round" stroke-width="0.525"/>
        <g id="Grupo_613" data-name="Grupo 613" transform="translate(14.948 196.991)">
          <rect id="Retângulo_121" data-name="Retângulo 121" width="18.501" height="6.008" rx="2.811" transform="translate(0.769 0) rotate(7.356)" fill="#647bf4"/>
          <line id="Linha_78" data-name="Linha 78" x2="15.303" y2="1.976" transform="translate(2.291 0.224)" fill="none" stroke="#1f2251" stroke-linecap="round" stroke-linejoin="round" stroke-width="0.525"/>
        </g>
        <g id="Grupo_614" data-name="Grupo 614" transform="translate(74.46 195.732)">
          <rect id="Retângulo_122" data-name="Retângulo 122" width="18.501" height="6.008" rx="2.811" transform="translate(0 5.184) rotate(-16.273)" fill="#647bf4"/>
          <line id="Linha_79" data-name="Linha 79" y1="4.324" x2="14.812" transform="translate(1.484 0.456)" fill="none" stroke="#1f2251" stroke-linecap="round" stroke-linejoin="round" stroke-width="0.525"/>
        </g>
        <g id="Grupo_615" data-name="Grupo 615" transform="translate(63.739 52.432)">
          <path id="Caminho_746" data-name="Caminho 746" d="M386.008,168.621a1.529,1.529,0,1,1-.688,2.338A1.757,1.757,0,0,1,386.008,168.621Z" transform="translate(-385.091 -168.15)" fill="#fff" opacity="0.25" style="mix-blend-mode: overlay;isolation: isolate"/>
          <path id="Caminho_747" data-name="Caminho 747" d="M386.9,169.631a.785.785,0,1,1-.354,1.2A.9.9,0,0,1,386.9,169.631Z" transform="translate(-385.562 -168.585)" fill="#fff" opacity="0.25" style="mix-blend-mode: overlay;isolation: isolate"/>
        </g>
        <line id="Linha_80" data-name="Linha 80" x1="4.115" y2="19.065" transform="translate(48.844 114.104)" fill="none" stroke="#1f2251" stroke-linecap="round" stroke-linejoin="round" stroke-width="0.525"/>
      </g>
      <path id="Caminho_748" data-name="Caminho 748" d="M453.661,182.884h-.43A.831.831,0,0,1,453.661,182.884Z" transform="translate(-243.063 -120.876)" fill="#364380"/>
      <path id="Caminho_749" data-name="Caminho 749" d="M453.216,182.9a.044.044,0,0,0-.027.006V182.9Z" transform="translate(-243.048 -120.891)" fill="#364380"/>
      <g id="Grupo_624" data-name="Grupo 624" transform="translate(204.721 4.838)">
        <g id="Grupo_617" data-name="Grupo 617" transform="translate(20.18 177.91)">
          <path id="Caminho_750" data-name="Caminho 750" d="M502.53,368.856l-1.045,29.922,3.135,5.4,7.575-2.96,2-29.661" transform="translate(-484.886 -368.856)" fill="#f0c9cf"/>
          <path id="Caminho_751" data-name="Caminho 751" d="M476.343,421.427l16.524-9.571L496,416.3h7.227l.784,6.7H476.766A.844.844,0,0,1,476.343,421.427Z" transform="translate(-475.921 -383.937)" fill="#ebaf65"/>
        </g>
        <g id="Grupo_618" data-name="Grupo 618" transform="translate(76.689 177.91)">
          <path id="Caminho_752" data-name="Caminho 752" d="M574.62,368.856l9.519,29.922-3.135,5.4-7.575-2.96-10.477-29.661" transform="translate(-562.952 -368.856)" fill="#f0c9cf"/>
          <path id="Caminho_753" data-name="Caminho 753" d="M605.551,421.427l-16.524-9.571-3.135,4.44h-7.227l-.784,6.7h27.247A.844.844,0,0,0,605.551,421.427Z" transform="translate(-568.188 -383.937)" fill="#ebaf65"/>
        </g>
        <path id="Caminho_754" data-name="Caminho 754" d="M502.41,217.06l-3.918,112.934,15.5,1.135,5.921-70.62,23.336,72.782,13.758-4.324s-18.633-76.817-20.723-87.789-1.045-16.721-4.353-24.382Z" transform="translate(-463.657 -137.618)" fill="#292f69"/>
        <path id="Caminho_755" data-name="Caminho 755" d="M517.119,98.451c-4.466-1.219-7.862,5.311-6.818,13.409s-5.921,15.847-5.137,19.156,16.282,7.924,26.644,7.837,13.583-4.615,11.668-7.837-4.963-6.359-4.7-16.066S532.3,87.132,517.119,98.451Z" transform="translate(-465.975 -94.849)" fill="#1f2251"/>
        <path id="Caminho_756" data-name="Caminho 756" d="M474.626,156.742l-5.747,12.886L460,148.794s-1.132-7.116-2.047-9.118-.609-4.659-1.828-5.051-1.654,1.785-1.654,3.657a24.746,24.746,0,0,1-.3,3.658s-5.094-4.442-5.4-5.835-.131-6.139-1.262-6.748-2.395.784-2.656,4.832,7.88,15.847,7.88,15.847l5.964,28.908,16.718,3.048,9.926-16.283Z" transform="translate(-444.841 -106.904)" fill="#f0c9cf"/>
        <path id="Caminho_757" data-name="Caminho 757" d="M541.916,167.41l-6.152,4.468-.58.416-4.59,3.335-.7,18.2-2.8-.055-.58-.014-8.09-.164-.58-.007-8.09-.164-.579-.014-8.09-.164-.58-.013-.825-.014a43.922,43.922,0,0,0-.955-10.933,20.456,20.456,0,0,1,.518-10.947l-8.532-7.728,4.372-6.794a13.367,13.367,0,0,1,5.423-4.809c.191-.1.382-.184.58-.266a12.451,12.451,0,0,1,1.971-.675l6.118-1.569.334-.089.245-.061,2.074-.539,6.016.021h.58l6.555.02,1.535.805.58.306.014.007,5.511,2.885a13.058,13.058,0,0,1,2.565,1.753c.2.164.4.342.58.525a13.359,13.359,0,0,1,3.117,4.666Z" transform="translate(-460.928 -113.774)" fill="#647bf4"/>
        <g id="Grupo_619" data-name="Grupo 619" transform="translate(39.579 35.057)">
          <path id="Caminho_758" data-name="Caminho 758" d="M506.378,153.327v41.5l-.58-.013V153.593C505.989,153.5,506.18,153.409,506.378,153.327Z" transform="translate(-505.798 -150.415)" fill="#fff" opacity="0.25" style="mix-blend-mode: overlay;isolation: isolate"/>
          <path id="Caminho_759" data-name="Caminho 759" d="M519.729,149.64v44.076l-.58-.014V149.79l.334-.089Z" transform="translate(-510.481 -149.122)" fill="#fff" opacity="0.25" style="mix-blend-mode: overlay;isolation: isolate"/>
          <path id="Caminho_760" data-name="Caminho 760" d="M533.081,148.842v44.765l-.58-.007V148.842Z" transform="translate(-515.163 -148.842)" fill="#fff" opacity="0.25" style="mix-blend-mode: overlay;isolation: isolate"/>
          <path id="Caminho_761" data-name="Caminho 761" d="M546.433,150.42v43.81l-.58-.014v-44.1Z" transform="translate(-519.846 -149.287)" fill="#fff" opacity="0.25" style="mix-blend-mode: overlay;isolation: isolate"/>
          <path id="Caminho_762" data-name="Caminho 762" d="M559.785,158.264V175.01l-.58.416V157.739C559.4,157.9,559.6,158.081,559.785,158.264Z" transform="translate(-524.528 -151.962)" fill="#fff" opacity="0.25" style="mix-blend-mode: overlay;isolation: isolate"/>
        </g>
        <path id="Caminho_763" data-name="Caminho 763" d="M537.237,149.97c-1.8,3.67-6.541,5.811-12.359,5.429-4.883-.327-5.484-3.581-5.238-5.989l2.319-.6,13.15.041Z" transform="translate(-471.057 -113.774)" fill="#fff"/>
        <path id="Caminho_764" data-name="Caminho 764" d="M536.295,142.853a9.625,9.625,0,0,1-8.539,4.789c-6.138,0-4.611-4.829-4.611-4.829l1.739-.566-.1-2.994-.156-4.366,10.449-3.178a6.1,6.1,0,0,0-.477,1.787,47.1,47.1,0,0,0,.041,8.751Z" transform="translate(-472.243 -107.776)" fill="#f0c9cf"/>
        <path id="Caminho_765" data-name="Caminho 765" d="M535.965,131.708a6.1,6.1,0,0,0-.477,1.787c0,.007-.007.007-.007.014-2.933,5.9-7.871,5.968-9.808,5.744l-.156-4.366Z" transform="translate(-473.134 -107.776)" fill="#d683a7"/>
        <path id="Caminho_766" data-name="Caminho 766" d="M522.381,107.513c.962,5.14,11.955,8.7,12.734,9.284a2.568,2.568,0,0,1,.651,1.778.12.12,0,0,0,.233.034c.277-.758.833-1.843,1.769-1.954,1.454-.173,2.858,1.659,2.029,3.861s-4.152,1.036-4.152,1.036-2.7,6.59-8.928,6.771-7.6-5.092-7.124-8.329a20.946,20.946,0,0,0,.152-6.756C519.473,111.329,521.858,109.982,522.381,107.513Z" transform="translate(-471.027 -99.291)" fill="#f0c9cf"/>
        <path id="Caminho_767" data-name="Caminho 767" d="M547.881,123.541a2.327,2.327,0,0,0-.871,2.242" transform="translate(-480.654 -104.912)" fill="none" stroke="#c85e8b" stroke-linecap="round" stroke-miterlimit="9" stroke-width="0.525"/>
        <g id="Grupo_620" data-name="Grupo 620" transform="translate(49.985 15.137)">
          <path id="Caminho_768" data-name="Caminho 768" d="M528.474,127.388l-.725-.427a1.122,1.122,0,0,1-.461-1.412l1.186-2.747" transform="translate(-523.708 -119.789)" fill="none" stroke="#c85e8b" stroke-linecap="round" stroke-miterlimit="9" stroke-width="0.525"/>
          <path id="Caminho_769" data-name="Caminho 769" d="M533.2,124.449a.532.532,0,1,0,.517-.653A.6.6,0,0,0,533.2,124.449Z" transform="translate(-525.813 -120.138)"/>
          <path id="Caminho_770" data-name="Caminho 770" d="M523.61,123.879a.532.532,0,1,0,.518-.653A.6.6,0,0,0,523.61,123.879Z" transform="translate(-522.45 -119.938)"/>
          <path id="Caminho_771" data-name="Caminho 771" d="M535.581,118.948a2.755,2.755,0,0,0-3.331-.413" transform="translate(-525.48 -118.162)" fill="none" stroke="#1f2251" stroke-linecap="round" stroke-linejoin="round" stroke-width="0.788"/>
          <path id="Caminho_772" data-name="Caminho 772" d="M521.824,118.921a2.548,2.548,0,0,1,3.355-.118" transform="translate(-521.824 -118.194)" fill="none" stroke="#1f2251" stroke-linecap="round" stroke-linejoin="round" stroke-width="0.788"/>
        </g>
        <path id="Caminho_773" data-name="Caminho 773" d="M524.2,123.055a2.658,2.658,0,1,1-2.658-2.658A2.658,2.658,0,0,1,524.2,123.055Z" transform="translate(-470.808 -103.809)" fill="none" stroke="#647bf4" stroke-miterlimit="10" stroke-width="0.788"/>
        <path id="Caminho_774" data-name="Caminho 774" d="M535.554,123.055A2.659,2.659,0,1,1,532.9,120.4,2.659,2.659,0,0,1,535.554,123.055Z" transform="translate(-474.79 -103.809)" fill="none" stroke="#647bf4" stroke-miterlimit="10" stroke-width="0.788"/>
        <path id="Caminho_775" data-name="Caminho 775" d="M526.955,123.281a1.553,1.553,0,0,1,2.206,0" transform="translate(-473.639 -104.652)" fill="none" stroke="#647bf4" stroke-miterlimit="10" stroke-width="0.788"/>
        <path id="Caminho_776" data-name="Caminho 776" d="M530.352,133.254a3.16,3.16,0,0,0,3.085-.493" transform="translate(-474.83 -108.145)" fill="none" stroke="#c85e8b" stroke-linecap="round" stroke-miterlimit="9" stroke-width="0.525"/>
        <path id="Caminho_777" data-name="Caminho 777" d="M483.917,204.909h-25.8v0a.94.94,0,0,1-.941-.68l-5.532-20.074a.942.942,0,0,1,.662-1.159l.321-.089h.007a.044.044,0,0,1,.027-.006h25.8Z" transform="translate(-447.216 -125.729)" fill="#99a3ca"/>
        <path id="Caminho_778" data-name="Caminho 778" d="M475.525,200.29a2,2,0,1,1-2-2A2,2,0,0,1,475.525,200.29Z" transform="translate(-454.197 -131.126)" fill="#e6e9fc"/>
        <g id="Grupo_621" data-name="Grupo 621" transform="translate(30.013 56.924)">
          <rect id="Retângulo_123" data-name="Retângulo 123" width="22.349" height="2.22" rx="1.11" transform="translate(5.752 20.037)" fill="#7988b8"/>
          <rect id="Retângulo_124" data-name="Retângulo 124" width="22.349" height="2.22" rx="1.11" transform="matrix(0.266, 0.964, -0.964, 0.266, 2.141, 0)" fill="#7988b8"/>
        </g>
        <path id="Caminho_779" data-name="Caminho 779" d="M558.872,208.75a8.547,8.547,0,0,1-13.4,7.053l-14.344-9.869s-7.8,1.712-11.315,1.391-7.258-2.176-7.285-2.9,14.133-2.21,13.464-2.789-6.991-.634-7.08-2,1.508-1.828,4.147-2.006a16.811,16.811,0,0,1,6.009,1.16l14.358,1.992-4.079-11.9-1.105-3.213,11.322-8.219.737,2.387,8.184,26.383A8.467,8.467,0,0,1,558.872,208.75Z" transform="translate(-468.58 -123.821)" fill="#f0c9cf"/>
        <path id="Caminho_780" data-name="Caminho 780" d="M563.457,177.457l.737,2.387-10.954,9.044-1.105-3.213Z" transform="translate(-482.47 -123.821)" fill="#d683a7"/>
        <line id="Linha_81" data-name="Linha 81" x2="6.139" y2="0.827" transform="translate(74.846 76.961)" fill="none" stroke="#c85e8b" stroke-linecap="round" stroke-miterlimit="9" stroke-width="0.525"/>
        <path id="Caminho_781" data-name="Caminho 781" d="M507.365,214.908a.337.337,0,1,1-.338-.338A.338.338,0,0,1,507.365,214.908Z" transform="translate(-466.532 -136.837)" fill="#1f2251"/>
        <path id="Caminho_782" data-name="Caminho 782" d="M509.473,214.908a.338.338,0,1,1-.338-.338A.338.338,0,0,1,509.473,214.908Z" transform="translate(-467.271 -136.837)" fill="#1f2251"/>
        <g id="Grupo_622" data-name="Grupo 622" transform="translate(33.197 191.043)">
          <rect id="Retângulo_125" data-name="Retângulo 125" width="18.5" height="6.008" rx="2.811" transform="matrix(0.999, 0.034, -0.034, 0.999, 0.203, 0)" fill="#99a3ca"/>
        </g>
        <g id="Grupo_623" data-name="Grupo 623" transform="translate(76.778 187.98)">
          <rect id="Retângulo_126" data-name="Retângulo 126" width="18.5" height="6.008" rx="2.811" transform="translate(0 5.31) rotate(-16.678)" fill="#99a3ca"/>
        </g>
        <line id="Linha_82" data-name="Linha 82" x2="7.188" y2="23.223" transform="translate(51.786 108.148)" fill="none" stroke="#1f2251" stroke-linecap="round" stroke-linejoin="round" stroke-width="0.525"/>
        <path id="Caminho_783" data-name="Caminho 783" d="M506.69,199.566c3.82,3.528,10.574,4.05,10.574,4.05" transform="translate(-466.532 -131.574)" fill="none" stroke="#1f2251" stroke-linecap="round" stroke-linejoin="round" stroke-width="0.525"/>
        <line id="Linha_83" data-name="Linha 83" x1="4.876" y1="8.219" transform="translate(64.789 53.636)" fill="none" stroke="#1f2251" stroke-linecap="round" stroke-linejoin="round" stroke-width="0.525"/>
        <path id="Caminho_784" data-name="Caminho 784" d="M503.857,178.346a29.989,29.989,0,0,0,2.514-9.556" transform="translate(-465.538 -120.781)" fill="none" stroke="#1f2251" stroke-linecap="round" stroke-linejoin="round" stroke-width="0.525"/>
      </g>
    </g>
  </g>
</svg>
