<svg id="Grupo_665" data-name="Grupo 665" xmlns="http://www.w3.org/2000/svg" width="68.565" height="36.011" viewBox="0 0 68.565 36.011">
  <path id="Caminho_370" data-name="Caminho 370" d="M570.693,259.765c5.383-1.018,9.961.528,10.876-2.758a12.928,12.928,0,0,0-.187,3.274,46.572,46.572,0,0,1-10.689-.515" transform="translate(-524.13 -242.346)" fill="#dfdddd" fill-rule="evenodd"/>
  <path id="Caminho_371" data-name="Caminho 371" d="M398.184,154.477c9.71,1.75,17.292,4.029,20.757,4.848,0,0-6.1-2.572-18.06-6.472-6.875-2.243-6.942-2.388-9.2,6-.606,2.247-1.089,5.1-1.7,8.306,2.7-7.7,4.812-13.214,8.2-12.678" transform="translate(-358.294 -145.564)" fill="#dfdddd" fill-rule="evenodd"/>
  <path id="Caminho_372" data-name="Caminho 372" d="M77.812,380.353q-4.347,5.1-4.77,5.64a99.2,99.2,0,0,1-19.3-.373s.026-1.435.078-4.3c1.605,1.9,2.6,3.152,4.769,3.292,3.1.2,5.547.335,7.458.349a8.566,8.566,0,0,0,4.978-.94,71.548,71.548,0,0,0,6.784-3.664" transform="translate(-49.738 -355.538)" fill="#e6e7e8" fill-rule="evenodd"/>
  <path id="Caminho_373" data-name="Caminho 373" d="M46.669,102.275c1.052,1.71,17.549,2.82,24.652-.656.728-7,1.891-15.986,4.074-22.71-5.234-.038-20.119,1.037-23.1,3.811a9.5,9.5,0,0,0-1.131,1.273,80.467,80.467,0,0,1,19.131-2.623c1.309-.046,3.053-.192,2.606,1.782a151.881,151.881,0,0,0-2.5,15.163c-.25,2.2-1.221,2.466-4.451,3.045a50.621,50.621,0,0,1-11.642.7c-4.561-.227-6.123-.274-6.216-4.1a54.784,54.784,0,0,1,.775-8.861c0-.215,0-.425.017-.629a43.546,43.546,0,0,0-2.214,13.807" transform="translate(-43.239 -78.907)" fill="#329d9f" fill-rule="evenodd"/>
  <path id="Caminho_374" data-name="Caminho 374" d="M406.064,101.712c-.285-.794-.948-1.3-2.526-1.933-11.07-4.468-23.058-10.135-31.03-13.111-.831-.219-1.279-.336-1.787,1.329a106.86,106.86,0,0,0-3.3,20.091h.338a95.534,95.534,0,0,1,4.06-16.217c1.083-2.939,2.108-2.193,4.752-1.212,4.452,1.653,13.979,5.4,29.492,11.052" transform="translate(-337.592 -85.916)" fill="#329d9f" fill-rule="evenodd"/>
  <path id="Caminho_375" data-name="Caminho 375" d="M10.839,174.361c-2.82.168-2.682,1.641-3.671,5.783-.222.933-2.366.685-2.09-.746C5.7,176.17,6.853,174.086,9,173.649c0,0,.689-.026,2.056-.049a6.224,6.224,0,0,0-.22.761" transform="translate(-5.054 -165.805)" fill="#329d9f" fill-rule="evenodd"/>
  <path id="Caminho_376" data-name="Caminho 376" d="M281.6,119.557c-5.179-.144-4.611.951-5.171,7.039-.116,1.266-3.777,1.7-3.41-.2.828-4.294,1.352-7.18,4.212-7.761,0,0,1.731-.057,4.556-.092Z" transform="translate(-250.938 -115.278)" fill="#329d9f" fill-rule="evenodd"/>
  <path id="Caminho_377" data-name="Caminho 377" d="M534.951,208.033a2.2,2.2,0,0,0-1.907.329l.665-7.788.342.09Z" transform="translate(-489.58 -190.558)" fill="#329d9f" fill-rule="evenodd"/>
  <path id="Caminho_378" data-name="Caminho 378" d="M696.115,255.109l.391-4.056.313.077.548,3.98Z" transform="translate(-639.227 -236.882)" fill="#329d9f" fill-rule="evenodd"/>
  <path id="Caminho_379" data-name="Caminho 379" d="M495.713,285.937c2.854-.02,9.464.046,17.316.348.6.023.8.006,1.1-.349-4.583-.343-11.926-.86-19.49-1.594a3.092,3.092,0,0,0-3.187,1.146l-3.122,3.822c2.6-1.13,3.5-3.346,7.387-3.374" transform="translate(-448.543 -267.386)" fill="#329d9f" fill-rule="evenodd"/>
  <path id="Caminho_380" data-name="Caminho 380" d="M84.179,165.957c2.742.468,3.843.357,9.174-.013-4.667-1.259-7.663-2.657-9.839-5.037-2.313-2.53-1.475-7.975-1.347-10.624a26.661,26.661,0,0,0-2.415,8.478c-.552,4.519-.824,6.3,4.427,7.2" transform="translate(-73.343 -144.408)" fill="#dfdddd" fill-rule="evenodd"/>
  <path id="Caminho_381" data-name="Caminho 381" d="M67.559,389.574a104.523,104.523,0,0,1-12.911-.012c-1.991-.086-3.329-.069-4.437-.243-2.009-.316-5.071-2.219-5.237-4.464-.09,0-.376-2.155-.065-6.465,1.379.659.971.608.962,2.132l2.423,2.521c.412.466.778.583,1.855.67,2.721.221,5.718.316,8.279.309,2.75-.007,3.513.034,5.69-1.573l5.517-4.067q-.141,1.449-.262,2.893c-.291,3.45-.468,3.777-3.127,4.057a77.688,77.688,0,0,1-20.088-.663,2.6,2.6,0,0,0,2.045,2.015c13.711.924,20.464.7,22.222,0-.848,1.24-1.707,2.81-2.865,2.891" transform="translate(-41.5 -353.729)" fill="#329d9f" fill-rule="evenodd"/>
  <path id="Caminho_382" data-name="Caminho 382" d="M406.122,439.97h-1.546v.61h1.377a.57.57,0,0,1,.4.107.581.581,0,0,1,.108.408v.246a.591.591,0,0,1-.106.41.565.565,0,0,1-.4.108h-1.276a.57.57,0,0,1-.4-.109.589.589,0,0,1-.107-.41v-.06l.339-.078v.352h1.627V440.9h-1.372a.563.563,0,0,1-.4-.109.594.594,0,0,1-.105-.409v-.19a.594.594,0,0,1,.105-.408.563.563,0,0,1,.4-.109h1.164a.582.582,0,0,1,.4.107.5.5,0,0,1,.111.373v.046l-.314.089Zm-4.956-.3v1.881h1.593v-1.881h.36v1.668a.587.587,0,0,1-.107.41.568.568,0,0,1-.4.108h-1.3a.566.566,0,0,1-.4-.109.591.591,0,0,1-.107-.409v-1.668Zm-3.61,2.186v-2.186h1.762a.51.51,0,0,1,.354.1.422.422,0,0,1,.108.323v.256a.354.354,0,0,1-.088.262.465.465,0,0,1-.276.11.389.389,0,0,1,.376.427v.279a.37.37,0,0,1-.15.323.791.791,0,0,1-.455.106Zm1.851-1.483v-.22a.193.193,0,0,0-.047-.149.276.276,0,0,0-.177-.042H397.92v.606h1.263a.265.265,0,0,0,.175-.044A.2.2,0,0,0,399.407,440.377Zm.017.924v-.182a.307.307,0,0,0-.052-.206.251.251,0,0,0-.188-.057H397.92v.7h1.263a.251.251,0,0,0,.189-.056A.3.3,0,0,0,399.424,441.3Zm-3.368.559v-2.186h.364v2.186Zm-3.549,0v-2.186h.229l1.635,1.462a1.476,1.476,0,0,1,.119.12q.063.07.129.155c-.011-.07-.019-.143-.025-.22s-.008-.182-.008-.317v-1.2h.335v2.186h-.2l-1.679-1.52-.037-.033a.926.926,0,0,1-.184-.213c.008.066.014.136.018.212s.006.164.006.265v1.289Zm-2.965-2.419.407-.72h.367l.407.72H390.5l-.368-.5-.372.5Zm-.678.749a.584.584,0,0,1,.107-.406.571.571,0,0,1,.407-.109h1.511a.565.565,0,0,1,.4.108.585.585,0,0,1,.107.407v1.152a.587.587,0,0,1-.107.41.565.565,0,0,1-.4.108h-1.511a.567.567,0,0,1-.407-.11.587.587,0,0,1-.107-.408Zm.364,1.366h1.809V439.97h-1.809Zm-5.037-1.065a.466.466,0,0,1,.093-.337.5.5,0,0,1,.347-.09h1.3a.5.5,0,0,1,.347.09.466.466,0,0,1,.093.337v.946a.464.464,0,0,1-.092.335.509.509,0,0,1-.349.089h-1.3a.512.512,0,0,1-.35-.088.467.467,0,0,1-.091-.336Zm.339,1.1h1.5V440.33h-1.5Zm-2.211-1.525a2.3,2.3,0,0,1,.431.034.885.885,0,0,1,.289.1.811.811,0,0,1,.287.316.949.949,0,0,1,.1.44.825.825,0,0,1-.275.678,1.3,1.3,0,0,1-.835.225h-1.034v-1.8Zm-.037.267h-.657v1.258h.657a1.011,1.011,0,0,0,.623-.148.586.586,0,0,0,.185-.487.566.566,0,0,0-.187-.477A1.024,1.024,0,0,0,382.281,440.33Zm-4.958.852h.953l-.477-.855Zm-.711.678,1.038-1.8h.31l1.063,1.8h-.368l-.234-.419h-1.241l-.229.419Zm-2.382,0v-1.8h1.444a.419.419,0,0,1,.289.082.347.347,0,0,1,.088.265v.4a.342.342,0,0,1-.088.263.423.423,0,0,1-.289.081h-.238l.794.7h-.453l-.717-.7h-.491v.7Zm1.295-1.534h-.956v.58h.956a.227.227,0,0,0,.152-.037.2.2,0,0,0,.04-.145v-.216a.194.194,0,0,0-.042-.141A.212.212,0,0,0,375.525,440.326Zm-4.26.164a.467.467,0,0,1,.093-.337.5.5,0,0,1,.347-.09H373a.5.5,0,0,1,.347.09.466.466,0,0,1,.093.337v.946a.465.465,0,0,1-.092.335.509.509,0,0,1-.349.089h-1.3a.512.512,0,0,1-.35-.088.467.467,0,0,1-.091-.336Zm.339,1.1h1.5V440.33h-1.5Zm-3.733.271v-2.186h.364v.894h1.724v-.894h.364v2.186h-.364v-.991h-1.724v.991Z" transform="translate(-338.004 -409.1)" fill="#bbbcbf"/>
  <path id="Caminho_383" data-name="Caminho 383" d="M406.122,439.97h-1.546v.61h1.377a.57.57,0,0,1,.4.107.581.581,0,0,1,.108.408v.246a.591.591,0,0,1-.106.41.565.565,0,0,1-.4.108h-1.276a.57.57,0,0,1-.4-.109.589.589,0,0,1-.107-.41v-.06l.339-.078v.352h1.627V440.9h-1.372a.563.563,0,0,1-.4-.109.594.594,0,0,1-.105-.409v-.19a.594.594,0,0,1,.105-.408.563.563,0,0,1,.4-.109h1.164a.582.582,0,0,1,.4.107.5.5,0,0,1,.111.373v.046l-.314.089Zm-4.956-.3v1.881h1.593v-1.881h.36v1.668a.587.587,0,0,1-.107.41.568.568,0,0,1-.4.108h-1.3a.566.566,0,0,1-.4-.109.591.591,0,0,1-.107-.409v-1.668Zm-3.61,2.186v-2.186h1.762a.51.51,0,0,1,.354.1.422.422,0,0,1,.108.323v.256a.354.354,0,0,1-.088.262.465.465,0,0,1-.276.11.389.389,0,0,1,.376.427v.279a.37.37,0,0,1-.15.323.791.791,0,0,1-.455.106Zm1.851-1.483v-.22a.193.193,0,0,0-.047-.149.276.276,0,0,0-.177-.042H397.92v.606h1.263a.265.265,0,0,0,.175-.044A.2.2,0,0,0,399.407,440.377Zm.017.924v-.182a.307.307,0,0,0-.052-.206.251.251,0,0,0-.188-.057H397.92v.7h1.263a.251.251,0,0,0,.189-.056A.3.3,0,0,0,399.424,441.3Zm-3.368.559v-2.186h.364v2.186Zm-3.549,0v-2.186h.229l1.635,1.462a1.476,1.476,0,0,1,.119.12q.063.07.129.155c-.011-.07-.019-.143-.025-.22s-.008-.182-.008-.317v-1.2h.335v2.186h-.2l-1.679-1.52-.037-.033a.926.926,0,0,1-.184-.213c.008.066.014.136.018.212s.006.164.006.265v1.289Zm-2.965-2.419.407-.72h.367l.407.72H390.5l-.368-.5-.372.5Zm-.678.749a.584.584,0,0,1,.107-.406.571.571,0,0,1,.407-.109h1.511a.565.565,0,0,1,.4.108.585.585,0,0,1,.107.407v1.152a.587.587,0,0,1-.107.41.565.565,0,0,1-.4.108h-1.511a.567.567,0,0,1-.407-.11.587.587,0,0,1-.107-.408Zm.364,1.366h1.809V439.97h-1.809Zm-5.037-1.065a.466.466,0,0,1,.093-.337.5.5,0,0,1,.347-.09h1.3a.5.5,0,0,1,.347.09.466.466,0,0,1,.093.337v.946a.464.464,0,0,1-.092.335.509.509,0,0,1-.349.089h-1.3a.512.512,0,0,1-.35-.088.467.467,0,0,1-.091-.336Zm.339,1.1h1.5V440.33h-1.5Zm-2.211-1.525a2.3,2.3,0,0,1,.431.034.885.885,0,0,1,.289.1.811.811,0,0,1,.287.316.949.949,0,0,1,.1.44.825.825,0,0,1-.275.678,1.3,1.3,0,0,1-.835.225h-1.034v-1.8Zm-.037.267h-.657v1.258h.657a1.011,1.011,0,0,0,.623-.148.586.586,0,0,0,.185-.487.566.566,0,0,0-.187-.477A1.024,1.024,0,0,0,382.281,440.33Zm-4.958.852h.953l-.477-.855Zm-.711.678,1.038-1.8h.31l1.063,1.8h-.368l-.234-.419h-1.241l-.229.419Zm-2.382,0v-1.8h1.444a.419.419,0,0,1,.289.082.347.347,0,0,1,.088.265v.4a.342.342,0,0,1-.088.263.423.423,0,0,1-.289.081h-.238l.794.7h-.453l-.717-.7h-.491v.7Zm1.295-1.534h-.956v.58h.956a.227.227,0,0,0,.152-.037.2.2,0,0,0,.04-.145v-.216a.194.194,0,0,0-.042-.141A.212.212,0,0,0,375.525,440.326Zm-4.26.164a.467.467,0,0,1,.093-.337.5.5,0,0,1,.347-.09H373a.5.5,0,0,1,.347.09.466.466,0,0,1,.093.337v.946a.465.465,0,0,1-.092.335.509.509,0,0,1-.349.089h-1.3a.512.512,0,0,1-.35-.088.467.467,0,0,1-.091-.336Zm.339,1.1h1.5V440.33h-1.5Zm-3.733.271v-2.186h.364v.894h1.724v-.894h.364v2.186h-.364v-.991h-1.724v.991Z" transform="translate(-338.004 -409.1)" fill="none" stroke="#bbbcbf" stroke-miterlimit="22.926" stroke-width="0.216"/>
  <path id="Caminho_384" data-name="Caminho 384" d="M486.447,367.114v4.679h-.9v-4.679h-2.476v-.735h5.864v.735Zm-5.811,4.679v-5.414h.9v5.414Zm-7.719,0v-5.414h4.363a1.264,1.264,0,0,1,.876.249,1.052,1.052,0,0,1,.267.8v1.208a1.046,1.046,0,0,1-.267.8,1.265,1.265,0,0,1-.876.248h-3.462v2.109Zm4.011-4.711h-3.109v1.888h3.109a.636.636,0,0,0,.458-.128.621.621,0,0,0,.126-.441v-.752a.621.621,0,0,0-.126-.44A.635.635,0,0,0,476.927,367.082Zm-12.7,4.711,2.956-5.414h.969l3.009,5.414h-.995l-.691-1.333h-3.664l-.692,1.333Zm1.963-2.025h2.916L467.649,367Zm-5.392,2.025-2.954-5.414h.974l2.392,4.512,2.283-4.512h.9l-2.833,5.414Z" transform="translate(-420.574 -342.715)" fill="#7b2277"/>
  <path id="Caminho_385" data-name="Caminho 385" d="M486.447,367.114v4.679h-.9v-4.679h-2.476v-.735h5.864v.735Zm-5.811,4.679v-5.414h.9v5.414Zm-7.719,0v-5.414h4.363a1.264,1.264,0,0,1,.876.249,1.052,1.052,0,0,1,.267.8v1.208a1.046,1.046,0,0,1-.267.8,1.265,1.265,0,0,1-.876.248h-3.462v2.109Zm4.011-4.711h-3.109v1.888h3.109a.636.636,0,0,0,.458-.128.621.621,0,0,0,.126-.441v-.752a.621.621,0,0,0-.126-.44A.635.635,0,0,0,476.927,367.082Zm-12.7,4.711,2.956-5.414h.969l3.009,5.414h-.995l-.691-1.333h-3.664l-.692,1.333Zm1.963-2.025h2.916L467.649,367Zm-5.392,2.025-2.954-5.414h.974l2.392,4.512,2.283-4.512h.9l-2.833,5.414Z" transform="translate(-420.574 -342.715)" fill="none" stroke="#7b2277" stroke-miterlimit="22.926" stroke-width="0.216"/>
  <rect id="Retângulo_43" data-name="Retângulo 43" width="0.374" height="0.363" transform="translate(29.871 22.954)" fill="#7b2277"/>
  <rect id="Retângulo_44" data-name="Retângulo 44" width="0.374" height="0.363" transform="translate(29.884 24.657)" fill="#7b2277"/>
  <rect id="Retângulo_45" data-name="Retângulo 45" width="0.429" height="0.417" transform="translate(30.912 22.898)" fill="#7b2277"/>
  <rect id="Retângulo_46" data-name="Retângulo 46" width="0.669" height="0.65" transform="translate(30.239 23.32)" fill="#7b2277"/>
  <rect id="Retângulo_47" data-name="Retângulo 47" width="0.669" height="0.65" transform="translate(30.242 25.028)" fill="#7b2277"/>
  <rect id="Retângulo_48" data-name="Retângulo 48" width="1.063" height="1.033" transform="translate(30.903 23.984)" fill="#7b2277"/>
  <rect id="Retângulo_49" data-name="Retângulo 49" width="1.063" height="1.066" transform="translate(31.971 22.909)" fill="#7b2277"/>
  <path id="Caminho_386" data-name="Caminho 386" d="M398.174,386.8h.6l.522,1.692.511-1.692h.569l-.821,2.583-.526-.01Z" transform="translate(-365.813 -361.454)" fill="#7b2277" fill-rule="evenodd"/>
  <path id="Caminho_387" data-name="Caminho 387" d="M371.632,356.808l0,1.46a2.147,2.147,0,0,1,1.939,3.108l.6,1.585-1.575-.588a2.155,2.155,0,0,1-3.1-1.916l-1.465-.017a3.609,3.609,0,1,0,3.6-3.633Z" transform="translate(-338.147 -333.931)" fill="#bbbcbf" fill-rule="evenodd"/>
  <path id="Caminho_388" data-name="Caminho 388" d="M371.632,356.808l0,1.46a2.147,2.147,0,0,1,1.939,3.108l.6,1.585-1.575-.588a2.155,2.155,0,0,1-3.1-1.916l-1.465-.017a3.609,3.609,0,1,0,3.6-3.633Z" transform="translate(-338.147 -333.931)" fill="none" stroke="#bbbcbf" stroke-miterlimit="22.926" stroke-width="0.567"/>
</svg>
