<svg xmlns="http://www.w3.org/2000/svg" width="200.306" height="105.314" viewBox="0 0 200.306 105.314">
  <g id="Grupo_475" data-name="Grupo 475" transform="translate(-5.054 -78.907)">
    <path id="Caminho_370" data-name="Caminho 370" d="M570.693,265.073c15.743-2.977,29.132,1.544,31.806-8.066a37.816,37.816,0,0,0-.546,9.574c-19.628.934-31.261-1.508-31.261-1.508" transform="translate(-429.468 -135.224)" fill="#fff" fill-rule="evenodd"/>
    <path id="Caminho_371" data-name="Caminho 371" d="M413.971,160.121c28.4,5.117,50.569,11.781,60.7,14.176,0,0-17.848-7.521-52.817-18.928-20.105-6.558-20.3-6.984-26.915,17.538-1.772,6.57-3.184,14.91-4.962,24.29,7.893-22.53,14.072-38.645,23.99-37.076" transform="translate(-292.26 -55.15)" fill="#fff" fill-rule="evenodd"/>
    <path id="Caminho_372" data-name="Caminho 372" d="M124.127,380.353q-12.711,14.92-13.949,16.494-22.913,2.285-56.432-1.091s.076-4.2.227-12.586c4.695,5.571,7.608,9.217,13.947,9.626,9.053.585,16.222.979,21.811,1.021,6.883.051,8.445.093,14.557-2.75a209.249,209.249,0,0,0,19.839-10.715" transform="translate(-36.97 -228.876)" fill="#fff" fill-rule="evenodd"/>
    <path id="Caminho_373" data-name="Caminho 373" d="M46.677,147.244c3.077,5,51.32,8.248,72.094-1.92,2.13-20.46,5.531-46.75,11.915-66.414C115.381,78.8,71.85,81.942,63.122,90.056a27.778,27.778,0,0,0-3.309,3.723c11.727-3.366,29.79-6.746,55.949-7.672,3.828-.135,8.928-.561,7.622,5.212a444.166,444.166,0,0,0-7.3,44.344c-.732,6.421-3.57,7.213-13.018,8.906a148.038,148.038,0,0,1-34.046,2.051c-13.339-.664-17.905-.8-18.179-12-.152-6.268.63-15.076,2.267-25.914-.007-.63.01-1.242.049-1.839-4.89,13.793-6.656,30.582-6.476,40.377" transform="translate(-31.594 0)" fill="#fff" fill-rule="evenodd"/>
    <path id="Caminho_374" data-name="Caminho 374" d="M480.428,130.9c-.834-2.322-2.773-3.789-7.388-5.653-32.374-13.065-67.431-29.641-90.746-38.341-2.431-.642-3.742-.983-5.226,3.888a312.5,312.5,0,0,0-9.646,58.755h.99c2.761-17.192,7.553-35.7,11.873-47.425,3.167-8.594,6.165-6.414,13.9-3.544,13.021,4.834,40.881,15.8,86.247,32.32" transform="translate(-275.132 -5.798)" fill="#fff" fill-rule="evenodd"/>
    <path id="Caminho_375" data-name="Caminho 375" d="M21.972,175.826c-8.247.491-7.844,4.8-10.735,16.911-.65,2.729-6.919,2-6.112-2.18,1.822-9.439,5.19-15.536,11.478-16.814,0,0,2.014-.077,6.012-.143a18.2,18.2,0,0,0-.643,2.226" transform="translate(0 -71.896)" fill="#fff" fill-rule="evenodd"/>
    <path id="Caminho_376" data-name="Caminho 376" d="M298.164,121.514c-15.145-.422-13.485,2.782-15.122,20.585-.34,3.7-11.046,4.972-9.972-.59,2.423-12.556,3.952-21,12.318-22.7,0,0,5.063-.168,13.323-.27Z" transform="translate(-203.437 -30.092)" fill="#fff" fill-rule="evenodd"/>
    <path id="Caminho_377" data-name="Caminho 377" d="M538.62,222.387a6.439,6.439,0,0,0-5.575.963l1.945-22.776,1,.264Z" transform="translate(-400.882 -92.377)" fill="#fff" fill-rule="evenodd"/>
    <path id="Caminho_378" data-name="Caminho 378" d="M696.115,262.915l1.143-11.863.917.224,1.6,11.638Z" transform="translate(-524.696 -130.703)" fill="#fff" fill-rule="evenodd"/>
    <path id="Caminho_379" data-name="Caminho 379" d="M509.929,289.1c8.346-.06,27.678.135,50.641,1.018,1.765.068,2.353.016,3.207-1.02-13.4-1-34.876-2.515-57-4.662-3.16-.306-6.194-.475-9.321,3.353l-9.131,11.177c7.59-3.3,10.248-9.785,21.6-9.866" transform="translate(-366.93 -155.942)" fill="#fff" fill-rule="evenodd"/>
    <path id="Caminho_380" data-name="Caminho 380" d="M93.244,196.12c8.018,1.37,11.237,1.046,26.828-.037-13.649-3.682-22.41-7.771-28.774-14.73-6.765-7.4-4.313-23.324-3.939-31.069A77.97,77.97,0,0,0,80.3,175.077c-1.615,13.217-2.409,18.42,12.947,21.043" transform="translate(-56.501 -54.194)" fill="#fff" fill-rule="evenodd"/>
    <path id="Caminho_381" data-name="Caminho 381" d="M111.419,411.116s-11.175,1.112-37.757-.035c-5.822-.251-9.737-.2-12.975-.71-5.875-.925-14.829-6.49-15.316-13.056-.263,0-1.1-6.3-.189-18.908,4.034,1.927,2.84,1.779,2.814,6.234l7.086,7.372c1.2,1.363,2.277,1.7,5.424,1.959,7.957.647,16.722.924,24.21.9,8.043-.021,10.273.1,16.639-4.6l16.133-11.894q-.412,4.236-.766,8.46c-.85,10.09-1.368,11.045-9.145,11.863-20.7,2.177-44.5.732-58.746-1.939.6,3.125,2.881,5.041,5.979,5.892,40.1,2.7,59.846,2.038,64.988,0-2.48,3.627-4.992,8.218-8.38,8.456" transform="translate(-30.154 -227.379)" fill="#fff" fill-rule="evenodd"/>
    <path id="Caminho_382" data-name="Caminho 382" d="M479.733,442.375h-4.521v1.784h4.026a1.666,1.666,0,0,1,1.171.314,1.7,1.7,0,0,1,.316,1.194v.719a1.73,1.73,0,0,1-.31,1.2,1.654,1.654,0,0,1-1.177.316h-3.731a1.666,1.666,0,0,1-1.183-.318,1.722,1.722,0,0,1-.314-1.2v-.175l.991-.229v1.028h4.757v-1.921h-4.014a1.645,1.645,0,0,1-1.179-.318,1.738,1.738,0,0,1-.308-1.2v-.556a1.736,1.736,0,0,1,.308-1.194,1.645,1.645,0,0,1,1.179-.318h3.4a1.7,1.7,0,0,1,1.179.312,1.474,1.474,0,0,1,.324,1.09v.134l-.917.26Zm-14.494-.867v5.5H469.9v-5.5h1.053v4.878a1.716,1.716,0,0,1-.312,1.2,1.66,1.66,0,0,1-1.177.316h-3.793a1.657,1.657,0,0,1-1.181-.32,1.727,1.727,0,0,1-.314-1.2v-4.878ZM454.682,447.9v-6.394h5.154a1.491,1.491,0,0,1,1.034.293,1.233,1.233,0,0,1,.316.944v.748a1.034,1.034,0,0,1-.256.766,1.359,1.359,0,0,1-.807.322,1.137,1.137,0,0,1,1.1,1.249v.816a1.081,1.081,0,0,1-.438.946,2.314,2.314,0,0,1-1.332.31Zm5.414-4.337v-.644a.564.564,0,0,0-.136-.436.807.807,0,0,0-.518-.122h-3.694v1.772h3.694a.776.776,0,0,0,.512-.128A.57.57,0,0,0,460.1,443.565Zm.05,2.7v-.533a.9.9,0,0,0-.153-.6.732.732,0,0,0-.551-.167h-3.694v2.057h3.694a.734.734,0,0,0,.553-.163A.883.883,0,0,0,460.145,446.266ZM450.3,447.9v-6.394h1.065V447.9Zm-10.38,0v-6.394h.671l4.782,4.277a4.31,4.31,0,0,1,.349.351q.183.2.378.452c-.033-.2-.056-.419-.072-.644s-.025-.533-.025-.927v-3.509h.979V447.9h-.6l-4.91-4.446c-.023-.021-.06-.052-.108-.1a2.706,2.706,0,0,1-.539-.622c.025.192.041.4.054.62s.019.479.019.776V447.9Zm-8.672-7.075,1.191-2.107h1.074l1.191,2.107h-.646l-1.076-1.477-1.088,1.477Zm-1.982,2.189a1.708,1.708,0,0,1,.312-1.188,1.67,1.67,0,0,1,1.189-.32h4.419a1.653,1.653,0,0,1,1.177.316,1.711,1.711,0,0,1,.312,1.192v3.37a1.716,1.716,0,0,1-.312,1.2,1.653,1.653,0,0,1-1.177.316h-4.419a1.659,1.659,0,0,1-1.189-.322,1.718,1.718,0,0,1-.312-1.193Zm1.065,3.994h5.29v-4.634h-5.29ZM415.6,443.9a1.364,1.364,0,0,1,.273-.985,1.472,1.472,0,0,1,1.016-.262h3.791a1.472,1.472,0,0,1,1.016.262,1.363,1.363,0,0,1,.273.985v2.765a1.359,1.359,0,0,1-.269.981,1.488,1.488,0,0,1-1.02.26h-3.791a1.5,1.5,0,0,1-1.022-.258,1.366,1.366,0,0,1-.266-.983Zm.991,3.213h4.386v-3.68h-4.386Zm-6.467-4.461a6.739,6.739,0,0,1,1.26.1,2.589,2.589,0,0,1,.845.306,2.372,2.372,0,0,1,.84.923,2.774,2.774,0,0,1,.3,1.287,2.413,2.413,0,0,1-.8,1.983,3.81,3.81,0,0,1-2.443.657H407.1v-5.254Zm-.109.781H408.09v3.68h1.922a2.958,2.958,0,0,0,1.823-.434,1.715,1.715,0,0,0,.541-1.425,1.657,1.657,0,0,0-.547-1.394A3,3,0,0,0,410.012,443.429Zm-14.5,2.491H398.3l-1.4-2.5Zm-2.079,1.983,3.035-5.254h.906l3.107,5.254h-1.076l-.684-1.227H395.1l-.671,1.227Zm-6.967,0v-5.254h4.223a1.226,1.226,0,0,1,.846.24,1.016,1.016,0,0,1,.258.776v1.177a1,1,0,0,1-.258.768,1.238,1.238,0,0,1-.846.235h-.7l2.321,2.057H390.99l-2.1-2.057h-1.435V447.9Zm3.787-4.485h-2.8v1.7h2.8a.664.664,0,0,0,.446-.11.585.585,0,0,0,.116-.423v-.632a.569.569,0,0,0-.122-.411A.619.619,0,0,0,390.255,443.416ZM377.8,443.9a1.365,1.365,0,0,1,.273-.985,1.473,1.473,0,0,1,1.016-.262h3.791a1.472,1.472,0,0,1,1.016.262,1.363,1.363,0,0,1,.273.985v2.765a1.359,1.359,0,0,1-.268.981,1.489,1.489,0,0,1-1.02.26h-3.791a1.5,1.5,0,0,1-1.022-.258,1.366,1.366,0,0,1-.267-.983Zm.991,3.213h4.385v-3.68h-4.385Zm-10.916.793v-6.394h1.065v2.615h5.042v-2.615h1.066V447.9h-1.066V445h-5.042v2.9Z" transform="translate(-275.473 -273.192)" fill="#fff"/>
    <path id="Caminho_383" data-name="Caminho 383" d="M479.733,442.375h-4.521v1.784h4.026a1.666,1.666,0,0,1,1.171.314,1.7,1.7,0,0,1,.316,1.194v.719a1.73,1.73,0,0,1-.31,1.2,1.654,1.654,0,0,1-1.177.316h-3.731a1.666,1.666,0,0,1-1.183-.318,1.722,1.722,0,0,1-.314-1.2v-.175l.991-.229v1.028h4.757v-1.921h-4.014a1.645,1.645,0,0,1-1.179-.318,1.738,1.738,0,0,1-.308-1.2v-.556a1.736,1.736,0,0,1,.308-1.194,1.645,1.645,0,0,1,1.179-.318h3.4a1.7,1.7,0,0,1,1.179.312,1.474,1.474,0,0,1,.324,1.09v.134l-.917.26Zm-14.494-.867v5.5H469.9v-5.5h1.053v4.878a1.716,1.716,0,0,1-.312,1.2,1.66,1.66,0,0,1-1.177.316h-3.793a1.657,1.657,0,0,1-1.181-.32,1.727,1.727,0,0,1-.314-1.2v-4.878ZM454.682,447.9v-6.394h5.154a1.491,1.491,0,0,1,1.034.293,1.233,1.233,0,0,1,.316.944v.748a1.034,1.034,0,0,1-.256.766,1.359,1.359,0,0,1-.807.322,1.137,1.137,0,0,1,1.1,1.249v.816a1.081,1.081,0,0,1-.438.946,2.314,2.314,0,0,1-1.332.31Zm5.414-4.337v-.644a.564.564,0,0,0-.136-.436.807.807,0,0,0-.518-.122h-3.694v1.772h3.694a.776.776,0,0,0,.512-.128A.57.57,0,0,0,460.1,443.565Zm.05,2.7v-.533a.9.9,0,0,0-.153-.6.732.732,0,0,0-.551-.167h-3.694v2.057h3.694a.734.734,0,0,0,.553-.163A.883.883,0,0,0,460.145,446.266ZM450.3,447.9v-6.394h1.065V447.9Zm-10.38,0v-6.394h.671l4.782,4.277a4.31,4.31,0,0,1,.349.351q.183.2.378.452c-.033-.2-.056-.419-.072-.644s-.025-.533-.025-.927v-3.509h.979V447.9h-.6l-4.91-4.446c-.023-.021-.06-.052-.108-.1a2.706,2.706,0,0,1-.539-.622c.025.192.041.4.054.62s.019.479.019.776V447.9Zm-8.672-7.075,1.191-2.107h1.074l1.191,2.107h-.646l-1.076-1.477-1.088,1.477Zm-1.982,2.189a1.708,1.708,0,0,1,.312-1.188,1.67,1.67,0,0,1,1.189-.32h4.419a1.653,1.653,0,0,1,1.177.316,1.711,1.711,0,0,1,.312,1.192v3.37a1.716,1.716,0,0,1-.312,1.2,1.653,1.653,0,0,1-1.177.316h-4.419a1.659,1.659,0,0,1-1.189-.322,1.718,1.718,0,0,1-.312-1.193Zm1.065,3.994h5.29v-4.634h-5.29ZM415.6,443.9a1.364,1.364,0,0,1,.273-.985,1.472,1.472,0,0,1,1.016-.262h3.791a1.472,1.472,0,0,1,1.016.262,1.363,1.363,0,0,1,.273.985v2.765a1.359,1.359,0,0,1-.269.981,1.488,1.488,0,0,1-1.02.26h-3.791a1.5,1.5,0,0,1-1.022-.258,1.366,1.366,0,0,1-.266-.983Zm.991,3.213h4.386v-3.68h-4.386Zm-6.467-4.461a6.739,6.739,0,0,1,1.26.1,2.589,2.589,0,0,1,.845.306,2.372,2.372,0,0,1,.84.923,2.774,2.774,0,0,1,.3,1.287,2.413,2.413,0,0,1-.8,1.983,3.81,3.81,0,0,1-2.443.657H407.1v-5.254Zm-.109.781H408.09v3.68h1.922a2.958,2.958,0,0,0,1.823-.434,1.715,1.715,0,0,0,.541-1.425,1.657,1.657,0,0,0-.547-1.394A3,3,0,0,0,410.012,443.429Zm-14.5,2.491H398.3l-1.4-2.5Zm-2.079,1.983,3.035-5.254h.906l3.107,5.254h-1.076l-.684-1.227H395.1l-.671,1.227Zm-6.967,0v-5.254h4.223a1.226,1.226,0,0,1,.846.24,1.016,1.016,0,0,1,.258.776v1.177a1,1,0,0,1-.258.768,1.238,1.238,0,0,1-.846.235h-.7l2.321,2.057H390.99l-2.1-2.057h-1.435V447.9Zm3.787-4.485h-2.8v1.7h2.8a.664.664,0,0,0,.446-.11.585.585,0,0,0,.116-.423v-.632a.569.569,0,0,0-.122-.411A.619.619,0,0,0,390.255,443.416ZM377.8,443.9a1.365,1.365,0,0,1,.273-.985,1.473,1.473,0,0,1,1.016-.262h3.791a1.472,1.472,0,0,1,1.016.262,1.363,1.363,0,0,1,.273.985v2.765a1.359,1.359,0,0,1-.268.981,1.489,1.489,0,0,1-1.02.26h-3.791a1.5,1.5,0,0,1-1.022-.258,1.366,1.366,0,0,1-.267-.983Zm.991,3.213h4.385v-3.68h-4.385Zm-10.916.793v-6.394h1.065v2.615h5.042v-2.615h1.066V447.9h-1.066V445h-5.042v2.9Z" transform="translate(-275.473 -273.192)" fill="#fff" stroke="#bbbcbf" stroke-miterlimit="22.926" stroke-width="0.216"/>
    <path id="Caminho_384" data-name="Caminho 384" d="M541.485,368.528v13.684h-2.639V368.528h-7.24v-2.149h17.148v2.149Zm-17,13.684V366.379h2.638v15.833Zm-22.574,0V366.379h12.761a3.7,3.7,0,0,1,2.562.727,3.077,3.077,0,0,1,.782,2.347v3.533a3.059,3.059,0,0,1-.782,2.333,3.7,3.7,0,0,1-2.562.726H504.554v6.167Zm11.729-13.777h-9.091v5.523h9.091a1.859,1.859,0,0,0,1.34-.373,1.817,1.817,0,0,0,.367-1.288v-2.2a1.816,1.816,0,0,0-.367-1.288A1.858,1.858,0,0,0,513.645,368.435Zm-37.129,13.777,8.645-15.833h2.833l8.8,15.833h-2.909l-2.02-3.9H481.147l-2.025,3.9Zm5.741-5.922h8.529l-4.275-8.1Zm-15.768,5.922-8.64-15.833H460.7l6.995,13.195,6.677-13.195h2.623l-8.284,15.833Z" transform="translate(-343.789 -218.266)" fill="#fff"/>
    <path id="Caminho_385" data-name="Caminho 385" d="M541.485,368.528v13.684h-2.639V368.528h-7.24v-2.149h17.148v2.149Zm-17,13.684V366.379h2.638v15.833Zm-22.574,0V366.379h12.761a3.7,3.7,0,0,1,2.562.727,3.077,3.077,0,0,1,.782,2.347v3.533a3.059,3.059,0,0,1-.782,2.333,3.7,3.7,0,0,1-2.562.726H504.554v6.167Zm11.729-13.777h-9.091v5.523h9.091a1.859,1.859,0,0,0,1.34-.373,1.817,1.817,0,0,0,.367-1.288v-2.2a1.816,1.816,0,0,0-.367-1.288A1.858,1.858,0,0,0,513.645,368.435Zm-37.129,13.777,8.645-15.833h2.833l8.8,15.833h-2.909l-2.02-3.9H481.147l-2.025,3.9Zm5.741-5.922h8.529l-4.275-8.1Zm-15.768,5.922-8.64-15.833H460.7l6.995,13.195,6.677-13.195h2.623l-8.284,15.833Z" transform="translate(-343.789 -218.266)" fill="#fff"/>
    <rect id="Retângulo_43" data-name="Retângulo 43" width="1.093" height="1.062" transform="translate(92.41 146.034)" fill="#fff"/>
    <rect id="Retângulo_44" data-name="Retângulo 44" width="1.093" height="1.062" transform="translate(92.448 151.014)" fill="#fff"/>
    <rect id="Retângulo_45" data-name="Retângulo 45" width="1.255" height="1.219" transform="translate(95.454 145.871)" fill="#fff"/>
    <rect id="Retângulo_46" data-name="Retângulo 46" width="1.955" height="1.9" transform="translate(93.486 147.107)" fill="#fff"/>
    <rect id="Retângulo_47" data-name="Retângulo 47" width="1.955" height="1.9" transform="translate(93.494 152.1)" fill="#fff"/>
    <rect id="Retângulo_48" data-name="Retângulo 48" width="3.11" height="3.022" transform="translate(95.427 149.047)" fill="#fff"/>
    <rect id="Retângulo_49" data-name="Retângulo 49" width="3.11" height="3.117" transform="translate(98.552 145.904)" fill="#fff"/>
    <path id="Caminho_386" data-name="Caminho 386" d="M398.174,386.8l1.75,0,1.527,4.948,1.494-4.947h1.665l-2.4,7.555-1.539-.031Z" transform="translate(-298.481 -233.77)" fill="#fff" fill-rule="evenodd"/>
    <path id="Caminho_387" data-name="Caminho 387" d="M378.569,356.808l.013,4.271a6.278,6.278,0,0,1,5.671,9.091L386,374.805l-4.606-1.72c-3.557,1.855-9.093-.443-9.079-5.6l-4.286-.049c-.125,9.11,10.883,14.152,17.931,7.478C392.1,369.044,389.037,357.441,378.569,356.808Z" transform="translate(-275.591 -210.999)" fill="#fff" fill-rule="evenodd"/>
    <path id="Caminho_388" data-name="Caminho 388" d="M378.569,356.808l.013,4.271a6.278,6.278,0,0,1,5.671,9.091L386,374.805l-4.606-1.72c-3.557,1.855-9.093-.443-9.079-5.6l-4.286-.049c-.125,9.11,10.883,14.152,17.931,7.478C392.1,369.044,389.037,357.441,378.569,356.808Z" transform="translate(-275.591 -210.999)" fill="#fff" stroke="#bbbcbf" stroke-miterlimit="22.926" stroke-width="0.567"/>
  </g>
</svg>
